<svg width="512" height="70" viewBox="0 0 512 70" fill="none" xmlns="http://www.w3.org/2000/svg">
<path d="M43.5107 42.4229C43.1234 47.7777 41.141 51.9932 37.5635 55.0693C34.0088 58.1455 29.3148 59.6836 23.4814 59.6836C17.1012 59.6836 12.0768 57.5417 8.4082 53.2578C4.76237 48.9512 2.93945 43.0495 2.93945 35.5527V32.5107C2.93945 27.7256 3.78255 23.5101 5.46875 19.8643C7.15495 16.2184 9.55892 13.4271 12.6807 11.4902C15.8252 9.5306 19.471 8.55078 23.6182 8.55078C29.3604 8.55078 33.986 10.0889 37.4951 13.165C41.0042 16.2412 43.0322 20.5592 43.5791 26.1191H33.3252C33.0745 22.9062 32.1745 20.582 30.625 19.1465C29.0983 17.6882 26.7627 16.959 23.6182 16.959C20.2002 16.959 17.6367 18.1895 15.9277 20.6504C14.2415 23.0885 13.3757 26.8825 13.3301 32.0322V35.792C13.3301 41.1696 14.139 45.1003 15.7568 47.584C17.3975 50.0677 19.9723 51.3096 23.4814 51.3096C26.6488 51.3096 29.0072 50.5918 30.5566 49.1562C32.1289 47.6979 33.029 45.4535 33.2568 42.4229H43.5107ZM70.376 31.2803C69.0316 31.098 67.8467 31.0068 66.8213 31.0068C63.0843 31.0068 60.6348 32.2715 59.4727 34.8008V59H49.5947V22.0176H58.9258L59.1992 26.4268C61.1816 23.0316 63.9274 21.334 67.4365 21.334C68.5303 21.334 69.5557 21.4821 70.5127 21.7783L70.376 31.2803ZM91.499 59.6836C86.0758 59.6836 81.6553 58.0202 78.2373 54.6934C74.8421 51.3665 73.1445 46.9346 73.1445 41.3975V40.4404C73.1445 36.7262 73.8623 33.4108 75.2979 30.4941C76.7334 27.5547 78.7614 25.2988 81.3818 23.7266C84.0251 22.1315 87.0329 21.334 90.4053 21.334C95.4639 21.334 99.4401 22.929 102.334 26.1191C105.251 29.3092 106.709 33.8324 106.709 39.6885V43.7217H83.1592C83.4782 46.137 84.4352 48.0739 86.0303 49.5322C87.6481 50.9906 89.6875 51.7197 92.1484 51.7197C95.9538 51.7197 98.9274 50.3411 101.069 47.584L105.923 53.0186C104.442 55.1149 102.437 56.7555 99.9072 57.9404C97.3779 59.1025 94.5752 59.6836 91.499 59.6836ZM90.3711 29.332C88.4115 29.332 86.8164 29.9928 85.5859 31.3145C84.3783 32.6361 83.6035 34.5273 83.2617 36.9883H97.002V36.2021C96.9564 34.0146 96.3639 32.3285 95.2246 31.1436C94.0853 29.9359 92.4674 29.332 90.3711 29.332ZM110.811 40.2354C110.811 34.4704 112.098 29.8789 114.673 26.4609C117.271 23.043 120.814 21.334 125.303 21.334C128.903 21.334 131.877 22.6784 134.224 25.3672V6.5H144.136V59H135.215L134.736 55.0693C132.275 58.1455 129.108 59.6836 125.234 59.6836C120.882 59.6836 117.384 57.9746 114.741 54.5566C112.121 51.1159 110.811 46.3421 110.811 40.2354ZM120.688 40.9531C120.688 44.4167 121.292 47.0713 122.5 48.917C123.708 50.7627 125.462 51.6855 127.764 51.6855C130.817 51.6855 132.97 50.3981 134.224 47.8232V33.2285C132.993 30.6536 130.863 29.3662 127.832 29.3662C123.07 29.3662 120.688 33.2285 120.688 40.9531ZM162.217 59H152.305V22.0176H162.217V59ZM151.724 12.4473C151.724 10.9661 152.214 9.74707 153.193 8.79004C154.196 7.83301 155.552 7.35449 157.261 7.35449C158.947 7.35449 160.291 7.83301 161.294 8.79004C162.297 9.74707 162.798 10.9661 162.798 12.4473C162.798 13.9512 162.285 15.1816 161.26 16.1387C160.257 17.0957 158.924 17.5742 157.261 17.5742C155.597 17.5742 154.253 17.0957 153.228 16.1387C152.225 15.1816 151.724 13.9512 151.724 12.4473ZM182.212 12.9258V22.0176H188.535V29.2637H182.212V47.7207C182.212 49.0879 182.474 50.0677 182.998 50.6602C183.522 51.2526 184.525 51.5488 186.006 51.5488C187.1 51.5488 188.068 51.4691 188.911 51.3096V58.7949C186.974 59.3874 184.98 59.6836 182.93 59.6836C176.003 59.6836 172.471 56.1859 172.334 49.1904V29.2637H166.934V22.0176H172.334V12.9258H182.212ZM233.755 42.4229C233.368 47.7777 231.385 51.9932 227.808 55.0693C224.253 58.1455 219.559 59.6836 213.726 59.6836C207.345 59.6836 202.321 57.5417 198.652 53.2578C195.007 48.9512 193.184 43.0495 193.184 35.5527V32.5107C193.184 27.7256 194.027 23.5101 195.713 19.8643C197.399 16.2184 199.803 13.4271 202.925 11.4902C206.069 9.5306 209.715 8.55078 213.862 8.55078C219.604 8.55078 224.23 10.0889 227.739 13.165C231.248 16.2412 233.276 20.5592 233.823 26.1191H223.569C223.319 22.9062 222.419 20.582 220.869 19.1465C219.342 17.6882 217.007 16.959 213.862 16.959C210.444 16.959 207.881 18.1895 206.172 20.6504C204.486 23.0885 203.62 26.8825 203.574 32.0322V35.792C203.574 41.1696 204.383 45.1003 206.001 47.584C207.642 50.0677 210.216 51.3096 213.726 51.3096C216.893 51.3096 219.251 50.5918 220.801 49.1562C222.373 47.6979 223.273 45.4535 223.501 42.4229H233.755ZM261.27 59C260.814 58.1113 260.483 57.0062 260.278 55.6846C257.886 58.3506 254.775 59.6836 250.947 59.6836C247.324 59.6836 244.316 58.6354 241.924 56.5391C239.554 54.4427 238.369 51.7995 238.369 48.6094C238.369 44.6901 239.816 41.6823 242.71 39.5859C245.627 37.4896 249.831 36.43 255.322 36.4072H259.868V34.2881C259.868 32.5791 259.424 31.2119 258.535 30.1865C257.669 29.1611 256.291 28.6484 254.399 28.6484C252.736 28.6484 251.426 29.0472 250.469 29.8447C249.535 30.6423 249.067 31.736 249.067 33.126H239.189C239.189 30.984 239.85 29.0016 241.172 27.1787C242.493 25.3558 244.362 23.9316 246.777 22.9062C249.193 21.8581 251.904 21.334 254.912 21.334C259.469 21.334 263.081 22.4847 265.747 24.7861C268.436 27.0648 269.78 30.2777 269.78 34.4248V50.4551C269.803 53.9642 270.293 56.6188 271.25 58.4189V59H261.27ZM253.101 52.1299C254.559 52.1299 255.903 51.8109 257.134 51.1729C258.364 50.512 259.276 49.6348 259.868 48.541V42.1836H256.177C251.232 42.1836 248.6 43.8926 248.281 47.3105L248.247 47.8916C248.247 49.1221 248.68 50.1361 249.546 50.9336C250.412 51.7311 251.597 52.1299 253.101 52.1299ZM298.149 31.2803C296.805 31.098 295.62 31.0068 294.595 31.0068C290.858 31.0068 288.408 32.2715 287.246 34.8008V59H277.368V22.0176H286.699L286.973 26.4268C288.955 23.0316 291.701 21.334 295.21 21.334C296.304 21.334 297.329 21.4821 298.286 21.7783L298.149 31.2803ZM300.713 40.2354C300.713 34.4704 302 29.8789 304.575 26.4609C307.173 23.043 310.716 21.334 315.205 21.334C318.805 21.334 321.779 22.6784 324.126 25.3672V6.5H334.038V59H325.117L324.639 55.0693C322.178 58.1455 319.01 59.6836 315.137 59.6836C310.785 59.6836 307.287 57.9746 304.644 54.5566C302.023 51.1159 300.713 46.3421 300.713 40.2354ZM310.591 40.9531C310.591 44.4167 311.195 47.0713 312.402 48.917C313.61 50.7627 315.365 51.6855 317.666 51.6855C320.719 51.6855 322.873 50.3981 324.126 47.8232V33.2285C322.896 30.6536 320.765 29.3662 317.734 29.3662C312.972 29.3662 310.591 33.2285 310.591 40.9531Z" fill="black"/>
<path d="M383.223 35.2451C383.223 40.1442 382.357 44.4395 380.625 48.1309C378.893 51.8223 376.41 54.6706 373.174 56.6758C369.961 58.681 366.27 59.6836 362.1 59.6836C357.975 59.6836 354.295 58.6924 351.06 56.71C347.824 54.7275 345.317 51.902 343.54 48.2334C341.763 44.542 340.863 40.3037 340.84 35.5186V33.0576C340.84 28.1585 341.717 23.8519 343.472 20.1377C345.249 16.4007 347.744 13.541 350.957 11.5586C354.193 9.55339 357.884 8.55078 362.031 8.55078C366.178 8.55078 369.858 9.55339 373.071 11.5586C376.307 13.541 378.802 16.4007 380.557 20.1377C382.334 23.8519 383.223 28.1471 383.223 33.0234V35.2451ZM372.832 32.9893C372.832 27.7712 371.898 23.8063 370.029 21.0947C368.161 18.3831 365.495 17.0273 362.031 17.0273C358.59 17.0273 355.936 18.3717 354.067 21.0605C352.199 23.7266 351.253 27.6458 351.23 32.8184V35.2451C351.23 40.3265 352.165 44.2686 354.033 47.0713C355.902 49.874 358.59 51.2754 362.1 51.2754C365.54 51.2754 368.184 49.931 370.029 47.2422C371.875 44.5306 372.809 40.5885 372.832 35.416V32.9893ZM388.486 40.2354C388.486 34.4704 389.774 29.8789 392.349 26.4609C394.946 23.043 398.49 21.334 402.979 21.334C406.579 21.334 409.552 22.6784 411.899 25.3672V6.5H421.812V59H412.891L412.412 55.0693C409.951 58.1455 406.784 59.6836 402.91 59.6836C398.558 59.6836 395.06 57.9746 392.417 54.5566C389.797 51.1159 388.486 46.3421 388.486 40.2354ZM398.364 40.9531C398.364 44.4167 398.968 47.0713 400.176 48.917C401.383 50.7627 403.138 51.6855 405.439 51.6855C408.493 51.6855 410.646 50.3981 411.899 47.8232V33.2285C410.669 30.6536 408.538 29.3662 405.508 29.3662C400.745 29.3662 398.364 33.2285 398.364 40.9531ZM427.93 40.2354C427.93 34.4704 429.217 29.8789 431.792 26.4609C434.39 23.043 437.933 21.334 442.422 21.334C446.022 21.334 448.996 22.6784 451.343 25.3672V6.5H461.255V59H452.334L451.855 55.0693C449.395 58.1455 446.227 59.6836 442.354 59.6836C438.001 59.6836 434.504 57.9746 431.86 54.5566C429.24 51.1159 427.93 46.3421 427.93 40.2354ZM437.808 40.9531C437.808 44.4167 438.411 47.0713 439.619 48.917C440.827 50.7627 442.581 51.6855 444.883 51.6855C447.936 51.6855 450.09 50.3981 451.343 47.8232V33.2285C450.112 30.6536 447.982 29.3662 444.951 29.3662C440.189 29.3662 437.808 33.2285 437.808 40.9531ZM488.94 48.7803C488.94 47.5726 488.337 46.627 487.129 45.9434C485.944 45.237 484.03 44.6104 481.387 44.0635C472.591 42.2178 468.193 38.4808 468.193 32.8525C468.193 29.5713 469.549 26.8369 472.261 24.6494C474.995 22.4391 478.561 21.334 482.959 21.334C487.653 21.334 491.401 22.4391 494.204 24.6494C497.03 26.8597 498.442 29.7308 498.442 33.2627H488.564C488.564 31.8499 488.109 30.6878 487.197 29.7764C486.286 28.8421 484.862 28.375 482.925 28.375C481.261 28.375 479.974 28.751 479.062 29.5029C478.151 30.2549 477.695 31.2119 477.695 32.374C477.695 33.4678 478.208 34.3564 479.233 35.04C480.282 35.7008 482.036 36.2819 484.497 36.7832C486.958 37.2617 489.032 37.8086 490.718 38.4238C495.936 40.3379 498.545 43.6533 498.545 48.3701C498.545 51.7425 497.098 54.4769 494.204 56.5732C491.31 58.6468 487.573 59.6836 482.993 59.6836C479.894 59.6836 477.137 59.1367 474.722 58.043C472.329 56.9264 470.449 55.4111 469.082 53.4971C467.715 51.5602 467.031 49.4753 467.031 47.2422H476.396C476.488 48.9967 477.137 50.3411 478.345 51.2754C479.552 52.2096 481.17 52.6768 483.198 52.6768C485.09 52.6768 486.514 52.3236 487.471 51.6172C488.451 50.888 488.94 49.9424 488.94 48.7803Z" fill="#4F46E5"/>
</svg>
