<?xml version="1.0" encoding="utf-8"?>
<!-- Generator: Adobe Illustrator 24.1.0, SVG Export Plug-In . SVG Version: 6.00 Build 0)  -->
<svg version="1.1" id="Layer_1" xmlns="http://www.w3.org/2000/svg" xmlns:xlink="http://www.w3.org/1999/xlink" x="0px" y="0px"
	 viewBox="0 0 800 719" style="enable-background:new 0 0 800 719;" xml:space="preserve">
<style type="text/css">
	.st0{fill:url(#SVGID_1_);}
	.st1{fill:#606060;}
	.st2{fill:#222222;}
	.st3{fill:#3D46A2;}
	.st4{fill:#F4F4F4;}
	.st5{opacity:0.4;fill:#D5D5D5;}
	.st6{fill:#A8A8A8;}
	.st7{fill:#919191;}
	.st8{fill:#797979;}
	.st9{fill:#424242;}
	.st10{clip-path:url(#SVGID_3_);fill:#A8A8A8;}
	.st11{clip-path:url(#SVGID_3_);fill:#424242;}
	.st12{clip-path:url(#SVGID_3_);fill:#919191;}
	.st13{clip-path:url(#SVGID_3_);fill:#D5D5D5;}
	.st14{fill:#C8D5DB;}
	.st15{fill:#504DE1;}
	.st16{opacity:0.18;fill:#FFFFFF;}
	.st17{fill:#BFBFBF;}
	.st18{fill:url(#SVGID_4_);}
	.st19{fill:#040B38;}
	.st20{clip-path:url(#SVGID_6_);}
	.st21{fill:#FFB831;}
	.st22{fill:url(#SVGID_7_);}
	.st23{fill:none;stroke:#EEEFF2;stroke-width:0.9795;stroke-miterlimit:10;}
	.st24{fill:#EEEFF2;}
	.st25{opacity:0.77;}
	.st26{fill:#FFFFFF;}
	.st27{clip-path:url(#SVGID_6_);fill:url(#SVGID_8_);}
	.st28{clip-path:url(#SVGID_6_);fill:url(#SVGID_9_);}
	.st29{clip-path:url(#SVGID_6_);fill:url(#SVGID_10_);}
	.st30{fill:url(#SVGID_11_);}
	.st31{fill:#252563;}
	.st32{fill:#4848B5;}
	.st33{fill:#3737DD;}
	.st34{fill:#103975;}
	.st35{fill:#E11D8D;}
	.st36{fill:#977BF3;}
	.st37{fill:#D2CAF9;}
	.st38{fill:#FD6BCD;}
	.st39{fill:#ECEBE4;}
	.st40{clip-path:url(#SVGID_13_);}
	.st41{fill:url(#SVGID_14_);}
	.st42{clip-path:url(#SVGID_13_);fill:url(#SVGID_15_);}
	.st43{clip-path:url(#SVGID_13_);fill:url(#SVGID_16_);}
	.st44{clip-path:url(#SVGID_13_);fill:url(#SVGID_17_);}
	.st45{font-family:'Helvetica-Bold';}
	.st46{font-size:8.4034px;}
	.st47{fill:#3E3EB5;}
	.st48{fill:#11141B;}
	.st49{fill:#6671C6;}
	.st50{fill:#757ED8;}
	.st51{fill:#F7AE30;}
	.st52{fill:#B36DFC;}
	.st53{fill:#140B35;}
	.st54{fill:#C095F9;}
	.st55{fill:#F8AC2B;}
	.st56{fill:#31DCEE;}
	.st57{fill:#868BE9;}
	.st58{fill:#171B23;}
	.st59{fill:#7F6AE2;}
	.st60{fill:#1E0F46;}
	.st61{fill:#7A92CE;}
	.st62{fill:#191D26;}
	.st63{fill:#EAEAE8;}
	.st64{fill:#F9F9F9;}
	.st65{fill:url(#SVGID_18_);}
	.st66{clip-path:url(#SVGID_20_);}
	.st67{fill:url(#SVGID_21_);}
	.st68{clip-path:url(#SVGID_20_);fill:url(#SVGID_22_);}
	.st69{clip-path:url(#SVGID_20_);fill:url(#SVGID_23_);}
	.st70{clip-path:url(#SVGID_20_);fill:url(#SVGID_24_);}
	.st71{fill:#E8890C;}
	.st72{fill:url(#SVGID_25_);}
	.st73{fill:url(#SVGID_26_);}
	.st74{fill:url(#SVGID_27_);}
	.st75{fill:url(#SVGID_28_);}
	.st76{fill:url(#SVGID_29_);}
	.st77{fill:url(#SVGID_30_);}
	.st78{fill:url(#SVGID_31_);}
	.st79{fill:url(#SVGID_32_);}
	.st80{fill:url(#SVGID_33_);}
	.st81{fill:url(#SVGID_34_);}
	.st82{fill:url(#SVGID_35_);}
	.st83{fill:url(#SVGID_36_);}
	.st84{opacity:0.3;}
	.st85{fill:url(#SVGID_37_);}
	.st86{fill:url(#SVGID_38_);}
	.st87{fill:url(#SVGID_39_);}
	.st88{fill:url(#SVGID_40_);}
	.st89{fill:url(#SVGID_41_);}
	.st90{fill:url(#SVGID_42_);}
	.st91{fill:url(#SVGID_43_);}
	.st92{opacity:0.3;fill:url(#SVGID_44_);}
	.st93{fill:url(#SVGID_45_);}
	.st94{fill:url(#SVGID_46_);}
	.st95{fill:url(#SVGID_47_);}
	.st96{fill:url(#SVGID_48_);}
	.st97{fill:url(#SVGID_49_);}
	.st98{fill:url(#SVGID_50_);}
	.st99{fill:url(#SVGID_51_);}
	.st100{fill:#2D2691;}
</style>
<radialGradient id="SVGID_1_" cx="395.6227" cy="384.3751" r="340.3101" gradientTransform="matrix(1.0014 0 0 1.0036 -1.5306 -2.6065)" gradientUnits="userSpaceOnUse">
	<stop  offset="0" style="stop-color:#7535FF"/>
	<stop  offset="0.0318" style="stop-color:#7235F9"/>
	<stop  offset="0.3654" style="stop-color:#5130BD"/>
	<stop  offset="0.6496" style="stop-color:#382D92"/>
	<stop  offset="0.8701" style="stop-color:#2A2B77"/>
	<stop  offset="1" style="stop-color:#242A6D"/>
</radialGradient>
<rect class="st0" width="800" height="719"/>
<ellipse class="st31" cx="395.53" cy="535.09" rx="324.09" ry="36.42"/>
<g>
	<g>
		<g>
			<g>
				<g>
					
						<rect x="132.81" y="214.13" transform="matrix(1.920766e-03 -1 1 1.920766e-03 -114.5354 564.665)" class="st32" width="185.59" height="251.16"/>
				</g>
				<g>
					
						<rect x="210.18" y="136.91" transform="matrix(1.920766e-03 -1 1 1.920766e-03 -37.1671 487.7412)" class="st33" width="31.15" height="251.16"/>
				</g>
				<g>
					<path class="st34" d="M131.82,262.31c-0.01,4.23-3.44,7.65-7.67,7.65c-4.23-0.01-7.64-3.44-7.64-7.68
						c0.01-4.23,3.44-7.64,7.67-7.64C128.4,254.65,131.82,258.08,131.82,262.31z"/>
				</g>
				<g>
					<path class="st34" d="M153.25,262.35c-0.01,4.23-3.43,7.65-7.67,7.65c-4.23-0.01-7.66-3.44-7.65-7.68
						c0.01-4.23,3.45-7.64,7.68-7.64C149.84,254.7,153.26,258.12,153.25,262.35z"/>
				</g>
				<g>
					<path class="st34" d="M174.69,262.39c-0.01,4.23-3.44,7.65-7.67,7.65c-4.22-0.01-7.64-3.44-7.63-7.68
						c0.01-4.23,3.44-7.64,7.66-7.64C171.28,254.74,174.7,258.16,174.69,262.39z"/>
				</g>
			</g>
			<g>
				
					<rect x="217.68" y="195.15" transform="matrix(1.920766e-03 -1 1 1.920766e-03 -79.1544 525.6443)" class="st34" width="12.14" height="214.65"/>
			</g>
			<g>
				
					<rect x="217.62" y="222.93" transform="matrix(1.920766e-03 -1 1 1.920766e-03 -106.9833 553.3134)" class="st34" width="12.15" height="214.65"/>
			</g>
			<g>
				
					<rect x="217.54" y="261.12" transform="matrix(1.920766e-03 -1 1 1.920766e-03 -145.2435 591.3537)" class="st34" width="12.16" height="214.65"/>
			</g>
			<g>
				
					<rect x="217.5" y="288.89" transform="matrix(1.920766e-03 -1 1 1.920766e-03 -173.0712 619.0215)" class="st34" width="12.15" height="214.65"/>
			</g>
		</g>
		<g>
			<g>
				<g>
					
						<rect x="549.31" y="336.56" transform="matrix(1.920766e-03 -1 1 1.920766e-03 192.5717 1011.7853)" class="st32" width="107.68" height="145.73"/>
				</g>
				<g>
					
						<rect x="594.2" y="291.75" transform="matrix(1.920766e-03 -1 1 1.920766e-03 237.4615 967.1534)" class="st33" width="18.07" height="145.73"/>
				</g>
				<g>
					<path class="st35" d="M548.73,364.52c0,2.45-2,4.44-4.45,4.44c-2.45,0-4.44-2-4.43-4.45c0-2.46,2-4.44,4.45-4.43
						C546.75,360.07,548.74,362.06,548.73,364.52z"/>
				</g>
				<g>
					<path class="st35" d="M561.17,364.54c0,2.45-1.99,4.44-4.45,4.44c-2.45,0-4.44-2-4.44-4.45c0-2.46,2-4.44,4.45-4.43
						C559.19,360.1,561.17,362.08,561.17,364.54z"/>
				</g>
				<g>
					<path class="st35" d="M573.61,364.56c0,2.45-2,4.44-4.45,4.44c-2.45,0-4.43-2-4.43-4.45c0-2.46,2-4.44,4.45-4.43
						C571.63,360.12,573.62,362.11,573.61,364.56z"/>
				</g>
			</g>
			<g>
				
					<rect x="598.55" y="325.55" transform="matrix(1.920766e-03 -1 1 1.920766e-03 213.0997 989.1458)" class="st34" width="7.04" height="124.54"/>
			</g>
			<g>
				
					<rect x="598.52" y="341.66" transform="matrix(1.920766e-03 -1 1 1.920766e-03 196.9537 1005.199)" class="st34" width="7.05" height="124.54"/>
			</g>
			<g>
				
					<rect x="598.47" y="363.82" transform="matrix(1.920766e-03 -1 1 1.920766e-03 174.7541 1027.271)" class="st34" width="7.05" height="124.54"/>
			</g>
			<g>
				
					<rect x="598.45" y="379.94" transform="matrix(1.920766e-03 -1 1 1.920766e-03 158.6081 1043.3242)" class="st34" width="7.05" height="124.54"/>
			</g>
		</g>
		<g>
			<path class="st36" d="M552.38,223.48c-2.22,0-4.37,0.36-6.44,0.99c-4.23-7.42-10.9-12.24-18.44-12.26
				c-4.79-0.01-9.24,1.91-12.94,5.21c-1.3-13.1-9.69-23.21-19.89-23.23c-10.96-0.02-19.88,11.62-20.16,26.13
				c-3.56-2.52-7.6-3.97-11.92-3.98c-12.02-0.02-22.09,11.06-24.81,25.96c-1.82-0.8-3.77-1.24-5.79-1.24
				c-8.48-0.02-15.65,7.48-17.97,17.78l166.59,0.32C579.82,239.3,567.51,223.51,552.38,223.48z"/>
		</g>
		<g>
			<g>
				<g>
					<path class="st36" d="M735.02,298.66c-1.36,0-2.67,0.22-3.93,0.61c-2.58-4.53-6.66-7.48-11.27-7.49
						c-2.93-0.01-5.65,1.17-7.9,3.19c-0.8-8-5.92-14.18-12.15-14.19c-6.69-0.01-12.14,7.1-12.32,15.97
						c-2.17-1.54-4.65-2.43-7.28-2.43c-7.35-0.01-13.5,6.76-15.16,15.86c-1.11-0.49-2.3-0.76-3.54-0.76
						c-5.18-0.01-9.56,4.57-10.98,10.87l101.79,0.2C751.79,308.33,744.26,298.68,735.02,298.66z"/>
				</g>
			</g>
		</g>
		<g>
			<g>
				<g>
					<polygon class="st37" points="339.8,295.52 313.57,268.54 315.41,266.75 339.04,291.05 360.68,244.3 381.8,279.22 
						411.52,253.84 431.24,276.64 457.71,231.3 476.32,261.84 496.36,247.32 523.75,284.6 546.33,270.18 572.33,235.69 
						574.37,237.24 547.9,272.22 523.1,288.06 495.8,250.9 475.57,265.55 457.75,236.31 431.65,281.04 411.25,257.45 381.17,283.14 
						360.98,249.75 					"/>
				</g>
			</g>
			<g>
				<path class="st38" d="M342.83,291.85c0,2.12-1.72,3.83-3.84,3.82c-2.12,0-3.83-1.72-3.83-3.84c0-2.12,1.72-3.83,3.84-3.83
					C341.12,288.01,342.83,289.73,342.83,291.85z"/>
			</g>
			<g>
				<path class="st38" d="M318.33,267.22c0,2.12-1.72,3.83-3.84,3.83c-2.11,0-3.83-1.72-3.82-3.84c0-2.12,1.72-3.83,3.84-3.82
					C316.62,263.39,318.33,265.11,318.33,267.22z"/>
			</g>
			<g>
				<path class="st38" d="M364.37,246.75c0,2.12-1.72,3.83-3.84,3.83c-2.12,0-3.83-1.72-3.83-3.84c0-2.12,1.72-3.83,3.84-3.83
					C362.66,242.91,364.37,244.63,364.37,246.75z"/>
			</g>
			<g>
				<path class="st38" d="M385.17,280.91c0,2.12-1.72,3.83-3.84,3.82c-2.12,0-3.83-1.72-3.83-3.84c0-2.12,1.72-3.83,3.84-3.83
					C383.46,277.07,385.17,278.79,385.17,280.91z"/>
			</g>
			<g>
				<path class="st38" d="M415.22,255.66c0,2.12-1.72,3.83-3.84,3.82c-2.12,0-3.83-1.72-3.83-3.84c0-2.11,1.73-3.83,3.85-3.82
					C413.51,251.82,415.22,253.54,415.22,255.66z"/>
			</g>
			<g>
				<path class="st38" d="M435.28,278.85c0,2.12-1.72,3.83-3.84,3.83c-2.12,0-3.83-1.73-3.83-3.84c0-2.12,1.72-3.83,3.84-3.82
					C433.57,275.01,435.28,276.73,435.28,278.85z"/>
			</g>
			<g>
				<path class="st38" d="M461.87,233.81c0,2.12-1.72,3.83-3.84,3.83c-2.12,0-3.83-1.73-3.83-3.84c0-2.12,1.72-3.83,3.84-3.82
					C460.16,229.98,461.87,231.7,461.87,233.81z"/>
			</g>
			<g>
				<path class="st38" d="M479.78,263.7c0,2.12-1.72,3.83-3.84,3.82c-2.12,0-3.83-1.72-3.82-3.84c0-2.12,1.72-3.83,3.84-3.82
					C478.07,259.87,479.79,261.58,479.78,263.7z"/>
			</g>
			<g>
				<path class="st38" d="M500.22,249.58c0,2.12-1.72,3.83-3.84,3.82c-2.12,0-3.83-1.72-3.83-3.84c0-2.12,1.72-3.83,3.84-3.82
					C498.51,245.74,500.22,247.46,500.22,249.58z"/>
			</g>
			<g>
				<path class="st38" d="M527.41,285.57c0,2.12-1.73,3.84-3.84,3.83c-2.12,0-3.83-1.73-3.83-3.85c0-2.11,1.72-3.83,3.84-3.82
					C525.7,281.74,527.42,283.46,527.41,285.57z"/>
			</g>
			<g>
				<path class="st38" d="M551.35,271.4c0,2.12-1.72,3.83-3.84,3.83c-2.12,0-3.83-1.72-3.83-3.84c0-2.11,1.73-3.82,3.84-3.82
					C549.64,267.57,551.36,269.29,551.35,271.4z"/>
			</g>
		</g>
		<g>
			<g>
				<path class="st15" d="M587.13,517.17c-0.01,4.19-3.4,7.58-7.58,7.57l-380.85-0.73c-4.2-0.01-7.58-3.4-7.57-7.6l0.44-228.25
					c0.01-4.18,3.41-7.58,7.6-7.57l380.85,0.73c4.19,0.01,7.56,3.42,7.55,7.6L587.13,517.17z"/>
			</g>
			<g>
				
					<rect x="291.35" y="228.45" transform="matrix(1.920766e-03 -1 1 1.920766e-03 -15.0077 792.1923)" class="st39" width="196.01" height="350.33"/>
				<g>
					<g>
						<path class="st19" d="M538.96,474.84l-134.63-0.45c-6.73-0.02-12.2-5.43-12.22-12.08l-0.29-84.25
							c-0.02-6.65,5.41-12.02,12.14-12l134.63,0.45c6.73,0.02,12.2,5.43,12.22,12.08l0.29,84.25
							C551.12,469.49,545.69,474.86,538.96,474.84z"/>
						<path class="st15" d="M541.34,474.84l-134.63-0.45c-6.73-0.02-12.2-5.43-12.22-12.08l-0.29-84.25
							c-0.02-6.65,5.41-12.02,12.14-12l134.63,0.45c6.73,0.02,12.2,5.43,12.22,12.08l0.29,84.25
							C553.5,469.49,548.06,474.87,541.34,474.84z"/>
						<g>
							<defs>
								<path id="SVGID_12_" d="M541.34,474.84l-134.63-0.45c-6.73-0.02-12.2-5.43-12.22-12.08l-0.29-84.25
									c-0.02-6.65,5.41-12.02,12.14-12l134.63,0.45c6.73,0.02,12.2,5.43,12.22,12.08l0.29,84.25
									C553.5,469.49,548.06,474.87,541.34,474.84z"/>
							</defs>
							<clipPath id="SVGID_3_">
								<use xlink:href="#SVGID_12_"  style="overflow:visible;"/>
							</clipPath>
							<g style="clip-path:url(#SVGID_3_);">
								<path class="st19" d="M402.97,409.69l-0.04-11.37c-0.01-4.19,3.41-7.57,7.64-7.56l10.04,0.03c4.23,0.01,7.68,3.42,7.69,7.61
									l0.04,11.37c0.01,4.19-3.41,7.57-7.64,7.56l-10.04-0.03C406.43,417.28,402.99,413.88,402.97,409.69z"/>
								<path class="st21" d="M421.2,415.32l-11.04-0.04c-3.11-0.01-5.65-2.52-5.66-5.59l-0.04-12.36c-0.01-3.08,2.5-5.57,5.62-5.56
									l11.04,0.04c3.11,0.01,5.65,2.52,5.66,5.59l0.04,12.36C426.83,412.84,424.31,415.33,421.2,415.32z"/>
								
									<linearGradient id="SVGID_4_" gradientUnits="userSpaceOnUse" x1="478.7732" y1="-479.3059" x2="503.1843" y2="-447.5714" gradientTransform="matrix(1 -4.653530e-05 4.653530e-05 1 -82.772 857.3193)">
									<stop  offset="0" style="stop-color:#FFFFFF"/>
									<stop  offset="1" style="stop-color:#FFFFFF;stop-opacity:0"/>
								</linearGradient>
								<path class="st18" d="M421.2,415.32l-11.04-0.04c-3.11-0.01-5.65-2.52-5.66-5.59l-0.04-12.36c-0.01-3.08,2.5-5.57,5.62-5.56
									l11.04,0.04c3.11,0.01,5.65,2.52,5.66,5.59l0.04,12.36C426.83,412.84,424.31,415.33,421.2,415.32z"/>
								<path class="st23" d="M419.31,411.14l-7.3-0.02c-1.93-0.01-3.49-1.55-3.5-3.46l-0.03-8.28c-0.01-1.9,1.55-3.44,3.47-3.44
									l7.3,0.02c1.93,0.01,3.49,1.55,3.5,3.46l0.03,8.28C422.79,409.61,421.24,411.15,419.31,411.14z"/>
								<path class="st23" d="M416.31,406.62l-1.33,0c-1.3,0-2.36-1.05-2.37-2.34l-0.01-1.49c0-1.29,1.05-2.33,2.35-2.32l1.33,0
									c1.3,0,2.36,1.05,2.37,2.34l0.01,1.49C418.67,405.58,417.62,406.62,416.31,406.62z"/>
								<g>
									<g>
										<path class="st24" d="M418.65,402.13c1.34,0.07,2.7,0.05,4.04,0.03c0.31,0,0.32-0.49,0-0.49
											c-1.35,0.02-2.7,0.04-4.04-0.03C418.33,401.63,418.33,402.12,418.65,402.13L418.65,402.13z"/>
									</g>
								</g>
								<g>
									<g>
										<path class="st24" d="M418.66,405.3c1.31,0.07,2.63,0.04,3.94,0c0.31-0.01,0.32-0.5,0-0.49c-1.31,0.03-2.63,0.07-3.94,0
											C418.34,404.79,418.34,405.28,418.66,405.3L418.66,405.3z"/>
									</g>
								</g>
								<g>
									<g>
										<path class="st24" d="M408.58,402.1c1.34,0.07,2.7,0.05,4.04,0.03c0.31,0,0.32-0.49,0-0.49c-1.35,0.02-2.7,0.04-4.04-0.03
											C408.27,401.59,408.27,402.08,408.58,402.1L408.58,402.1z"/>
									</g>
								</g>
								<g>
									<g>
										<path class="st24" d="M408.6,405.26c1.31,0.07,2.63,0.04,3.94,0c0.31-0.01,0.32-0.5,0-0.49c-1.31,0.03-2.63,0.07-3.94,0
											C408.28,404.76,408.28,405.25,408.6,405.26L408.6,405.26z"/>
									</g>
								</g>
							</g>
							<g style="clip-path:url(#SVGID_3_);">
								<g class="st25">
									<path class="st26" d="M408.77,442.67c0.01,2.38-0.77,3.69-2.12,3.68c-1.2,0-2.02-1.29-2.05-3.6
										c-0.01-2.35,0.88-3.64,2.12-3.64C408.02,439.12,408.76,440.44,408.77,442.67z M405.44,442.76c0.01,1.83,0.5,2.86,1.26,2.86
										c0.85,0,1.25-1.13,1.24-2.91c-0.01-1.73-0.39-2.86-1.26-2.86C405.96,439.85,405.43,440.86,405.44,442.76z"/>
									<path class="st26" d="M415.5,442.69c0.01,2.38-0.77,3.69-2.12,3.68c-1.2,0-2.02-1.29-2.05-3.6
										c-0.01-2.35,0.88-3.64,2.12-3.64C414.75,439.14,415.49,440.46,415.5,442.69z M412.17,442.78c0.01,1.83,0.5,2.86,1.26,2.86
										c0.85,0,1.25-1.12,1.24-2.91c-0.01-1.73-0.39-2.86-1.26-2.86C412.69,439.87,412.16,440.88,412.17,442.78z"/>
									<path class="st26" d="M422.23,442.71c0.01,2.38-0.77,3.69-2.12,3.68c-1.2,0-2.02-1.29-2.05-3.6
										c-0.01-2.35,0.88-3.64,2.12-3.64C421.48,439.16,422.23,440.49,422.23,442.71z M418.9,442.8c0.01,1.83,0.5,2.86,1.26,2.86
										c0.85,0,1.25-1.12,1.24-2.91c-0.01-1.73-0.39-2.86-1.26-2.86C419.42,439.89,418.89,440.91,418.9,442.8z"/>
									<path class="st26" d="M428.97,442.74c0.01,2.38-0.77,3.69-2.12,3.68c-1.2,0-2.02-1.29-2.05-3.6
										c-0.01-2.35,0.88-3.64,2.12-3.64C428.21,439.19,428.96,440.51,428.97,442.74z M425.63,442.83c0.01,1.83,0.5,2.86,1.26,2.86
										c0.85,0,1.25-1.13,1.24-2.91c-0.01-1.73-0.39-2.86-1.26-2.86C426.15,439.92,425.63,440.93,425.63,442.83z"/>
									<path class="st26" d="M437.3,440.21h-0.02l-1.06,0.65l-0.16-0.72l1.34-0.81l0.71,0l0.02,7l-0.8,0L437.3,440.21z"/>
									<path class="st26" d="M442.25,446.35l0-0.58l0.65-0.72c1.56-1.7,2.27-2.61,2.27-3.66c0-0.71-0.3-1.37-1.21-1.38
										c-0.56,0-1.02,0.33-1.3,0.59l-0.27-0.66c0.42-0.41,1.03-0.71,1.73-0.71c1.32,0,1.88,1.04,1.88,2.04
										c0,1.3-0.81,2.34-2.1,3.75l-0.48,0.52v0.02l2.75,0.01l0,0.78L442.25,446.35z"/>
									<path class="st26" d="M449.18,445.29c0.23,0.17,0.78,0.44,1.36,0.44c1.06,0,1.39-0.77,1.39-1.35
										c-0.01-0.98-0.79-1.4-1.59-1.41l-0.46,0l0-0.71l0.46,0c0.6,0,1.37-0.35,1.37-1.18c0-0.56-0.32-1.06-1.08-1.06
										c-0.49,0-0.96,0.24-1.22,0.46l-0.23-0.69c0.32-0.27,0.94-0.54,1.6-0.54c1.21,0,1.77,0.82,1.77,1.68
										c0,0.72-0.38,1.34-1.13,1.65v0.02c0.76,0.17,1.37,0.82,1.37,1.8c0,1.12-0.76,2.1-2.23,2.09c-0.69,0-1.29-0.25-1.59-0.48
										L449.18,445.29z"/>
									<path class="st26" d="M458.28,446.41l-0.01-1.91l-2.85-0.01l0-0.62l2.72-4.46l0.9,0l0.01,4.36l0.86,0l0,0.73l-0.86,0
										l0.01,1.91L458.28,446.41z M458.27,443.76l-0.01-2.34c0-0.37,0.01-0.73,0.03-1.1l-0.03,0c-0.19,0.42-0.34,0.72-0.51,1.04
										l-1.49,2.38l0,0.02L458.27,443.76z"/>
									<path class="st26" d="M469.98,440.24l-2.34-0.01l-0.23,1.8c0.14-0.02,0.27-0.04,0.5-0.04c0.48,0,0.94,0.12,1.33,0.38
										c0.48,0.31,0.88,0.92,0.88,1.8c0,1.37-0.94,2.38-2.28,2.38c-0.67,0-1.24-0.22-1.53-0.44l0.21-0.72
										c0.25,0.17,0.75,0.4,1.32,0.4c0.78,0,1.45-0.58,1.44-1.52c-0.01-0.9-0.54-1.54-1.77-1.55c-0.36,0-0.63,0.03-0.85,0.07
										l0.39-3.36l2.93,0.01L469.98,440.24z"/>
									<path class="st26" d="M476.55,440.13c-0.17-0.01-0.38,0-0.63,0.05c-1.3,0.23-1.99,1.32-2.12,2.48h0.02
										c0.29-0.45,0.8-0.81,1.48-0.81c1.09,0,1.86,0.91,1.87,2.27c0,1.28-0.76,2.47-2.04,2.46c-1.31,0-2.17-1.17-2.18-2.99
										c0-1.38,0.42-2.47,1.03-3.15c0.5-0.57,1.18-0.92,1.96-1.03c0.24-0.04,0.45-0.05,0.6-0.05L476.55,440.13z M476.33,444.18
										c0-1-0.51-1.61-1.27-1.61c-0.5,0-0.97,0.35-1.19,0.86c-0.05,0.11-0.09,0.25-0.09,0.42c0.02,1.15,0.49,2.02,1.36,2.02
										C475.85,445.86,476.33,445.18,476.33,444.18z"/>
									<path class="st26" d="M483.77,439.49l0,0.62l-2.65,6.37l-0.85,0l2.64-6.19v-0.02l-3-0.01l0-0.78L483.77,439.49z"/>
									<path class="st26" d="M486.46,444.73c0-0.88,0.46-1.51,1.21-1.88l0-0.03c-0.69-0.36-0.99-0.96-0.99-1.57
										c0-1.1,0.82-1.86,1.9-1.86c1.19,0,1.79,0.85,1.79,1.73c0,0.6-0.25,1.23-1,1.63v0.04c0.76,0.34,1.24,0.97,1.24,1.81
										c0,1.22-0.91,2.04-2.08,2.03C487.24,446.62,486.46,445.75,486.46,444.73z M489.76,444.69c0-0.85-0.52-1.26-1.35-1.53
										c-0.71,0.23-1.1,0.77-1.1,1.44c-0.02,0.71,0.45,1.33,1.23,1.33C489.28,445.94,489.76,445.41,489.76,444.69z M487.46,441.18
										c0,0.7,0.47,1.08,1.17,1.3c0.53-0.2,0.93-0.63,0.93-1.27c0-0.55-0.3-1.14-1.04-1.14
										C487.83,440.07,487.46,440.58,487.46,441.18z"/>
									<path class="st26" d="M497.64,445.87c0.18,0.02,0.38,0,0.67-0.03c0.48-0.07,0.93-0.29,1.29-0.67
										c0.4-0.43,0.69-1.04,0.8-1.86h-0.02c-0.34,0.47-0.83,0.75-1.45,0.75c-1.1,0-1.82-0.96-1.82-2.15
										c0-1.32,0.83-2.48,2.09-2.48c1.25,0,2.03,1.17,2.04,2.96c0,1.54-0.45,2.61-1.05,3.28c-0.47,0.52-1.12,0.85-1.78,0.93
										c-0.29,0.05-0.57,0.06-0.76,0.05L497.64,445.87z M497.92,441.85c0,0.87,0.47,1.49,1.19,1.49c0.55,0,0.99-0.31,1.21-0.73
										c0.04-0.09,0.07-0.19,0.07-0.35c0-1.2-0.4-2.11-1.27-2.11C498.42,440.15,497.92,440.86,497.92,441.85z"/>
									<path class="st26" d="M504.37,445.89c0.18,0.02,0.38,0,0.67-0.03c0.48-0.07,0.93-0.29,1.29-0.67
										c0.4-0.43,0.69-1.04,0.8-1.86l-0.02,0c-0.34,0.47-0.83,0.75-1.45,0.75c-1.1,0-1.82-0.96-1.82-2.15
										c0-1.32,0.83-2.48,2.09-2.48c1.25,0,2.03,1.17,2.04,2.96c0,1.54-0.45,2.61-1.05,3.28c-0.47,0.52-1.12,0.85-1.78,0.93
										c-0.29,0.05-0.57,0.06-0.76,0.05L504.37,445.89z M504.66,441.87c0,0.87,0.47,1.49,1.19,1.49c0.55,0,0.99-0.31,1.21-0.73
										c0.04-0.09,0.07-0.19,0.07-0.35c0-1.2-0.4-2.11-1.27-2.11C505.15,440.17,504.65,440.88,504.66,441.87z"/>
									<path class="st26" d="M511.11,445.92c0.18,0.02,0.38,0,0.67-0.03c0.48-0.07,0.93-0.29,1.29-0.67
										c0.4-0.43,0.69-1.04,0.8-1.86l-0.02,0c-0.34,0.47-0.83,0.75-1.45,0.75c-1.1,0-1.82-0.96-1.82-2.15
										c0-1.32,0.83-2.48,2.09-2.48c1.25,0,2.03,1.17,2.04,2.96c0,1.54-0.45,2.61-1.05,3.28c-0.47,0.52-1.12,0.85-1.78,0.93
										c-0.29,0.05-0.57,0.06-0.76,0.05L511.11,445.92z M511.39,441.89c0,0.87,0.47,1.49,1.19,1.49c0.55,0,0.99-0.31,1.21-0.73
										c0.04-0.09,0.07-0.19,0.07-0.35c0-1.2-0.4-2.11-1.27-2.11C511.88,440.19,511.39,440.9,511.39,441.89z"/>
									<path class="st26" d="M517.84,445.94c0.18,0.02,0.38,0,0.67-0.03c0.48-0.07,0.93-0.29,1.29-0.67
										c0.4-0.42,0.69-1.04,0.8-1.86l-0.02,0c-0.34,0.47-0.83,0.75-1.45,0.75c-1.1,0-1.82-0.96-1.82-2.15
										c0-1.32,0.83-2.48,2.09-2.48c1.25,0,2.03,1.17,2.04,2.96c0,1.54-0.45,2.61-1.05,3.28c-0.47,0.52-1.12,0.85-1.78,0.93
										c-0.29,0.05-0.57,0.06-0.76,0.05L517.84,445.94z M518.12,441.92c0,0.87,0.47,1.49,1.19,1.49c0.55,0,0.99-0.31,1.21-0.73
										c0.04-0.09,0.07-0.19,0.07-0.35c0-1.2-0.4-2.11-1.27-2.11C518.62,440.21,518.12,440.93,518.12,441.92z"/>
								</g>
							</g>
							
								<linearGradient id="SVGID_6_" gradientUnits="userSpaceOnUse" x1="484.9837" y1="-494.1515" x2="484.9837" y2="-366.4144" gradientTransform="matrix(1.1319 0.0444 0.0446 1.1319 -59.8145 845.8802)">
								<stop  offset="0" style="stop-color:#FFFFFF"/>
								<stop  offset="1" style="stop-color:#FFFFFF;stop-opacity:0"/>
							</linearGradient>
							<polygon style="clip-path:url(#SVGID_3_);fill:url(#SVGID_6_);" points="407.77,493.12 377.14,462.84 533.76,307.96 
								564.39,338.24 							"/>
							
								<linearGradient id="SVGID_7_" gradientUnits="userSpaceOnUse" x1="650.8115" y1="-473.9461" x2="650.8115" y2="-341.2531" gradientTransform="matrix(0.846 -0.154 -0.154 0.846 -102.61 837.482)">
								<stop  offset="0" style="stop-color:#FFFFFF"/>
								<stop  offset="1" style="stop-color:#FFFFFF;stop-opacity:0"/>
							</linearGradient>
							<polygon style="clip-path:url(#SVGID_3_);fill:url(#SVGID_7_);" points="438.09,492.47 430.25,484.71 574.28,342.28 
								582.12,350.03 							"/>
							
								<linearGradient id="SVGID_8_" gradientUnits="userSpaceOnUse" x1="2435.0786" y1="-1952.3685" x2="2435.0786" y2="-1734.4089" gradientTransform="matrix(0.305 -0.0342 -0.0342 0.305 -398.519 1005.6053)">
								<stop  offset="0" style="stop-color:#FFFFFF"/>
								<stop  offset="1" style="stop-color:#FFFFFF;stop-opacity:0"/>
							</linearGradient>
							<polygon style="clip-path:url(#SVGID_3_);fill:url(#SVGID_8_);" points="381.97,406.54 378.91,403.51 427.75,355.21 
								430.82,358.24 							"/>
						</g>
					</g>
					<g>
						<path class="st26" d="M405.19,461.1c0.47-0.48,1.07-0.71,1.81-0.71c0.98,0,1.7,0.33,2.15,0.97c0.25,0.36,0.39,0.72,0.41,1.09
							l-1.23,0c-0.08-0.28-0.18-0.49-0.3-0.63c-0.22-0.25-0.54-0.38-0.97-0.38c-0.44,0-0.78,0.18-1.03,0.53
							c-0.25,0.36-0.38,0.86-0.37,1.51s0.14,1.14,0.41,1.47c0.27,0.33,0.61,0.49,1.02,0.49c0.42,0,0.74-0.14,0.96-0.42
							c0.12-0.15,0.22-0.37,0.3-0.67l1.22,0c-0.1,0.63-0.37,1.15-0.8,1.54c-0.43,0.4-0.99,0.59-1.66,0.59
							c-0.84,0-1.5-0.27-1.98-0.81c-0.48-0.54-0.72-1.28-0.73-2.22C404.38,462.43,404.65,461.65,405.19,461.1z"/>
						<path class="st26" d="M412.78,461.93c0.01,0,0.05,0,0.1,0.01l0,1.15c-0.07-0.01-0.14-0.01-0.19-0.02c-0.06,0-0.1,0-0.14,0
							c-0.46,0-0.76,0.14-0.92,0.44c-0.09,0.17-0.13,0.42-0.13,0.77l0.01,2.06l-1.15,0l-0.02-4.3l1.09,0l0,0.75
							c0.17-0.29,0.33-0.48,0.46-0.59c0.21-0.18,0.49-0.26,0.83-0.26C412.75,461.93,412.77,461.93,412.78,461.93z"/>
						<path class="st26" d="M416.3,462.13c0.3,0.14,0.56,0.35,0.75,0.64c0.18,0.26,0.3,0.55,0.35,0.89c0.03,0.2,0.04,0.48,0.04,0.85
							l-3.17-0.01c0.02,0.43,0.17,0.73,0.46,0.91c0.17,0.11,0.38,0.16,0.63,0.16c0.26,0,0.47-0.06,0.63-0.2
							c0.09-0.07,0.17-0.17,0.23-0.3l1.16,0c-0.03,0.26-0.17,0.51-0.42,0.78c-0.39,0.42-0.93,0.62-1.63,0.62
							c-0.58,0-1.09-0.18-1.53-0.53c-0.44-0.35-0.67-0.93-0.67-1.72c0-0.75,0.2-1.32,0.59-1.71c0.4-0.4,0.92-0.59,1.55-0.59
							C415.65,461.93,416,462,416.3,462.13z M414.6,463.1c-0.16,0.16-0.26,0.38-0.3,0.66l1.96,0.01c-0.02-0.3-0.12-0.53-0.31-0.68
							c-0.18-0.16-0.41-0.23-0.68-0.23C414.99,462.86,414.76,462.94,414.6,463.1z"/>
						<path class="st26" d="M420.24,462.13c0.21,0.12,0.37,0.27,0.5,0.48l-0.01-2.05l1.15,0l0.02,5.81l-1.11,0l0-0.6
							c-0.16,0.25-0.35,0.44-0.55,0.55c-0.21,0.12-0.46,0.17-0.77,0.17c-0.51,0-0.94-0.21-1.29-0.61c-0.35-0.41-0.52-0.93-0.53-1.57
							c0-0.73,0.17-1.31,0.51-1.73c0.34-0.42,0.8-0.63,1.37-0.63C419.8,461.96,420.03,462.01,420.24,462.13z M420.53,465.2
							c0.17-0.24,0.25-0.54,0.25-0.92c0-0.53-0.14-0.9-0.41-1.13c-0.17-0.14-0.36-0.21-0.58-0.21c-0.33,0-0.58,0.12-0.73,0.37
							c-0.15,0.25-0.23,0.56-0.23,0.92c0,0.4,0.08,0.72,0.24,0.95c0.16,0.24,0.4,0.36,0.72,0.36
							C420.12,465.55,420.36,465.43,420.53,465.2z"/>
						<path class="st26" d="M423.48,461.56l-0.1,0c-0.29,0-0.53-0.23-0.53-0.52l0,0c0-0.29,0.23-0.52,0.52-0.52l0.1,0
							c0.29,0,0.53,0.23,0.53,0.52v0C424.01,461.33,423.77,461.56,423.48,461.56z M422.86,462.07l1.15,0l0.02,4.3l-1.15,0
							L422.86,462.07z"/>
						<path class="st26" d="M424.59,462.92l0-0.8l0.61,0l0-1.2l1.13,0l0,1.2l0.71,0l0,0.8l-0.71,0l0.01,2.27
							c0,0.18,0.02,0.29,0.07,0.33c0.05,0.04,0.18,0.07,0.42,0.07c0.03,0,0.07,0,0.11,0c0.04,0,0.08,0,0.11-0.01l0,0.84l-0.54,0.02
							c-0.54,0.02-0.91-0.08-1.1-0.28c-0.13-0.13-0.19-0.33-0.19-0.6l-0.01-2.65L424.59,462.92z"/>
						<path class="st26" d="M432.31,465.89c-0.44,0.45-1.08,0.68-1.93,0.67c-0.84,0-1.48-0.23-1.93-0.69c-0.6-0.56-0.9-1.36-0.9-2.4
							c0-1.07,0.29-1.86,0.89-2.4c0.44-0.45,1.08-0.68,1.93-0.67c0.84,0,1.48,0.23,1.93,0.69c0.6,0.54,0.89,1.34,0.9,2.4
							C433.19,464.53,432.9,465.33,432.31,465.89z M431.53,465c0.28-0.35,0.43-0.86,0.42-1.51c0-0.65-0.15-1.16-0.43-1.52
							c-0.29-0.36-0.67-0.54-1.16-0.54c-0.49,0-0.88,0.17-1.16,0.53c-0.29,0.35-0.43,0.86-0.43,1.51s0.15,1.16,0.44,1.52
							c0.29,0.36,0.68,0.54,1.17,0.54C430.86,465.53,431.25,465.35,431.53,465z"/>
						<path class="st26" d="M436.25,462.18c0.21,0.12,0.37,0.27,0.5,0.48l-0.01-2.05l1.15,0l0.02,5.81l-1.11,0l0-0.6
							c-0.16,0.25-0.35,0.44-0.55,0.55c-0.21,0.12-0.46,0.17-0.77,0.17c-0.51,0-0.94-0.21-1.29-0.61c-0.35-0.41-0.52-0.93-0.53-1.57
							c0-0.73,0.17-1.31,0.51-1.73c0.34-0.42,0.8-0.63,1.37-0.63C435.81,462.01,436.05,462.07,436.25,462.18z M436.54,465.25
							c0.17-0.24,0.25-0.54,0.25-0.92c0-0.53-0.14-0.9-0.41-1.13c-0.17-0.14-0.36-0.21-0.58-0.21c-0.33,0-0.58,0.12-0.73,0.37
							c-0.15,0.25-0.23,0.56-0.23,0.92c0,0.4,0.08,0.72,0.24,0.95c0.16,0.24,0.4,0.36,0.72,0.36
							C436.13,465.6,436.38,465.49,436.54,465.25z"/>
						<path class="st26" d="M441.17,462.2c0.21,0.12,0.37,0.27,0.5,0.48l-0.01-2.05l1.15,0l0.02,5.81l-1.11,0l0-0.6
							c-0.16,0.25-0.35,0.44-0.55,0.55c-0.21,0.12-0.46,0.17-0.77,0.17c-0.51,0-0.94-0.21-1.29-0.61c-0.35-0.41-0.52-0.93-0.53-1.57
							c0-0.73,0.17-1.31,0.51-1.73c0.34-0.42,0.8-0.63,1.37-0.63C440.73,462.03,440.96,462.08,441.17,462.2z M441.46,465.27
							c0.17-0.24,0.25-0.54,0.25-0.92c0-0.53-0.14-0.9-0.41-1.13c-0.17-0.14-0.36-0.21-0.58-0.21c-0.33,0-0.58,0.12-0.73,0.37
							c-0.15,0.25-0.23,0.56-0.23,0.92c0,0.4,0.08,0.72,0.24,0.95s0.4,0.36,0.72,0.36C441.05,465.62,441.29,465.5,441.46,465.27z"/>
						<path class="st26" d="M444.66,465.07c0.02,0.2,0.08,0.34,0.16,0.43c0.14,0.15,0.4,0.23,0.79,0.23c0.22,0,0.4-0.03,0.54-0.1
							c0.13-0.07,0.2-0.16,0.2-0.3c0-0.13-0.05-0.22-0.16-0.29c-0.11-0.07-0.5-0.18-1.19-0.34c-0.49-0.12-0.84-0.28-1.05-0.46
							c-0.2-0.18-0.3-0.44-0.31-0.77c0-0.4,0.16-0.74,0.47-1.02c0.32-0.28,0.76-0.43,1.33-0.42c0.54,0,0.99,0.11,1.33,0.33
							c0.34,0.22,0.54,0.59,0.59,1.11l-1.14,0c-0.02-0.14-0.06-0.26-0.13-0.34c-0.13-0.15-0.34-0.23-0.64-0.23
							c-0.25,0-0.42,0.04-0.53,0.11c-0.11,0.08-0.16,0.17-0.16,0.27c0,0.13,0.06,0.22,0.17,0.28c0.11,0.06,0.51,0.17,1.19,0.32
							c0.45,0.11,0.79,0.27,1.02,0.48c0.22,0.22,0.34,0.49,0.34,0.81c0,0.43-0.16,0.77-0.48,1.04c-0.32,0.27-0.82,0.4-1.49,0.4
							c-0.69,0-1.19-0.15-1.52-0.43c-0.33-0.29-0.49-0.65-0.49-1.09L444.66,465.07z"/>
					</g>
					<g>
						<g>
							<g>
								<path class="st26" d="M538.98,462.07l-5.37-0.02c-1.26,0-2.28-1.02-2.29-2.26l-0.02-4.7c0-1.24,1.01-2.25,2.27-2.24
									l4.75,0.02c1.26,0,2.28,1.02,2.29,2.26l0,0.62c0,0.13-0.11,0.24-0.24,0.23l-0.89,0c-0.13,0-0.24-0.11-0.24-0.24l0-0.62
									c0-0.5-0.41-0.9-0.91-0.9l-4.75-0.02c-0.5,0-0.91,0.4-0.9,0.89l0.02,4.7c0,0.5,0.41,0.9,0.91,0.9l5.37,0.02
									c0.16,0,0.29-0.13,0.29-0.29l-0.01-1.94l1.37,0l0.01,1.94C540.64,461.34,539.9,462.07,538.98,462.07z"/>
							</g>
							<g>
								<path class="st26" d="M542.06,466.36l-4.75-0.02c-1.26,0-2.28-1.02-2.29-2.26l-0.02-5.26c0-0.93,0.76-1.69,1.7-1.68
									l5.32,0.02c1.26,0,2.28,1.02,2.29,2.26l0.02,4.7C544.34,465.36,543.32,466.36,542.06,466.36z M536.72,458.49
									c-0.19,0-0.34,0.15-0.34,0.33l0.02,5.26c0,0.5,0.41,0.9,0.91,0.9l4.75,0.02c0.5,0,0.91-0.4,0.9-0.89l-0.02-4.7
									c0-0.5-0.41-0.9-0.91-0.9L536.72,458.49z"/>
							</g>
						</g>
						<polygon class="st26" points="539.66,459.78 535.98,459.77 535.98,459.03 539.66,459.05 						"/>
					</g>
					<text transform="matrix(1.0113 7.584898e-03 -7.399998e-04 1 497.1838 381.2871)" class="st26 st45 st46">Credit Card</text>
				</g>
			</g>
			<g>
				<path class="st47" d="M171.97,535.16l442.72,0.85c4.48,0.01,8.1-3.6,8.11-8.06l0.03-14.32l-458.9-0.88l-0.03,14.32
					C163.88,531.53,167.49,535.15,171.97,535.16z"/>
			</g>
		</g>
		<g>
			<g>
				<g>
					
						<rect x="453.89" y="210.77" transform="matrix(1.920766e-03 -1 1 1.920766e-03 181.2395 792.2704)" class="st34" width="67.25" height="189.15"/>
				</g>
			</g>
			<g>
				<g>
					
						<rect x="479.16" y="185.54" transform="matrix(1.920766e-03 -1 1 1.920766e-03 206.5109 767.1442)" class="st33" width="16.81" height="189.15"/>
				</g>
			</g>
			<g>
				<g>
					<path class="st26" d="M566.65,323.21c-0.01,4.31-3.51,7.79-7.82,7.79l-145.53-0.28c-4.31-0.01-7.8-3.51-7.79-7.82l0,0
						c0.01-4.31,3.51-7.79,7.82-7.78l145.53,0.28C563.17,315.41,566.66,318.9,566.65,323.21L566.65,323.21z"/>
				</g>
			</g>
			<g>
				<g>
					<path class="st15" d="M520.46,323.12c0,1.94-1.57,3.51-3.52,3.51l-102.08-0.2c-1.94,0-3.52-1.58-3.52-3.52l0,0
						c0-1.94,1.59-3.52,3.53-3.51l102.08,0.2C518.9,319.6,520.47,321.18,520.46,323.12L520.46,323.12z"/>
				</g>
			</g>
			<g>
				<g>
					<path class="st34" d="M407.99,279.82c0,2.28-1.86,4.13-4.14,4.12c-2.29,0-4.13-1.86-4.13-4.14c0-2.28,1.86-4.13,4.14-4.12
						C406.15,275.68,407.99,277.54,407.99,279.82z"/>
				</g>
			</g>
			<g>
				<g>
					<path class="st34" d="M419.56,279.84c0,2.28-1.86,4.13-4.14,4.12c-2.29,0-4.13-1.86-4.13-4.14c0-2.28,1.86-4.13,4.14-4.12
						C417.72,275.71,419.57,277.56,419.56,279.84z"/>
				</g>
			</g>
			<g>
				<g>
					<path class="st34" d="M431.13,279.86c0,2.28-1.86,4.13-4.14,4.12c-2.28,0-4.13-1.86-4.13-4.14c0-2.28,1.86-4.13,4.14-4.12
						C429.29,275.73,431.14,277.58,431.13,279.86z"/>
				</g>
			</g>
		</g>
		<g>
			<g>
				<g>
					
						<rect x="222.68" y="315.28" transform="matrix(1.920766e-03 -1 1 1.920766e-03 -90.8664 578.1857)" class="st34" width="43.06" height="38.68"/>
				</g>
				<g>
					
						<rect x="222.56" y="380.35" transform="matrix(1.920766e-03 -1 1 1.920766e-03 -156.0667 643.0113)" class="st34" width="43.06" height="38.68"/>
				</g>
				<g>
					
						<rect x="222.43" y="449.37" transform="matrix(1.920766e-03 -1 1 1.920766e-03 -225.2182 711.7655)" class="st34" width="43.06" height="38.68"/>
				</g>
			</g>
			<g>
				
					<rect x="311.94" y="281.27" transform="matrix(1.920766e-03 -1 1 1.920766e-03 -7.0726 636.0905)" class="st15" width="6.37" height="80.64"/>
			</g>
			<g>
				
					<rect x="304.26" y="303.06" transform="matrix(1.920766e-03 -1 1 1.920766e-03 -28.8695 641.2284)" class="st15" width="5.06" height="64.04"/>
			</g>
			<g>
				
					<rect x="314.57" y="306.25" transform="matrix(1.920766e-03 -1 1 1.920766e-03 -32.1128 665.0321)" class="st15" width="5.06" height="84.7"/>
			</g>
			<g>
				
					<rect x="309.78" y="347.65" transform="matrix(1.920766e-03 -1 1 1.920766e-03 -75.6086 700.1888)" class="st15" width="6.37" height="80.64"/>
			</g>
			<g>
				
					<rect x="302.11" y="369.44" transform="matrix(1.920766e-03 -1 1 1.920766e-03 -97.4043 705.3267)" class="st15" width="5.06" height="64.04"/>
			</g>
			<g>
				
					<rect x="312.41" y="372.64" transform="matrix(1.920766e-03 -1 1 1.920766e-03 -100.6488 729.1302)" class="st15" width="5.06" height="84.7"/>
			</g>
			<g>
				
					<rect x="307.62" y="416.09" transform="matrix(1.920766e-03 -1 1 1.920766e-03 -146.2016 766.33)" class="st15" width="6.37" height="80.64"/>
			</g>
			<g>
				
					<rect x="299.95" y="437.88" transform="matrix(1.920766e-03 -1 1 1.920766e-03 -167.9991 771.4697)" class="st15" width="5.06" height="64.04"/>
			</g>
			<g>
				
					<rect x="310.25" y="441.07" transform="matrix(1.920766e-03 -1 1 1.920766e-03 -171.24 795.2697)" class="st15" width="5.06" height="84.7"/>
			</g>
		</g>
		<g>
			<g>
				<g>
					<path class="st48" d="M129.62,338.72c0,0-5.45,2.13-5.68,6.04c-0.23,3.91-1.35,6.25-5.15,9.94
						c-3.81,3.69-9.68,10.06-8.16,14.37c2.45,6.85-1.74,11.4,0.85,14.88c2.6,3.49,7.19,0.77,8.32-1.5
						c1.15-2.28,10.49-13.99,11.49-17.9c0.99-3.91,6.16-2.34,7.67-5.16c1.53-2.82-0.36-6.52,0.29-8.08c2.4-5.7-0.67-9.67-4.13-12.12
						C131.67,336.73,129.62,338.72,129.62,338.72z"/>
				</g>
			</g>
			<g>
				<g>
					<path class="st49" d="M157.24,408.57l-19.97,3.35l8.87,45.77c0,0-5.86,11.22-5.79,35.64l-0.66,21.45l3.68,0.75l11.34-57.36
						C154.71,458.16,159.49,430.28,157.24,408.57z"/>
				</g>
			</g>
			<g>
				<g>
					<path class="st50" d="M145.95,411.94l-20.01,4.03l9.87,41.84c0,0-7.71,10.04-11.82,34.11l-4.33,21.02l3.5,1.36l21.01-54.55
						C144.16,459.75,149.31,429.24,145.95,411.94z"/>
				</g>
			</g>
			<g>
				<g>
					<g>
						<path class="st51" d="M196.06,344.88c0,0,3.25-6.61,4.95-6.78c1.41-0.14,6.6,1.7-2.68,8.7L196.06,344.88z"/>
					</g>
				</g>
				<g>
					<g>
						<path class="st52" d="M144.29,369.05l30.2,14.21l24.85-36.8l-3.07-2.89l-23.31,25.89l-27.67-10.69c0,0-9.02-4.34-11.44,1.91
							C133.85,360.68,138.1,366.14,144.29,369.05z"/>
					</g>
				</g>
			</g>
			<g>
				<g>
					<path class="st53" d="M121.31,361.14c0,0-3.35,4.32-3.91,13.89c-0.55,9.57,5.27,21.27,5.27,21.27l3.61,21.17l30.96-8.9
						l-0.84-22.34l-5.28-5.69l1.9-7.03l-12.42-18.66L121.31,361.14z"/>
				</g>
			</g>
			<g>
				<g>
					<polygon class="st52" points="138.74,513.39 144.52,512.82 144.8,517.32 146,519.14 154.98,525.03 152.83,524.97 
						144.29,523.43 143.58,524.05 140.42,523.94 					"/>
				</g>
			</g>
			<g>
				<g>
					<polygon class="st52" points="119.68,509.35 125.68,512.21 123.7,516.27 123.99,518.53 129.97,528.82 127.86,527.53 
						120.17,521.27 119.16,521.4 116.09,519.49 					"/>
				</g>
			</g>
			<g>
				<g>
					<path class="st51" d="M130.68,350.47l-2.21,8.19c0,0,10.12,7.31,9.13,3.2c-0.92-3.81-1.44-11.38-1.44-11.38L130.68,350.47z"/>
				</g>
			</g>
			<g>
				<g>
					<path class="st51" d="M128.84,339.81c-0.69,1.73-2.08,5.1-1.1,7.38c0.97,2.28,2.43,6.36,5.04,7.34
						c2.61,0.98,3.29-1.95,3.86-2.92c0.56-0.98,1.95-10.57-2.23-12.88C131.23,336.98,129.37,338.49,128.84,339.81z"/>
				</g>
			</g>
			<g>
				<g>
					<path class="st48" d="M132.86,339.6c0,0-2.41,5.08-5.88,6.14c0,0-0.53-8.05,4.36-9.04c0,0,5.88-0.36,6.4,6.93
						C137.74,343.63,133.18,342.1,132.86,339.6z"/>
				</g>
			</g>
			<g>
				<g>
					<g>
						<path class="st51" d="M176.21,346.59c0,0,2.2-7.04,3.84-7.46c1.39-0.35,6.78,0.66-1.3,9.02L176.21,346.59z"/>
					</g>
				</g>
				<g>
					<g>
						<path class="st54" d="M126.7,376.54l31.69,10.33l21.25-39.19l-3.21-1.92l-21.04,27.58l-28.65-7.66c0,0-9.44-3.35-11.17,3.11
							C115.57,368.79,120.23,374.3,126.7,376.54z"/>
					</g>
				</g>
			</g>
		</g>
		<g>
			<g>
				<g>
					<g>
						<path class="st26" d="M609.97,531.19c-0.01,4.4-2.12,7.96-4.7,7.96l0,0c-2.59-0.01-4.68-3.57-4.67-7.97l0.36-185.62
							c0.01-4.4,2.11-7.96,4.7-7.96l0,0c2.59,0,4.68,3.58,4.67,7.98L609.97,531.19z"/>
					</g>
				</g>
				<g>
					<g>
						<path class="st26" d="M645.37,531.26c-0.01,4.4-2.12,7.96-4.71,7.96l0,0c-2.59-0.01-4.68-3.57-4.67-7.97l0.36-185.62
							c0.01-4.4,2.12-7.96,4.7-7.96l0,0c2.59,0,4.69,3.58,4.68,7.98L645.37,531.26z"/>
					</g>
				</g>
				<g>
					<g>
						<path class="st26" d="M641.02,354.44c0,1.29-2.86,2.33-6.37,2.32l-22.67-0.04c-3.51-0.01-6.36-1.06-6.36-2.35l0,0
							c0-1.29,2.86-2.33,6.37-2.32l22.67,0.04C638.17,352.09,641.02,353.15,641.02,354.44L641.02,354.44z"/>
					</g>
				</g>
				<g>
					<g>
						<path class="st26" d="M640.99,370.54c0,1.29-2.86,2.33-6.37,2.32l-22.67-0.04c-3.51-0.01-6.36-1.06-6.36-2.35l0,0
							c0-1.29,2.86-2.33,6.37-2.32l22.67,0.04C638.14,368.2,640.99,369.25,640.99,370.54L640.99,370.54z"/>
					</g>
				</g>
				<g>
					<g>
						<path class="st26" d="M640.95,389.33c0,1.29-2.86,2.34-6.37,2.33l-22.67-0.04c-3.51-0.01-6.36-1.06-6.36-2.35l0,0
							c0-1.29,2.86-2.33,6.37-2.32l22.67,0.04C638.1,386.99,640.95,388.05,640.95,389.33L640.95,389.33z"/>
					</g>
				</g>
				<g>
					<g>
						<path class="st26" d="M640.92,405.44c0,1.29-2.86,2.33-6.37,2.32l-22.67-0.04c-3.51-0.01-6.36-1.06-6.36-2.35l0,0
							c0-1.29,2.86-2.33,6.37-2.32l22.67,0.04C638.07,403.1,640.92,404.15,640.92,405.44L640.92,405.44z"/>
					</g>
				</g>
				<g>
					<g>
						<path class="st26" d="M640.88,422.89c0,1.3-2.86,2.33-6.37,2.33l-22.67-0.04c-3.51-0.01-6.36-1.06-6.36-2.35l0,0
							c0-1.29,2.86-2.33,6.37-2.32l22.67,0.04C638.04,420.55,640.89,421.6,640.88,422.89L640.88,422.89z"/>
					</g>
				</g>
				<g>
					<g>
						<path class="st26" d="M640.85,439c0,1.29-2.86,2.33-6.37,2.32l-22.67-0.04c-3.51-0.01-6.36-1.06-6.36-2.34l0,0
							c0-1.29,2.86-2.34,6.37-2.33l22.67,0.04C638.01,436.65,640.86,437.7,640.85,439L640.85,439z"/>
					</g>
				</g>
				<g>
					<g>
						<path class="st26" d="M640.82,457.79c0,1.29-2.86,2.33-6.37,2.32l-22.67-0.04c-3.51-0.01-6.36-1.05-6.36-2.35l0,0
							c0-1.28,2.86-2.32,6.37-2.32l22.67,0.04C637.97,455.45,640.82,456.5,640.82,457.79L640.82,457.79z"/>
					</g>
				</g>
				<g>
					<g>
						<path class="st26" d="M640.79,473.89c0,1.29-2.86,2.33-6.37,2.33l-22.67-0.04c-3.51-0.01-6.36-1.06-6.36-2.35l0,0
							c0-1.29,2.86-2.33,6.37-2.32l22.67,0.04C637.94,471.55,640.79,472.6,640.79,473.89L640.79,473.89z"/>
					</g>
				</g>
				<g>
					<g>
						<path class="st26" d="M640.75,494.03c0,1.29-2.86,2.33-6.37,2.32l-22.67-0.04c-3.51-0.01-6.36-1.06-6.36-2.35l0,0
							c0-1.29,2.86-2.33,6.37-2.33l22.67,0.04C637.9,491.68,640.75,492.74,640.75,494.03L640.75,494.03z"/>
					</g>
				</g>
				<g>
					<g>
						<path class="st26" d="M640.72,510.13c0,1.29-2.86,2.33-6.37,2.32l-22.67-0.04c-3.51-0.01-6.36-1.06-6.36-2.35l0,0
							c0-1.29,2.86-2.33,6.37-2.32l22.67,0.04C637.87,507.79,640.72,508.84,640.72,510.13L640.72,510.13z"/>
					</g>
				</g>
				<g>
					<g>
						<path class="st26" d="M640.68,527.58c0,1.29-2.86,2.33-6.37,2.33l-22.67-0.04c-3.51-0.01-6.36-1.06-6.36-2.35l0,0
							c0-1.29,2.86-2.33,6.37-2.32l22.67,0.04C637.84,525.24,640.69,526.29,640.68,527.58L640.68,527.58z"/>
					</g>
				</g>
			</g>
			<g>
				<g>
					<g>
						<g>
							<path class="st55" d="M598,323.98l-15.26,24.24L547.17,334l1.07-3.03l29.06,6.66l14.72-20.81c0,0,4.39-7.4,9.09-4.08
								C601.1,312.74,601.04,318.95,598,323.98z"/>
						</g>
					</g>
					<g>
						<g>
							<path class="st55" d="M548.84,331.44c0,0-5.01-3.88-6.37-3.37c-1.16,0.43-4.46,3.8,5.33,5.71L548.84,331.44z"/>
						</g>
					</g>
				</g>
				<g>
					<g>
						<g>
							<path class="st55" d="M640.28,331.38l-15.27,24.24l-35.57-14.22l1.07-3.03l29.05,6.65l14.72-20.81c0,0,4.4-7.4,9.09-4.07
								C643.38,320.14,643.32,326.35,640.28,331.38z"/>
						</g>
					</g>
					<g>
						<g>
							<path class="st55" d="M591.13,338.83c0,0-5.01-3.88-6.38-3.37c-1.15,0.43-4.45,3.79,5.33,5.71L591.13,338.83z"/>
						</g>
					</g>
				</g>
				<g>
					<g>
						<polygon class="st56" points="629.28,486.47 627.23,486.64 626.86,489.77 626.13,491.15 620.45,495.76 630.67,492.46 						
							"/>
					</g>
				</g>
				<g>
					<g>
						<polygon class="st56" points="636.6,481.01 634.99,482.28 636.42,485.09 636.57,486.65 634.37,493.61 641.07,485.22 						"/>
					</g>
				</g>
				<g>
					<g>
						<polygon class="st50" points="639.43,373.64 633.56,436.86 631.4,489.01 626.47,489 621.65,434.79 615.61,373.6 						"/>
					</g>
				</g>
				<g>
					<g>
						<polygon class="st57" points="594.26,373.56 595.79,431.25 634.28,484.09 639.22,481.63 612.63,433.96 622.17,376.9 
							622.18,373.61 						"/>
					</g>
				</g>
				<g>
					<g>
						<polygon class="st15" points="639.43,373.64 594.26,373.56 599.25,341.95 599.31,310.32 617.3,306.74 639.55,308.83 
							639.49,339.36 						"/>
					</g>
				</g>
				<g>
					<g>
						<path class="st58" d="M601.17,310.49c0,0,7.35,4.2-5.04,17.58l-7.3-7.93C588.83,320.15,594.35,308.83,601.17,310.49z"/>
					</g>
				</g>
				<g>
					<g>
						<path class="st58" d="M638.25,308.72c0,0,8.39-1.15,6.73,17.01l-10.62-1.83C634.35,323.91,631.82,311.57,638.25,308.72z"/>
					</g>
				</g>
				<g>
					<g>
						<g>
							<path class="st55" d="M621.08,308.68c0.09,1.59-6.3,1.58-6.36-0.01c-0.19-4.62,0.63-8.01,0.63-8.01l4.73-1.74
								C620.08,298.92,620.89,305.34,621.08,308.68z"/>
						</g>
					</g>
					<g>
						<g>
							<path class="st55" d="M616.17,303.23c-0.43,0.04-4.42,0.71-5.03-1.24c-0.62-1.95-0.39-9.14,0.54-10.88
								c0.93-1.74,4-2.76,5.44-2.14c1.44,0.62,5.31,4.75,3.15,11.82C620.27,300.78,618.52,303,616.17,303.23z"/>
						</g>
					</g>
					<g>
						<g>
							<path class="st58" d="M610.8,291.1c0,0,0.35,2.47,2.1,2.26c1.74-0.2,4.72-0.71,5.02,0.62c0.31,1.33-0.95,5.86-0.01,6.98
								c0.95,1.12,3.28,2.47,3.8,0.83c0.51-1.65,1.56-11.8-3.77-14.18C617.94,287.63,612.62,286.49,610.8,291.1z"/>
						</g>
					</g>
				</g>
			</g>
		</g>
		<g>
			<g>
				<path class="st59" d="M513.36,487.35c0,0-59.66-43.15-62.84-42.52c-3.17,0.63-23.62,55.14-23.62,55.14l12.07,0.02l16.9-29.73
					l25.69,29.81L513.36,487.35z"/>
			</g>
			<g>
				<path class="st36" d="M541.95,490.77c0,0,2.5,20.34-21.01,19.02l-71.17-2.97l-59.12,5.89l0.02-11.12l65.16-11
					C455.83,490.6,519.08,483.1,541.95,490.77z"/>
			</g>
			<g>
				<path class="st48" d="M390.67,501.6c0,0-3.81-0.49-5.71-7.41c-1.89-6.91-5.7-5.81-5.08-0.01c0.62,5.81-1.31,20.42,3.15,18.52
					c4.45-1.89,7.62,0.01,7.62,0.01L390.67,501.6z"/>
			</g>
			<g>
				<g>
					<g>
						<polygon class="st52" points="500.09,488.29 546.18,493.41 549.13,459.33 564.57,427.89 545.86,416.88 514.24,410.59 
							506.55,456.88 						"/>
					</g>
				</g>
				<g>
					<g>
						<path class="st51" d="M508.23,470.25c0,0-5.29,0.98-6.12,0.07c-0.7-0.77-1.88-4.59,6.24-2.24L508.23,470.25z"/>
					</g>
				</g>
				<g>
					<g>
						<polygon class="st60" points="559.07,424.41 564.6,427.75 549.05,468.16 507.13,470.89 507.72,467.97 541.06,459.79 						"/>
					</g>
				</g>
				<g>
					<g>
						<g>
							<path class="st51" d="M537.7,407.08l-3.13,8.67c0,0,10.27,8.82,9.58,4.29c-0.65-4.21-0.53-12.44-0.53-12.44L537.7,407.08z"/>
						</g>
					</g>
					<g>
						<g>
							<path class="st51" d="M538.59,396.86c-0.88,1.75-2.63,5.16-1.81,7.65c0.81,2.49,1.98,6.89,4.63,8.15
								c2.64,1.27,4.47-1.02,5-2.09c0.85-1.7,2.29-11.55-1.89-14.34C541.35,394.12,539.26,395.53,538.59,396.86z"/>
						</g>
					</g>
					<g>
						<g>
							<path class="st58" d="M546.12,398.19c0,0-2.11,1.75-5.08,0.73c-2.97-1.01-2.86,2.02-2.88,2.35
								c-0.03,0.34,0.11,4.67-0.94,4.64c-1.07-0.02-2.01-5.49-0.16-8.94C538.93,393.53,544.73,393.54,546.12,398.19z"/>
						</g>
					</g>
					<g>
						<g>
							<path class="st58" d="M537.8,407.55c0,0,2.82,3.26,6.03,3.13c2.04-0.06,3.36-3.48,3.43-4.23c0.06-0.75,0.39,6.75-4.06,6.62
								C538.75,412.93,537.8,407.55,537.8,407.55z"/>
						</g>
					</g>
				</g>
				<g>
					<g>
						<path class="st51" d="M540.38,418.42c0,0,3.38-6.75,5.11-6.9c1.46-0.13,6.73,1.78-2.79,8.87L540.38,418.42z"/>
					</g>
				</g>
				<g>
					<g>
						<polygon class="st60" points="505.71,427.13 513.22,410.39 516.49,411.31 517.57,442.43 540.57,416.3 544.6,419.36 
							512.33,462.17 						"/>
					</g>
				</g>
			</g>
		</g>
		<g>
			<g>
				<g>
					<g>
						<g>
							<path class="st55" d="M358.43,232.24c0,0,7.15-3.23,8.64-2.23c1.26,0.85,4.27,5.83-8.06,5.35L358.43,232.24z"/>
						</g>
					</g>
				</g>
				<g>
					<g>
						<g>
							<path class="st24" d="M299.67,214.17l14.22,32.44L360,235.73l-0.75-3.91l-36.75,2.82l-14.19-28.15c0,0-7.37-12.23-11.21-6.24
								C295.21,203.24,296.86,207.45,299.67,214.17z"/>
						</g>
					</g>
				</g>
			</g>
			<g>
				<g>
					<g>
						<path class="st48" d="M296.7,181.47c0,0-6.02,0.49-7.41,4.29c-1.39,3.79-3.2,5.76-8.05,8.27
							c-4.85,2.51-12.54,7.05-12.31,11.76c0.36,7.48-5.12,10.72-3.6,14.94c1.53,4.21,6.86,2.9,8.66,0.99
							c1.8-1.91,14.52-10.69,16.66-14.25c2.14-3.56,6.76-0.47,9.1-2.8c2.34-2.34,1.58-6.56,2.7-7.89c4.06-4.91,2.22-9.73-0.47-13.19
							C299.31,180.14,296.7,181.47,296.7,181.47z"/>
					</g>
				</g>
			</g>
			<g>
				<g>
					<g>
						<path class="st52" d="M266.19,249.92l39.21,3.21l45.92,6.67c0,0,10.07,0.29,9.34,26.13l0.58,46.58l-5.28-0.09
							c0,0-9.41-32.63-11.68-55.85c0,0-40.65,2.41-54.34-3.7C276.22,266.75,263.09,251.63,266.19,249.92z"/>
					</g>
				</g>
			</g>
			<g>
				<g>
					<g>
						<path class="st54" d="M266.11,250.16l71.57,21.75c0,0,9.67,2.43,1.54,28.16l-12.4,47.68l-5.29-1.61c0,0,0.06-34.49,3.58-58.87
							c0,0-38.3-1.79-54.7-8.35C255.88,273.09,261.07,257.27,266.11,250.16z"/>
					</g>
				</g>
			</g>
			<g>
				<g>
					<g>
						<path class="st54" d="M279.99,199.79c0,0-4.74,3.37-8.25,12.93c-3.49,9.57-1.16,23.26-1.16,23.26l-6.82,18.27l41.62-1.12
							l2.59-17.05l-3.62-7.4l4.09-6.58l-6.9-22.8L279.99,199.79z"/>
					</g>
				</g>
			</g>
			<g>
				<g>
					<g>
						<polygon class="st61" points="320.81,344.38 328.67,345.91 327.58,351.24 328.61,353.79 338.65,364 335.82,363.14 
							324.96,358.13 323.82,358.58 319.67,357.27 						"/>
					</g>
				</g>
			</g>
			<g>
				<g>
					<g>
						<polygon class="st61" points="355.21,330.43 362.73,328.93 363.71,334.04 365.54,335.94 378.16,341.33 375.33,341.6 
							363.89,341.1 363.05,341.93 358.88,342.27 						"/>
					</g>
				</g>
			</g>
			<g>
				<g>
					<g>
						<path class="st55" d="M292.69,191.93l-4.75,7.67c0,0,8.05,10.54,8.3,6.05c0.23-4.17,2.02-12.02,2.02-12.02L292.69,191.93z"/>
					</g>
				</g>
			</g>
			<g>
				<g>
					<g>
						<path class="st55" d="M295.61,182.32c-1.2,1.5-3.56,4.41-3.29,6.95c0.29,2.55,0.51,7,2.79,8.75c2.28,1.75,3.83-0.94,4.67-1.74
							c0.84-0.79,5.08-9.84,1.63-13.37C298.81,180.25,296.51,181.18,295.61,182.32z"/>
					</g>
				</g>
			</g>
			<g>
				<g>
					<g>
						<path class="st62" d="M299.1,184.2c0,0-3.89,4.29-7.62,4.29c0,0,1.86-8.08,6.99-7.61c0,0,5.91,1.4,4.25,8.74
							C302.72,189.62,298.67,186.76,299.1,184.2z"/>
					</g>
				</g>
			</g>
			<g>
				<g>
					<g>
						<g>
							<path class="st55" d="M306.12,263.85c0,0,7.18,3.13,7.44,4.93c0.22,1.5-1.49,7.08-9.36-2.43L306.12,263.85z"/>
						</g>
					</g>
				</g>
				<g>
					<g>
						<g>
							<path class="st24" d="M270.42,215.01l-8.36,34.46l44,17.67l1.3-2.7l-31.27-19.51l5.25-31.08c0,0,2.61-10.33-4.42-11.51
								C276.92,202.35,272.14,207.95,270.42,215.01z"/>
						</g>
					</g>
				</g>
			</g>
		</g>
		<g>
			<g>
				<path class="st63" d="M180.93,211.15c-1.42,0-2.79,0.23-4.12,0.64c-2.71-4.76-6.99-7.85-11.82-7.86
					c-3.07-0.01-5.92,1.23-8.3,3.34c-0.84-8.39-6.22-14.89-12.75-14.9c-7.03-0.01-12.74,7.45-12.93,16.76
					c-2.28-1.62-4.87-2.55-7.64-2.55c-7.71-0.01-14.16,7.09-15.9,16.64c-1.17-0.52-2.42-0.8-3.72-0.8
					c-5.43-0.01-10.03,4.8-11.51,11.4l106.8,0.21C198.53,221.29,190.64,211.17,180.93,211.15z"/>
			</g>
			<g>
				<path class="st64" d="M143.94,192.37c-7.03-0.01-12.74,7.45-12.93,16.76c-2.28-1.62-4.87-2.55-7.64-2.55
					c-7.71-0.01-14.16,7.09-15.9,16.64c-1.17-0.52-2.42-0.8-3.72-0.8c-5.43-0.01-10.03,4.8-11.51,11.4l21.59,0.04
					c2.68-3.13,4.48-6.96,5.04-11.16c4.41,2.45,9.6,3.87,15.17,3.88c14.71,0.03,26.85-9.76,28.63-22.43
					c-2.18,0.45-4.22,1.54-5.98,3.11C155.86,198.87,150.48,192.38,143.94,192.37z"/>
			</g>
		</g>
		<g>
			<g>
				<path class="st63" d="M611.01,228.66c-1.03,0-2.01,0.17-2.97,0.46c-1.94-3.42-5.02-5.64-8.49-5.65c-2.2,0-4.26,0.88-5.96,2.4
					c-0.6-6.03-4.47-10.7-9.16-10.7c-5.05-0.01-9.15,5.35-9.29,12.04c-1.64-1.16-3.5-1.83-5.49-1.83
					c-5.53-0.01-10.17,5.09-11.43,11.96c-0.84-0.37-1.74-0.57-2.67-0.58c-3.9-0.01-7.21,3.45-8.27,8.2l76.74,0.15
					C623.65,235.95,617.99,228.68,611.01,228.66z"/>
			</g>
			<g>
				<path class="st64" d="M584.43,215.17c-5.05-0.01-9.15,5.35-9.29,12.04c-1.64-1.16-3.5-1.83-5.49-1.83
					c-5.53-0.01-10.17,5.09-11.43,11.96c-0.84-0.37-1.74-0.57-2.67-0.58c-3.9-0.01-7.21,3.45-8.27,8.2l15.51,0.03
					c1.92-2.25,3.21-5,3.62-8.02c3.17,1.76,6.9,2.78,10.9,2.79c10.57,0.02,19.29-7.01,20.57-16.12c-1.57,0.33-3.03,1.11-4.29,2.23
					C592.99,219.84,589.13,215.18,584.43,215.17z"/>
			</g>
		</g>
	</g>
</g>
<g>
	<path class="st63" d="M254.6,327.31l-11.83,11.83l-6.44-6.44l-2.88,2.88l9.32,9.32l14.72-14.72L254.6,327.31z"/>
</g>
<g>
	<path class="st63" d="M254.6,392.89l-11.83,11.83l-6.44-6.44l-2.88,2.88l9.32,9.32l14.72-14.72L254.6,392.89z"/>
</g>
<g>
	<path class="st63" d="M254.6,462.09l-11.83,11.83l-6.44-6.44l-2.88,2.88l9.32,9.32l14.72-14.72L254.6,462.09z"/>
</g>
<g>
	<g>
		
			<ellipse transform="matrix(0.9785 -0.2064 0.2064 0.9785 -51.9355 100.8206)" class="st26" cx="457.2" cy="299.31" rx="1.22" ry="1.41"/>
		
			<ellipse transform="matrix(0.9785 -0.2064 0.2064 0.9785 -52.0029 101.4772)" class="st26" cx="460.32" cy="299.96" rx="0.95" ry="1.1"/>
		
			<ellipse transform="matrix(0.9785 -0.2064 0.2064 0.9785 -52.8742 100.9334)" class="st26" cx="457.27" cy="303.86" rx="1.22" ry="1.41"/>
		
			<ellipse transform="matrix(0.9785 -0.2064 0.2064 0.9785 -52.9415 101.5899)" class="st26" cx="460.39" cy="304.51" rx="0.95" ry="1.1"/>
		<g>
			<path class="st26" d="M454,297.95v-2.77c0-0.61-0.48-1.01-0.9-0.76l-5.83,3.39c-0.23,0.13-0.38,0.43-0.38,0.76v2.35L454,297.95z"
				/>
			<path class="st26" d="M446.89,303.05v4.11c0,0.46,0.29,0.84,0.64,0.84h5.83c0.35,0,0.64-0.37,0.64-0.84v-6.35L446.89,303.05z"/>
		</g>
	</g>
	<g>
		<path class="st26" d="M465.52,300.16c0.66-0.68,1.5-1.01,2.52-1.01c1.37,0,2.37,0.45,3,1.36c0.35,0.51,0.54,1.02,0.56,1.53h-1.72
			c-0.11-0.39-0.25-0.69-0.42-0.89c-0.31-0.36-0.76-0.53-1.36-0.53c-0.61,0-1.09,0.25-1.45,0.75c-0.35,0.5-0.53,1.22-0.53,2.14
			c0,0.92,0.19,1.61,0.56,2.07c0.37,0.46,0.85,0.69,1.42,0.69c0.59,0,1.04-0.2,1.35-0.59c0.17-0.21,0.31-0.53,0.43-0.95h1.7
			c-0.15,0.9-0.52,1.62-1.13,2.18c-0.6,0.56-1.38,0.84-2.32,0.84c-1.17,0-2.09-0.38-2.76-1.14c-0.67-0.76-1-1.8-1-3.13
			C464.38,302.04,464.76,300.94,465.52,300.16z"/>
		<path class="st26" d="M476.1,301.3c0.02,0,0.07,0,0.14,0.01v1.63c-0.1-0.01-0.19-0.02-0.27-0.02c-0.08,0-0.14-0.01-0.19-0.01
			c-0.64,0-1.07,0.21-1.29,0.62c-0.12,0.23-0.18,0.59-0.18,1.08v2.9h-1.6v-6.07h1.52v1.06c0.25-0.4,0.46-0.68,0.64-0.83
			c0.3-0.25,0.68-0.37,1.16-0.37C476.06,301.3,476.08,301.3,476.1,301.3z"/>
		<path class="st26" d="M481.01,301.57c0.42,0.19,0.77,0.49,1.05,0.9c0.25,0.36,0.41,0.78,0.48,1.26c0.04,0.28,0.06,0.68,0.05,1.21
			h-4.42c0.02,0.61,0.24,1.04,0.63,1.28c0.24,0.15,0.53,0.23,0.88,0.23c0.36,0,0.66-0.09,0.88-0.28c0.12-0.1,0.23-0.24,0.33-0.42
			h1.62c-0.04,0.36-0.24,0.73-0.59,1.1c-0.54,0.59-1.31,0.89-2.28,0.89c-0.81,0-1.52-0.25-2.14-0.75c-0.62-0.5-0.93-1.31-0.93-2.43
			c0-1.05,0.28-1.86,0.84-2.42c0.56-0.56,1.28-0.84,2.17-0.84C480.11,301.28,480.59,301.38,481.01,301.57z M478.64,302.94
			c-0.22,0.23-0.37,0.54-0.42,0.94h2.74c-0.03-0.42-0.17-0.74-0.42-0.96c-0.25-0.22-0.57-0.33-0.94-0.33
			C479.18,302.59,478.86,302.71,478.64,302.94z"/>
		<path class="st26" d="M486.51,301.54c0.29,0.16,0.52,0.39,0.7,0.67v-2.9h1.61v8.2h-1.54v-0.84c-0.23,0.36-0.48,0.62-0.77,0.79
			c-0.29,0.16-0.65,0.24-1.08,0.24c-0.71,0-1.31-0.29-1.79-0.86c-0.48-0.57-0.73-1.31-0.73-2.21c0-1.04,0.24-1.85,0.72-2.45
			c0.48-0.59,1.12-0.89,1.91-0.89C485.9,301.3,486.22,301.38,486.51,301.54z M486.9,305.87c0.23-0.33,0.35-0.77,0.35-1.3
			c0-0.74-0.19-1.27-0.56-1.59c-0.23-0.19-0.5-0.29-0.8-0.29c-0.46,0-0.81,0.18-1.02,0.53c-0.22,0.35-0.33,0.79-0.33,1.31
			c0,0.56,0.11,1.01,0.33,1.35c0.22,0.34,0.56,0.5,1.01,0.5C486.32,306.37,486.67,306.2,486.9,305.87z"/>
		<path class="st26" d="M491.04,300.72h-0.14c-0.4,0-0.73-0.33-0.73-0.73l0,0c0-0.4,0.33-0.73,0.73-0.73h0.14
			c0.4,0,0.73,0.33,0.73,0.73l0,0C491.78,300.39,491.45,300.72,491.04,300.72z M490.17,301.44h1.61v6.07h-1.61V301.44z"/>
		<path class="st26" d="M492.58,302.63v-1.13h0.85v-1.69h1.57v1.69h0.99v1.13h-0.99v3.21c0,0.25,0.03,0.4,0.09,0.47
			c0.06,0.06,0.26,0.09,0.58,0.09c0.05,0,0.1,0,0.15,0c0.05,0,0.11,0,0.16-0.01v1.19l-0.75,0.03c-0.75,0.03-1.26-0.1-1.54-0.39
			c-0.18-0.18-0.27-0.46-0.27-0.84v-3.74H492.58z"/>
		<path class="st26" d="M503.34,306.79c-0.62,0.64-1.52,0.96-2.69,0.96c-1.17,0-2.07-0.32-2.69-0.96c-0.83-0.78-1.25-1.91-1.25-3.39
			c0-1.5,0.42-2.63,1.25-3.39c0.62-0.64,1.52-0.96,2.69-0.96c1.17,0,2.07,0.32,2.69,0.96c0.83,0.75,1.24,1.88,1.24,3.39
			C504.58,304.87,504.17,306,503.34,306.79z M502.27,305.54c0.4-0.5,0.6-1.21,0.6-2.14c0-0.92-0.2-1.63-0.6-2.14
			c-0.4-0.5-0.94-0.75-1.62-0.75c-0.68,0-1.22,0.25-1.63,0.75c-0.4,0.5-0.61,1.21-0.61,2.14s0.2,1.64,0.61,2.14
			c0.4,0.5,0.95,0.75,1.63,0.75C501.33,306.29,501.87,306.04,502.27,305.54z"/>
		<path class="st26" d="M508.87,301.54c0.29,0.16,0.52,0.39,0.7,0.67v-2.9h1.61v8.2h-1.54v-0.84c-0.23,0.36-0.48,0.62-0.77,0.79
			c-0.29,0.16-0.65,0.24-1.08,0.24c-0.71,0-1.31-0.29-1.79-0.86c-0.48-0.57-0.73-1.31-0.73-2.21c0-1.04,0.24-1.85,0.72-2.45
			c0.48-0.59,1.12-0.89,1.91-0.89C508.26,301.3,508.58,301.38,508.87,301.54z M509.26,305.87c0.23-0.33,0.35-0.77,0.35-1.3
			c0-0.74-0.19-1.27-0.56-1.59c-0.23-0.19-0.5-0.29-0.8-0.29c-0.46,0-0.81,0.18-1.02,0.53c-0.22,0.35-0.33,0.79-0.33,1.31
			c0,0.56,0.11,1.01,0.33,1.35c0.22,0.34,0.56,0.5,1.01,0.5C508.68,306.37,509.02,306.2,509.26,305.87z"/>
		<path class="st26" d="M515.72,301.54c0.29,0.16,0.52,0.39,0.7,0.67v-2.9h1.61v8.2h-1.54v-0.84c-0.23,0.36-0.48,0.62-0.77,0.79
			c-0.29,0.16-0.65,0.24-1.08,0.24c-0.71,0-1.31-0.29-1.79-0.86c-0.48-0.57-0.73-1.31-0.73-2.21c0-1.04,0.24-1.85,0.72-2.45
			c0.48-0.59,1.12-0.89,1.91-0.89C515.11,301.3,515.44,301.38,515.72,301.54z M516.11,305.87c0.23-0.33,0.35-0.77,0.35-1.3
			c0-0.74-0.19-1.27-0.56-1.59c-0.23-0.19-0.5-0.29-0.8-0.29c-0.46,0-0.81,0.18-1.02,0.53c-0.22,0.35-0.33,0.79-0.33,1.31
			c0,0.56,0.11,1.01,0.33,1.35s0.56,0.5,1.01,0.5C515.54,306.37,515.88,306.2,516.11,305.87z"/>
		<path class="st26" d="M520.59,305.58c0.03,0.28,0.11,0.48,0.22,0.6c0.2,0.21,0.56,0.32,1.1,0.32c0.31,0,0.56-0.05,0.75-0.14
			c0.18-0.09,0.28-0.23,0.28-0.42c0-0.18-0.07-0.31-0.22-0.41c-0.15-0.09-0.7-0.25-1.66-0.48c-0.69-0.17-1.18-0.38-1.46-0.64
			c-0.28-0.25-0.42-0.62-0.42-1.09c0-0.56,0.22-1.04,0.66-1.45s1.06-0.6,1.86-0.6c0.76,0,1.38,0.15,1.86,0.45
			c0.48,0.3,0.75,0.83,0.82,1.57h-1.59c-0.02-0.2-0.08-0.37-0.17-0.48c-0.18-0.22-0.47-0.32-0.89-0.32c-0.35,0-0.59,0.05-0.74,0.16
			c-0.15,0.11-0.22,0.23-0.22,0.38c0,0.18,0.08,0.31,0.23,0.4c0.16,0.09,0.71,0.23,1.66,0.44c0.63,0.15,1.11,0.37,1.42,0.67
			c0.31,0.3,0.47,0.69,0.47,1.14c0,0.6-0.22,1.09-0.67,1.47c-0.45,0.38-1.14,0.57-2.08,0.57c-0.96,0-1.66-0.2-2.12-0.6
			c-0.46-0.4-0.68-0.92-0.68-1.54H520.59z"/>
	</g>
</g>
</svg>
