<?xml version="1.0" standalone="no"?>
<!DOCTYPE svg PUBLIC "-//W3C//DTD SVG 20010904//EN"
 "http://www.w3.org/TR/2001/REC-SVG-20010904/DTD/svg10.dtd">
<svg version="1.0" xmlns="http://www.w3.org/2000/svg"
 width="700.000000pt" height="700.000000pt" viewBox="0 0 700.000000 700.000000"
 preserveAspectRatio="xMidYMid meet">
<metadata>
Created by potrace 1.14, written by Peter Selinger 2001-2017
</metadata>
<g transform="translate(0.000000,700.000000) scale(0.100000,-0.100000)"
fill="#000000" stroke="none">
<path d="M3090 6263 c-36 -11 -97 -39 -120 -54 -19 -13 -704 -413 -905 -529
-16 -9 -111 -64 -210 -122 -99 -57 -200 -116 -225 -130 -25 -14 -121 -70 -215
-125 -93 -55 -240 -140 -325 -190 -432 -251 -414 -239 -455 -304 -58 -90 -58
-92 -59 -627 -1 -272 1 -495 5 -498 6 -3 75 22 169 63 42 18 53 22 150 63 41
17 84 35 95 40 19 9 598 250 1715 715 567 235 625 260 650 274 13 7 15 80 15
557 0 302 -3 574 -8 604 -16 111 -84 213 -163 246 -40 17 -91 24 -114 17z"/>
<path d="M4486 4840 c-159 -50 -273 -181 -316 -365 -16 -69 -19 -191 -6 -250
35 -166 129 -312 252 -390 173 -111 382 -99 531 29 81 70 146 194 168 321 9
51 6 168 -4 203 -5 17 -8 32 -6 32 2 0 -4 24 -14 53 -99 287 -357 443 -605
367z"/>
<path d="M5745 4467 c-66 -22 -98 -43 -146 -94 -96 -102 -134 -252 -102 -398
55 -249 275 -400 487 -335 75 24 127 63 177 133 51 73 71 137 75 239 4 123
-17 194 -88 298 -71 104 -171 162 -288 167 -44 2 -91 -3 -115 -10z"/>
<path d="M3350 3709 c-13 -7 -300 -99 -325 -105 -6 -1 -85 -25 -175 -54 -91
-28 -187 -59 -215 -67 -27 -8 -68 -21 -90 -29 -49 -17 -1076 -339 -1160 -364
-33 -10 -103 -32 -155 -48 -52 -17 -174 -55 -270 -86 -96 -30 -222 -69 -280
-88 l-105 -33 0 -840 c1 -924 0 -899 62 -993 32 -47 93 -94 138 -108 17 -5
527 -9 1195 -8 915 0 1175 3 1211 13 53 15 119 72 148 128 45 90 44 60 46
1393 1 696 -1 1272 -4 1281 -4 11 -11 14 -21 8z"/>
<path d="M4570 3063 c-141 -26 -265 -124 -329 -258 -45 -96 -56 -150 -55 -270
2 -124 26 -212 86 -312 126 -210 361 -306 568 -232 101 36 195 125 249 234 44
89 61 174 57 285 -8 244 -155 458 -363 531 -55 20 -166 31 -213 22z"/>
<path d="M5795 2680 c-126 -31 -235 -146 -270 -285 -39 -157 22 -357 143 -465
77 -70 141 -95 242 -95 100 0 170 27 233 90 35 35 88 115 94 140 1 5 8 30 16
55 21 64 15 199 -12 273 -73 208 -266 332 -446 287z"/>
</g>
</svg>
