<?xml version="1.0" encoding="utf-8"?>
<!-- Generator: Adobe Illustrator 24.1.0, SVG Export Plug-In . SVG Version: 6.00 Build 0)  -->
<svg version="1.1" id="Layer_1" xmlns="http://www.w3.org/2000/svg" xmlns:xlink="http://www.w3.org/1999/xlink" x="0px" y="0px"
	 viewBox="0 0 800 719" style="enable-background:new 0 0 800 719;" xml:space="preserve">
<style type="text/css">
	.st0{fill:url(#SVGID_1_);}
	.st1{fill:#606060;}
	.st2{fill:#222222;}
	.st3{fill:#3D46A2;}
	.st4{fill:#F4F4F4;}
	.st5{opacity:0.4;fill:#D5D5D5;}
	.st6{fill:#A8A8A8;}
	.st7{fill:#919191;}
	.st8{fill:#797979;}
	.st9{fill:#424242;}
	.st10{clip-path:url(#SVGID_3_);fill:#A8A8A8;}
	.st11{clip-path:url(#SVGID_3_);fill:#424242;}
	.st12{clip-path:url(#SVGID_3_);fill:#919191;}
	.st13{clip-path:url(#SVGID_3_);fill:#D5D5D5;}
	.st14{fill:#C8D5DB;}
	.st15{fill:#504DE1;}
	.st16{opacity:0.18;fill:#FFFFFF;}
	.st17{fill:#BFBFBF;}
	.st18{fill:url(#SVGID_4_);}
	.st19{fill:#040B38;}
	.st20{clip-path:url(#SVGID_6_);}
	.st21{fill:#FFB831;}
	.st22{fill:url(#SVGID_7_);}
	.st23{fill:none;stroke:#EEEFF2;stroke-width:0.9795;stroke-miterlimit:10;}
	.st24{fill:#EEEFF2;}
	.st25{opacity:0.77;}
	.st26{fill:#FFFFFF;}
	.st27{clip-path:url(#SVGID_6_);fill:url(#SVGID_8_);}
	.st28{clip-path:url(#SVGID_6_);fill:url(#SVGID_9_);}
	.st29{clip-path:url(#SVGID_6_);fill:url(#SVGID_10_);}
	.st30{fill:url(#SVGID_11_);}
	.st31{fill:#252563;}
	.st32{fill:#4848B5;}
	.st33{fill:#3737DD;}
	.st34{fill:#103975;}
	.st35{fill:#E11D8D;}
	.st36{fill:#977BF3;}
	.st37{fill:#D2CAF9;}
	.st38{fill:#FD6BCD;}
	.st39{fill:#ECEBE4;}
	.st40{clip-path:url(#SVGID_13_);}
	.st41{fill:url(#SVGID_14_);}
	.st42{clip-path:url(#SVGID_13_);fill:url(#SVGID_15_);}
	.st43{clip-path:url(#SVGID_13_);fill:url(#SVGID_16_);}
	.st44{clip-path:url(#SVGID_13_);fill:url(#SVGID_17_);}
	.st45{fill:#3E3EB5;}
	.st46{fill:#11141B;}
	.st47{fill:#6671C6;}
	.st48{fill:#757ED8;}
	.st49{fill:#F7AE30;}
	.st50{fill:#B36DFC;}
	.st51{fill:#140B35;}
	.st52{fill:#C095F9;}
	.st53{fill:#F8AC2B;}
	.st54{fill:#31DCEE;}
	.st55{fill:#868BE9;}
	.st56{fill:#171B23;}
	.st57{fill:#7F6AE2;}
	.st58{fill:#1E0F46;}
	.st59{fill:#7A92CE;}
	.st60{fill:#191D26;}
	.st61{fill:#EAEAE8;}
	.st62{fill:#F9F9F9;}
	.st63{fill:url(#SVGID_18_);}
	.st64{clip-path:url(#SVGID_20_);}
	.st65{fill:url(#SVGID_21_);}
	.st66{clip-path:url(#SVGID_20_);fill:url(#SVGID_22_);}
	.st67{clip-path:url(#SVGID_20_);fill:url(#SVGID_23_);}
	.st68{clip-path:url(#SVGID_20_);fill:url(#SVGID_24_);}
	.st69{font-family:'Helvetica-Bold';}
	.st70{font-size:26.7908px;}
	.st71{fill:#E8890C;}
	.st72{fill:url(#SVGID_25_);}
	.st73{fill:url(#SVGID_26_);}
	.st74{fill:url(#SVGID_27_);}
	.st75{fill:url(#SVGID_28_);}
	.st76{fill:url(#SVGID_29_);}
	.st77{fill:url(#SVGID_30_);}
	.st78{fill:url(#SVGID_31_);}
	.st79{fill:url(#SVGID_32_);}
	.st80{fill:url(#SVGID_33_);}
	.st81{fill:url(#SVGID_34_);}
	.st82{fill:url(#SVGID_35_);}
	.st83{fill:url(#SVGID_36_);}
	.st84{opacity:0.3;}
	.st85{fill:url(#SVGID_37_);}
	.st86{fill:url(#SVGID_38_);}
	.st87{fill:url(#SVGID_39_);}
	.st88{fill:url(#SVGID_40_);}
	.st89{fill:url(#SVGID_41_);}
	.st90{fill:url(#SVGID_42_);}
	.st91{fill:url(#SVGID_43_);}
	.st92{opacity:0.3;fill:url(#SVGID_44_);}
	.st93{fill:url(#SVGID_45_);}
	.st94{fill:url(#SVGID_46_);}
	.st95{fill:url(#SVGID_47_);}
	.st96{fill:url(#SVGID_48_);}
	.st97{fill:url(#SVGID_49_);}
	.st98{fill:url(#SVGID_50_);}
	.st99{fill:url(#SVGID_51_);}
	.st100{fill:#2D2691;}
</style>
<radialGradient id="SVGID_1_" cx="394.4164" cy="382.5502" r="671.1876" gradientTransform="matrix(1.0007 0 0 1.0042 -0.5288 -0.9761)" gradientUnits="userSpaceOnUse">
	<stop  offset="0" style="stop-color:#7570FF"/>
	<stop  offset="0.0318" style="stop-color:#726DF9"/>
	<stop  offset="0.3654" style="stop-color:#5150BD"/>
	<stop  offset="0.6496" style="stop-color:#383C92"/>
	<stop  offset="0.8701" style="stop-color:#2A2F77"/>
	<stop  offset="1" style="stop-color:#242A6D"/>
</radialGradient>
<rect y="0" class="st0" width="798.99" height="719"/>
<g>
	<g>
		<path class="st19" d="M626.56,429.16L213.04,544.13c-20.66,5.74-42.12-6.13-47.94-26.52L91.37,259.33
			c-5.82-20.39,6.21-41.58,26.87-47.32L531.76,97.04c20.66-5.74,42.12,6.13,47.94,26.52l73.72,258.28
			C659.25,402.23,647.22,423.41,626.56,429.16z"/>
		<path class="st15" d="M633.86,427.13L220.34,542.1c-20.66,5.74-42.12-6.13-47.94-26.52L98.68,257.3
			c-5.82-20.39,6.21-41.58,26.87-47.32L539.06,95.01c20.66-5.74,42.12,6.13,47.94,26.52l73.72,258.28
			C666.55,400.2,654.52,421.38,633.86,427.13z"/>
		<g>
			<defs>
				<path id="SVGID_19_" d="M633.86,427.13L220.34,542.1c-20.66,5.74-42.12-6.13-47.94-26.52L98.68,257.3
					c-5.82-20.39,6.21-41.58,26.87-47.32L539.06,95.01c20.66-5.74,42.12,6.13,47.94,26.52l73.72,258.28
					C666.55,400.2,654.52,421.38,633.86,427.13z"/>
			</defs>
			<clipPath id="SVGID_3_">
				<use xlink:href="#SVGID_19_"  style="overflow:visible;"/>
			</clipPath>
			<g style="clip-path:url(#SVGID_3_);">
				<path class="st19" d="M152.94,346.79l-9.95-34.87c-3.66-12.84,3.91-26.18,16.92-29.79l30.83-8.57
					c13.01-3.62,26.52,3.86,30.19,16.7l9.95,34.87c3.66,12.84-3.91,26.18-16.92,29.79l-30.83,8.57
					C170.12,367.1,156.6,359.63,152.94,346.79z"/>
				<path class="st21" d="M213.73,348.31l-33.91,9.43c-9.56,2.66-19.5-2.84-22.2-12.28l-10.82-37.9
					c-2.69-9.44,2.87-19.25,12.44-21.91l33.91-9.43c9.56-2.66,19.5,2.84,22.2,12.28l10.82,37.9
					C228.87,335.84,223.3,345.65,213.73,348.31z"/>
				
					<linearGradient id="SVGID_4_" gradientUnits="userSpaceOnUse" x1="163.7012" y1="-263.1885" x2="241.5264" y2="-162.0158" gradientTransform="matrix(0.9625 -0.2712 0.2712 0.9625 17.8815 553.273)">
					<stop  offset="0" style="stop-color:#FFFFFF"/>
					<stop  offset="1" style="stop-color:#FFFFFF;stop-opacity:0"/>
				</linearGradient>
				<path class="st18" d="M213.73,348.31l-33.91,9.43c-9.56,2.66-19.5-2.84-22.2-12.28l-10.82-37.9
					c-2.69-9.44,2.87-19.25,12.44-21.91l33.91-9.43c9.56-2.66,19.5,2.84,22.2,12.28l10.82,37.9
					C228.87,335.84,223.3,345.65,213.73,348.31z"/>
				<path class="st23" d="M204.34,337.13l-22.41,6.23c-5.91,1.64-12.06-1.75-13.72-7.59l-7.25-25.4c-1.67-5.84,1.78-11.9,7.69-13.54
					l22.41-6.23c5.91-1.64,12.06,1.75,13.72,7.59l7.25,25.4C213.69,329.42,210.25,335.48,204.34,337.13z"/>
				<path class="st23" d="M191.23,325.83l-4.1,1.14c-4,1.11-8.16-1.19-9.28-5.13l-1.3-4.56c-1.13-3.95,1.2-8.05,5.2-9.16l4.1-1.14
					c4-1.11,8.16,1.19,9.28,5.13l1.3,4.56C197.56,320.62,195.23,324.72,191.23,325.83z"/>
				<g>
					<g>
						<path class="st24" d="M194.36,309.53c3.83-0.85,7.6-1.97,11.37-3.07c0.36-0.1,0.71-0.21,1.07-0.31
							c0.3-0.09,0.17-0.56-0.13-0.47c-3.08,0.91-6.16,1.79-9.27,2.61c-1.05,0.28-2.11,0.54-3.17,0.78
							C193.92,309.13,194.05,309.6,194.36,309.53L194.36,309.53z"/>
					</g>
				</g>
				<g>
					<g>
						<path class="st24" d="M197.13,319.24c3.73-0.83,7.4-1.96,11.06-3.07c0.34-0.1,0.68-0.21,1.02-0.31
							c0.3-0.09,0.17-0.57-0.13-0.47c-2.97,0.92-5.96,1.8-8.96,2.61c-1.04,0.28-2.07,0.55-3.12,0.78
							C196.69,318.83,196.82,319.31,197.13,319.24L197.13,319.24z"/>
					</g>
				</g>
				<g>
					<g>
						<path class="st24" d="M163.46,318.13c3.83-0.85,7.6-1.97,11.37-3.07c0.36-0.1,0.71-0.21,1.07-0.31
							c0.3-0.09,0.17-0.56-0.13-0.47c-3.08,0.91-6.16,1.79-9.27,2.61c-1.05,0.28-2.11,0.54-3.17,0.78
							C163.02,317.72,163.15,318.19,163.46,318.13L163.46,318.13z"/>
					</g>
				</g>
				<g>
					<g>
						<path class="st24" d="M166.23,327.83c3.73-0.83,7.4-1.96,11.06-3.07c0.34-0.1,0.68-0.21,1.02-0.31
							c0.3-0.09,0.17-0.57-0.13-0.47c-2.97,0.92-5.96,1.8-8.96,2.61c-1.04,0.28-2.07,0.55-3.12,0.78
							C165.79,327.43,165.92,327.9,166.23,327.83L166.23,327.83z"/>
					</g>
				</g>
			</g>
			<g style="clip-path:url(#SVGID_3_);">
				<g class="st25">
					<path class="st26" d="M199.36,443.04c2.08,7.28,0.84,11.98-3.33,13.14c-3.68,1.02-7.3-2.21-9.39-9.28
						c-2.06-7.22-0.46-11.94,3.37-13C193.98,432.79,197.41,436.2,199.36,443.04z M189.21,446.19c1.59,5.6,4.01,8.34,6.32,7.69
						c2.6-0.72,2.86-4.53,1.29-10c-1.51-5.3-3.67-8.42-6.32-7.69C188.28,436.82,187.54,440.37,189.21,446.19z"/>
					<path class="st26" d="M220.04,437.29c2.08,7.28,0.84,11.98-3.33,13.14c-3.68,1.02-7.31-2.21-9.39-9.28
						c-2.06-7.22-0.46-11.94,3.37-13C214.66,427.04,218.08,430.45,220.04,437.29z M209.88,440.44c1.59,5.6,4.01,8.34,6.33,7.7
						c2.6-0.72,2.86-4.53,1.3-10c-1.51-5.3-3.68-8.42-6.32-7.69C208.96,431.07,208.22,434.62,209.88,440.44z"/>
					<path class="st26" d="M240.71,431.54c2.08,7.28,0.84,11.98-3.33,13.14c-3.68,1.02-7.31-2.21-9.39-9.28
						c-2.06-7.22-0.46-11.94,3.37-13C235.34,421.29,238.76,424.7,240.71,431.54z M230.56,434.69c1.59,5.6,4.01,8.34,6.33,7.69
						c2.6-0.72,2.86-4.53,1.3-10c-1.51-5.3-3.68-8.42-6.32-7.69C229.64,425.32,228.9,428.87,230.56,434.69z"/>
					<path class="st26" d="M261.39,425.79c2.08,7.28,0.84,11.98-3.33,13.14c-3.68,1.02-7.31-2.21-9.39-9.28
						c-2.06-7.22-0.46-11.94,3.37-13C256.02,415.54,259.44,418.95,261.39,425.79z M251.24,428.94c1.59,5.6,4.01,8.34,6.32,7.69
						c2.6-0.72,2.86-4.53,1.29-10c-1.51-5.3-3.67-8.42-6.32-7.69C250.32,419.57,249.58,423.12,251.24,428.94z"/>
					<path class="st26" d="M284.79,410.85l-0.06,0.02l-2.7,2.92l-1.12-2.07l3.4-3.65l2.16-0.6l6.13,21.47l-2.46,0.68L284.79,410.85z
						"/>
					<path class="st26" d="M305.28,425.41l-0.5-1.77l1.37-2.77c3.32-6.56,4.72-9.96,3.81-13.2c-0.62-2.18-2.11-3.95-4.92-3.17
						c-1.72,0.48-2.85,1.88-3.49,2.93l-1.39-1.81c0.94-1.6,2.54-3.06,4.71-3.67c4.05-1.13,6.66,1.57,7.54,4.63
						c1.14,3.99-0.47,7.89-3.2,13.33l-1.03,2.02l0.02,0.07l8.45-2.35l0.69,2.41L305.28,425.41z"/>
					<path class="st26" d="M325.63,416.17c0.87,0.31,2.78,0.67,4.57,0.17c3.26-0.91,3.61-3.55,3.08-5.34
						c-0.89-3.01-3.65-3.62-6.1-2.94l-1.42,0.4l-0.62-2.18l1.43-0.4c1.85-0.52,3.89-2.26,3.17-4.79c-0.49-1.72-1.89-2.97-4.24-2.32
						c-1.5,0.42-2.74,1.58-3.36,2.46l-1.29-1.91c0.75-1.11,2.43-2.47,4.46-3.03c3.73-1.04,6.13,1,6.88,3.62
						c0.63,2.22-0.02,4.43-2.04,6.02l0.02,0.07c2.46-0.14,4.91,1.34,5.76,4.34c0.98,3.43-0.52,7.1-5.04,8.35
						c-2.12,0.59-4.18,0.35-5.3-0.11L325.63,416.17z"/>
					<path class="st26" d="M354.53,411.72l-1.67-5.86l-8.75,2.43l-0.54-1.9l4.49-16.05l2.76-0.77l3.81,13.36l2.64-0.74l0.64,2.25
						l-2.64,0.74l1.67,5.86L354.53,411.72z M352.22,403.61l-2.05-7.18c-0.32-1.12-0.61-2.25-0.86-3.39l-0.1,0.01
						c-0.22,1.44-0.42,2.49-0.66,3.63l-2.51,8.58l0.01,0.07L352.22,403.61z"/>
					<path class="st26" d="M385.08,382.68l-7.18,2l0.85,5.72c0.41-0.19,0.8-0.35,1.5-0.54c1.47-0.41,3-0.44,4.4,0.03
						c1.73,0.53,3.49,2.06,4.26,4.77c1.2,4.19-0.83,8.13-4.92,9.27c-2.07,0.58-3.98,0.39-5.08-0.01l0.01-2.4
						c0.92,0.31,2.66,0.56,4.38,0.08c2.39-0.66,3.95-3.04,3.11-5.92c-0.8-2.75-2.99-4.27-6.75-3.22c-1.09,0.3-1.9,0.64-2.56,0.95
						l-1.72-10.65l9.01-2.5L385.08,382.68z"/>
					<path class="st26" d="M405.17,376.66c-0.54,0.14-1.18,0.35-1.89,0.69c-3.79,1.84-4.95,5.77-4.36,9.44l0.07-0.02
						c0.5-1.63,1.75-3.19,3.83-3.77c3.36-0.93,6.49,1.18,7.68,5.35c1.12,3.94-0.2,8.23-4.12,9.32c-4.02,1.12-7.67-1.72-9.26-7.29
						c-1.21-4.22-0.84-7.94,0.43-10.57c1.05-2.19,2.84-3.86,5.12-4.86c0.71-0.34,1.33-0.55,1.8-0.67L405.17,376.66z M407.98,389.27
						c-0.88-3.08-2.95-4.49-5.28-3.84c-1.54,0.43-2.67,1.9-2.92,3.66c-0.05,0.38-0.05,0.83,0.09,1.35c1.05,3.53,3.23,5.77,5.91,5.02
						C407.97,394.84,408.86,392.34,407.98,389.27z"/>
					<path class="st26" d="M426.75,368.46l0.55,1.92l-2.64,21.84l-2.62,0.73l2.74-21.27l-0.02-0.06l-9.21,2.56l-0.69-2.41
						L426.75,368.46z"/>
					<path class="st26" d="M439.53,382.21c-0.77-2.7,0.11-5.02,2.08-6.8l-0.03-0.1c-2.42-0.52-3.85-2.11-4.39-3.97
						c-0.97-3.38,0.91-6.41,4.23-7.34c3.64-1.01,6.22,1.07,6.99,3.75c0.52,1.83,0.28,4.01-1.67,5.88l0.03,0.11
						c2.64,0.4,4.63,1.9,5.37,4.49c1.07,3.75-1.02,7.03-4.64,8.04C443.57,387.35,440.43,385.34,439.53,382.21z M439.56,370.45
						c0.6,2.16,2.37,2.92,4.72,2.97c1.44-1.06,2.31-2.73,1.75-4.7c-0.48-1.7-1.89-3.23-4.19-2.6
						C439.73,366.71,439.04,368.62,439.56,370.45z M449.64,379.24c-0.74-2.59-2.7-3.41-5.48-3.52c-1.99,1.32-2.72,3.33-2.14,5.37
						c0.54,2.19,2.53,3.7,4.93,3.03C449.25,383.48,450.27,381.44,449.64,379.24z"/>
					<path class="st26" d="M474.84,376.05c0.57-0.1,1.18-0.32,2.01-0.68c1.41-0.62,2.62-1.7,3.37-3.16
						c0.86-1.65,1.22-3.78,0.85-6.41l-0.07,0.02c-0.64,1.75-1.9,3.02-3.8,3.55c-3.39,0.94-6.39-1.36-7.44-5.04
						c-1.15-4.04,0.42-8.34,4.27-9.41c3.84-1.07,7.25,1.82,8.82,7.33c1.34,4.71,0.89,8.39-0.38,10.97c-0.99,2-2.7,3.56-4.67,4.39
						c-0.86,0.41-1.68,0.69-2.28,0.82L474.84,376.05z M472.24,363.46c0.76,2.67,2.72,4.16,4.94,3.54c1.7-0.47,2.76-1.81,3.07-3.29
						c0.05-0.3,0.06-0.65-0.08-1.13c-1.04-3.68-3.04-6.13-5.71-5.38C472.28,357.81,471.37,360.42,472.24,363.46z"/>
					<path class="st26" d="M495.52,370.3c0.57-0.1,1.18-0.32,2.02-0.68c1.41-0.62,2.62-1.7,3.37-3.16c0.86-1.65,1.22-3.78,0.85-6.41
						l-0.07,0.02c-0.64,1.75-1.9,3.02-3.8,3.55c-3.39,0.94-6.39-1.36-7.44-5.04c-1.15-4.04,0.42-8.34,4.27-9.41
						c3.84-1.07,7.25,1.82,8.82,7.33c1.34,4.71,0.89,8.39-0.38,10.97c-0.99,2-2.7,3.56-4.67,4.39c-0.86,0.41-1.68,0.69-2.28,0.82
						L495.52,370.3z M492.92,357.71c0.76,2.67,2.72,4.16,4.94,3.54c1.7-0.47,2.76-1.81,3.07-3.29c0.05-0.3,0.06-0.64-0.08-1.12
						c-1.04-3.68-3.04-6.13-5.71-5.39C492.96,352.06,492.05,354.67,492.92,357.71z"/>
					<path class="st26" d="M516.2,364.55c0.57-0.1,1.18-0.32,2.01-0.68c1.41-0.62,2.62-1.7,3.37-3.16c0.86-1.65,1.22-3.78,0.85-6.41
						l-0.07,0.02c-0.64,1.75-1.9,3.02-3.8,3.55c-3.39,0.94-6.39-1.36-7.44-5.04c-1.15-4.04,0.42-8.34,4.27-9.41
						c3.84-1.07,7.25,1.82,8.82,7.33c1.34,4.71,0.89,8.39-0.38,10.97c-0.99,2-2.7,3.56-4.67,4.39c-0.86,0.41-1.68,0.69-2.28,0.82
						L516.2,364.55z M513.6,351.96c0.76,2.67,2.72,4.16,4.94,3.54c1.7-0.47,2.76-1.81,3.07-3.29c0.05-0.3,0.06-0.64-0.08-1.12
						c-1.04-3.68-3.04-6.13-5.71-5.38C513.64,346.31,512.73,348.92,513.6,351.96z"/>
					<path class="st26" d="M536.88,358.8c0.57-0.1,1.18-0.32,2.01-0.68c1.41-0.62,2.62-1.7,3.37-3.16c0.86-1.65,1.22-3.78,0.85-6.41
						l-0.07,0.02c-0.64,1.75-1.9,3.02-3.8,3.55c-3.39,0.94-6.39-1.36-7.44-5.04c-1.15-4.04,0.42-8.34,4.27-9.41
						c3.84-1.07,7.25,1.82,8.82,7.33c1.34,4.71,0.89,8.39-0.38,10.97c-0.99,2-2.7,3.56-4.67,4.39c-0.86,0.41-1.68,0.69-2.28,0.82
						L536.88,358.8z M534.28,346.21c0.76,2.67,2.72,4.16,4.94,3.54c1.7-0.47,2.76-1.81,3.07-3.29c0.05-0.3,0.06-0.65-0.08-1.13
						c-1.04-3.68-3.04-6.13-5.71-5.38C534.32,340.56,533.41,343.17,534.28,346.21z"/>
				</g>
			</g>
			
				<linearGradient id="SVGID_6_" gradientUnits="userSpaceOnUse" x1="247.3314" y1="-461.1898" x2="247.3314" y2="-53.951" gradientTransform="matrix(1.1016 -0.2641 0.3498 1.0774 150.8591 541.8237)">
				<stop  offset="0" style="stop-color:#FFFFFF"/>
				<stop  offset="1" style="stop-color:#FFFFFF;stop-opacity:0"/>
			</linearGradient>
			<polygon style="clip-path:url(#SVGID_3_);fill:url(#SVGID_6_);" points="239.77,598.68 119.62,532.22 466.36,-78.44 
				586.51,-11.98 			"/>
			
				<linearGradient id="SVGID_7_" gradientUnits="userSpaceOnUse" x1="810.2007" y1="-148.0869" x2="810.2007" y2="274.9521" gradientTransform="matrix(0.7725 -0.3776 0.0812 0.8561 -162.4016 452.2405)">
				<stop  offset="0" style="stop-color:#FFFFFF"/>
				<stop  offset="1" style="stop-color:#FFFFFF;stop-opacity:0"/>
			</linearGradient>
			<polygon style="clip-path:url(#SVGID_3_);fill:url(#SVGID_7_);" points="332.24,570.45 301.48,553.43 620.36,-8.15 651.12,8.86 
							"/>
			
				<linearGradient id="SVGID_8_" gradientUnits="userSpaceOnUse" x1="3439.0728" y1="-1406.3578" x2="3439.0728" y2="-711.4804" gradientTransform="matrix(0.2843 -0.1156 0.0498 0.3028 -802.0092 909.1385)">
				<stop  offset="0" style="stop-color:#FFFFFF"/>
				<stop  offset="1" style="stop-color:#FFFFFF;stop-opacity:0"/>
			</linearGradient>
			<polygon style="clip-path:url(#SVGID_3_);fill:url(#SVGID_8_);" points="85.79,355.28 73.75,348.63 181.88,158.19 193.92,164.85 
							"/>
		</g>
	</g>
	<g>
		<path class="st26" d="M204.2,502.63c1.04-1.87,2.68-3.12,4.93-3.75c3.01-0.84,5.49-0.46,7.44,1.12c1.08,0.89,1.81,1.89,2.19,2.98
			l-3.78,1.05c-0.48-0.79-0.98-1.35-1.48-1.68c-0.89-0.59-2-0.7-3.32-0.33c-1.35,0.37-2.25,1.22-2.72,2.52
			c-0.46,1.31-0.41,2.96,0.16,4.96c0.57,2,1.41,3.38,2.51,4.15c1.1,0.77,2.29,0.98,3.55,0.63c1.3-0.36,2.16-1.06,2.6-2.11
			c0.24-0.56,0.36-1.34,0.34-2.33l3.75-1.04c0.23,2.03-0.14,3.85-1.13,5.43c-0.98,1.59-2.51,2.67-4.59,3.25
			c-2.57,0.71-4.83,0.45-6.77-0.78c-1.94-1.24-3.33-3.31-4.15-6.19C202.85,507.42,203,504.78,204.2,502.63z"/>
		<path class="st26" d="M228.2,498.63c0.05-0.01,0.15-0.03,0.31-0.07l1.01,3.53c-0.23,0.04-0.43,0.08-0.6,0.12
			c-0.17,0.04-0.31,0.07-0.42,0.1c-1.41,0.39-2.22,1.11-2.45,2.14c-0.12,0.58-0.04,1.4,0.27,2.46l1.8,6.3l-3.52,0.98l-3.76-13.19
			l3.33-0.93l0.66,2.3c0.29-1.03,0.59-1.76,0.9-2.2c0.5-0.72,1.27-1.23,2.32-1.52C228.1,498.65,228.15,498.64,228.2,498.63z"/>
		<path class="st26" d="M239.17,496.2c1.05,0.15,2.01,0.59,2.87,1.31c0.77,0.63,1.39,1.44,1.84,2.43c0.27,0.58,0.55,1.44,0.86,2.59
			l-9.73,2.71c0.43,1.31,1.16,2.11,2.19,2.39c0.63,0.18,1.32,0.17,2.07-0.04c0.8-0.22,1.38-0.6,1.77-1.14
			c0.21-0.29,0.36-0.66,0.46-1.11l3.57-0.99c0.13,0.81-0.08,1.72-0.61,2.74c-0.83,1.62-2.32,2.72-4.48,3.32
			c-1.78,0.49-3.5,0.39-5.17-0.31c-1.67-0.7-2.85-2.27-3.55-4.71c-0.65-2.28-0.54-4.21,0.34-5.77c0.88-1.56,2.3-2.61,4.26-3.16
			C237.01,496.13,238.12,496.05,239.17,496.2z M234.79,500.63c-0.35,0.64-0.47,1.41-0.35,2.3l6.02-1.67
			c-0.32-0.9-0.83-1.51-1.53-1.83c-0.69-0.32-1.45-0.36-2.28-0.13C235.77,499.55,235.14,499.99,234.79,500.63z"/>
		<path class="st26" d="M251.25,492.78c0.73,0.18,1.38,0.52,1.95,1.03l-1.8-6.29l3.54-0.98l5.08,17.81l-3.4,0.94l-0.52-1.83
			c-0.28,0.92-0.68,1.65-1.22,2.18c-0.54,0.53-1.28,0.93-2.23,1.19c-1.56,0.43-3.05,0.18-4.48-0.77c-1.42-0.95-2.41-2.4-2.97-4.35
			c-0.64-2.25-0.62-4.17,0.06-5.75c0.68-1.58,1.9-2.62,3.66-3.11C249.75,492.63,250.52,492.61,251.25,492.78z M254.79,501.94
			c0.31-0.87,0.3-1.88-0.03-3.03c-0.46-1.61-1.2-2.65-2.23-3.12c-0.63-0.28-1.27-0.33-1.94-0.14c-1.02,0.28-1.66,0.87-1.92,1.77
			c-0.26,0.89-0.23,1.91,0.09,3.04c0.35,1.22,0.87,2.12,1.56,2.72c0.7,0.59,1.54,0.75,2.53,0.48
			C253.83,503.38,254.48,502.81,254.79,501.94z"/>
		<path class="st26" d="M260.72,488.22l-0.32,0.09c-0.89,0.25-1.82-0.26-2.07-1.14l0,0c-0.25-0.88,0.27-1.79,1.16-2.04l0.32-0.09
			c0.89-0.25,1.82,0.26,2.07,1.14l0,0C262.13,487.06,261.61,487.98,260.72,488.22z M259.24,490.33l3.54-0.99l3.76,13.19l-3.54,0.99
			L259.24,490.33z"/>
		<path class="st26" d="M265.27,491.44l-0.7-2.46l1.86-0.52l-1.05-3.68l3.46-0.96l1.05,3.68l2.17-0.6l0.7,2.46l-2.17,0.6l1.99,6.97
			c0.15,0.54,0.32,0.86,0.5,0.95c0.18,0.1,0.62,0.04,1.33-0.15c0.11-0.03,0.22-0.06,0.34-0.1c0.12-0.04,0.23-0.08,0.34-0.12
			l0.74,2.58l-1.64,0.52c-1.64,0.52-2.84,0.55-3.63,0.09c-0.51-0.29-0.88-0.84-1.11-1.66l-2.32-8.12L265.27,491.44z"/>
		<path class="st26" d="M291.53,493.88c-0.97,1.77-2.75,3.01-5.33,3.73c-2.58,0.72-4.75,0.57-6.52-0.43
			c-2.32-1.19-3.93-3.39-4.85-6.59c-0.93-3.27-0.72-5.97,0.65-8.12c0.97-1.77,2.74-3.01,5.33-3.73c2.58-0.72,4.75-0.57,6.52,0.44
			c2.29,1.13,3.9,3.33,4.83,6.6C293.08,488.97,292.87,491.67,291.53,493.88z M288.4,491.83c0.57-1.33,0.56-3-0.01-5.01
			c-0.57-2-1.45-3.43-2.64-4.27c-1.19-0.85-2.53-1.06-4.03-0.65c-1.5,0.42-2.53,1.29-3.11,2.63c-0.58,1.34-0.58,3.01-0.01,5.02
			c0.57,2.01,1.46,3.43,2.66,4.28c1.2,0.84,2.55,1.05,4.05,0.64C286.8,494.03,287.83,493.16,288.4,491.83z"/>
		<path class="st26" d="M300.45,479.1c0.73,0.18,1.38,0.52,1.95,1.03l-1.8-6.29l3.54-0.99l5.08,17.81l-3.4,0.94l-0.52-1.83
			c-0.27,0.92-0.68,1.65-1.22,2.18c-0.54,0.53-1.28,0.93-2.23,1.19c-1.56,0.43-3.05,0.18-4.48-0.77c-1.42-0.95-2.41-2.4-2.97-4.35
			c-0.64-2.25-0.62-4.17,0.06-5.75c0.68-1.58,1.9-2.62,3.66-3.11C298.95,478.95,299.72,478.93,300.45,479.1z M303.99,488.26
			c0.31-0.87,0.3-1.88-0.03-3.03c-0.46-1.61-1.2-2.65-2.23-3.12c-0.63-0.28-1.27-0.33-1.94-0.14c-1.02,0.28-1.66,0.87-1.92,1.77
			c-0.26,0.89-0.23,1.91,0.09,3.04c0.35,1.22,0.87,2.12,1.56,2.72c0.69,0.59,1.54,0.75,2.53,0.48
			C303.03,489.7,303.68,489.13,303.99,488.26z"/>
		<path class="st26" d="M315.54,474.91c0.73,0.18,1.38,0.52,1.95,1.03l-1.8-6.29l3.54-0.99l5.08,17.81l-3.4,0.94l-0.52-1.83
			c-0.27,0.92-0.68,1.65-1.22,2.18c-0.54,0.53-1.28,0.93-2.23,1.19c-1.56,0.43-3.05,0.18-4.48-0.77c-1.42-0.95-2.41-2.4-2.97-4.35
			c-0.64-2.25-0.62-4.17,0.06-5.75c0.68-1.58,1.9-2.62,3.66-3.11C314.04,474.76,314.81,474.73,315.54,474.91z M319.08,484.07
			c0.31-0.87,0.3-1.88-0.03-3.03c-0.46-1.61-1.2-2.65-2.23-3.12c-0.63-0.28-1.27-0.33-1.94-0.14c-1.02,0.28-1.66,0.87-1.92,1.77
			c-0.26,0.89-0.23,1.91,0.09,3.04c0.35,1.22,0.87,2.12,1.56,2.72c0.69,0.59,1.54,0.75,2.53,0.48
			C318.12,485.51,318.77,484.94,319.08,484.07z"/>
		<path class="st26" d="M328.75,480.7c0.25,0.59,0.53,0.98,0.85,1.17c0.57,0.34,1.44,0.35,2.61,0.02c0.69-0.19,1.21-0.45,1.56-0.76
			c0.35-0.31,0.47-0.67,0.35-1.08c-0.11-0.39-0.36-0.64-0.74-0.75c-0.39-0.11-1.7-0.12-3.95-0.02c-1.62,0.05-2.83-0.11-3.61-0.5
			c-0.78-0.38-1.31-1.08-1.61-2.11c-0.35-1.22-0.16-2.4,0.56-3.54c0.72-1.15,1.96-1.96,3.72-2.45c1.67-0.46,3.13-0.51,4.37-0.15
			c1.24,0.36,2.17,1.33,2.78,2.9l-3.49,0.97c-0.18-0.43-0.4-0.75-0.68-0.95c-0.52-0.36-1.24-0.41-2.17-0.16
			c-0.76,0.21-1.27,0.48-1.53,0.8c-0.26,0.32-0.34,0.64-0.25,0.96c0.11,0.4,0.37,0.63,0.76,0.72c0.4,0.09,1.7,0.07,3.92-0.06
			c1.48-0.06,2.67,0.13,3.55,0.59c0.88,0.47,1.45,1.2,1.74,2.19c0.37,1.31,0.18,2.51-0.57,3.61c-0.75,1.1-2.16,1.94-4.22,2.51
			c-2.11,0.59-3.78,0.58-5.04-0.02c-1.25-0.6-2.07-1.57-2.46-2.93L328.75,480.7z"/>
	</g>
	<g>
		<g>
			<g>
				<path class="st26" d="M615.59,389.97l-16.5,4.59c-3.86,1.07-7.88-1.15-8.97-4.96l-4.11-14.41c-1.09-3.81,1.16-7.77,5.02-8.85
					l14.6-4.06c3.86-1.07,7.88,1.15,8.97,4.96l0.55,1.91c0.11,0.4-0.12,0.81-0.53,0.93l-2.74,0.76c-0.4,0.11-0.82-0.12-0.94-0.52
					l-0.55-1.91c-0.43-1.52-2.03-2.4-3.57-1.98l-14.6,4.06c-1.54,0.43-2.44,2.01-2,3.53l4.11,14.41c0.43,1.52,2.03,2.4,3.57,1.98
					l16.5-4.59c0.49-0.14,0.78-0.64,0.64-1.12l-1.69-5.94l4.21-1.17l1.69,5.94C620.04,386.3,618.4,389.19,615.59,389.97z"/>
			</g>
			<g>
				<path class="st26" d="M628.75,400.46l-14.6,4.06c-3.86,1.07-7.88-1.15-8.97-4.96l-4.6-16.13c-0.82-2.86,0.87-5.84,3.77-6.64
					l16.34-4.54c3.86-1.07,7.88,1.15,8.97,4.96l4.11,14.41C634.86,395.42,632.61,399.38,628.75,400.46z M605.54,380.94
					c-0.58,0.16-0.91,0.75-0.75,1.32l4.6,16.13c0.43,1.52,2.03,2.4,3.57,1.98l14.6-4.06c1.54-0.43,2.44-2.01,2-3.53l-4.11-14.41
					c-0.43-1.52-2.03-2.4-3.57-1.98L605.54,380.94z"/>
			</g>
		</g>
		<polygon class="st26" points="615.71,382.36 604.38,385.51 603.74,383.24 615.06,380.1 		"/>
	</g>
	<text transform="matrix(0.9755 -0.2669 0.2704 0.9627 417.5204 178.1458)" class="st26 st69 st70">Credit Card</text>
</g>
<circle class="st71" cx="524.22" cy="405.01" r="8.79"/>
<g id="Order_processed_1_">
	<g>
		<g>
			
				<radialGradient id="SVGID_9_" cx="3548.5945" cy="411.2167" r="43.977" gradientTransform="matrix(1 0 0 1 -3022.4941 0)" gradientUnits="userSpaceOnUse">
				<stop  offset="0" style="stop-color:#7535FF"/>
				<stop  offset="0.3096" style="stop-color:#7130F9"/>
				<stop  offset="0.7075" style="stop-color:#6623E9"/>
				<stop  offset="1" style="stop-color:#5A15D9"/>
			</radialGradient>
			<polygon style="fill:url(#SVGID_9_);" points="556.48,465.49 495.72,458.06 495.72,368.46 556.48,356.95 			"/>
			<g>
				
					<radialGradient id="SVGID_10_" cx="3616.0247" cy="411.2167" r="46.4656" gradientTransform="matrix(1 0 0 1 -3022.4941 0)" gradientUnits="userSpaceOnUse">
					<stop  offset="0" style="stop-color:#7535FF"/>
					<stop  offset="0.3096" style="stop-color:#7130F9"/>
					<stop  offset="0.7075" style="stop-color:#6623E9"/>
					<stop  offset="1" style="stop-color:#5A15D9"/>
				</radialGradient>
				<polygon style="fill:url(#SVGID_10_);" points="630.58,460.77 556.48,465.49 556.48,356.95 630.58,367.18 				"/>
			</g>
		</g>
		<g>
			
				<radialGradient id="SVGID_11_" cx="3623.3499" cy="520.3548" r="70.6673" gradientTransform="matrix(1 0 0 1 -3022.4941 0)" gradientUnits="userSpaceOnUse">
				<stop  offset="0" style="stop-color:#7535FF"/>
				<stop  offset="0.3096" style="stop-color:#7130F9"/>
				<stop  offset="0.7075" style="stop-color:#6623E9"/>
				<stop  offset="1" style="stop-color:#5A15D9"/>
			</radialGradient>
			<polygon class="st30" points="657.21,594.96 544.5,602.89 544.5,437.82 657.21,445.75 			"/>
			
				<radialGradient id="SVGID_13_" cx="3520.7986" cy="520.3548" r="66.8825" gradientTransform="matrix(1 0 0 1 -3022.4941 0)" gradientUnits="userSpaceOnUse">
				<stop  offset="0" style="stop-color:#7535FF"/>
				<stop  offset="0.3096" style="stop-color:#7130F9"/>
				<stop  offset="0.7075" style="stop-color:#6623E9"/>
				<stop  offset="1" style="stop-color:#5A15D9"/>
			</radialGradient>
			<polygon style="fill:url(#SVGID_13_);" points="544.5,602.89 452.11,591.59 452.11,448.36 544.5,437.82 			"/>
		</g>
	</g>
	<g>
		
			<linearGradient id="SVGID_14_" gradientUnits="userSpaceOnUse" x1="-4284.1953" y1="376.8509" x2="-4232.4697" y2="624.9142" gradientTransform="matrix(1 0 0 1 4634.1172 0)">
			<stop  offset="0" style="stop-color:#AA80F9"/>
			<stop  offset="0.9964" style="stop-color:#6165D7"/>
		</linearGradient>
		<path class="st41" d="M374.3,384.65c5.21-5.56-9.2-26.44-16.92-35.58c-6.74-7.99-13.66-16.21-22.17-15.17
			c-7.47,0.91-14.73,8.79-15.17,16.33C318.88,370.54,366.9,392.55,374.3,384.65z"/>
		
			<linearGradient id="SVGID_15_" gradientUnits="userSpaceOnUse" x1="382.6551" y1="534.421" x2="400.5724" y2="534.421" gradientTransform="matrix(-0.9996 0.0289 0.0289 0.9996 695.421 57.5919)">
			<stop  offset="0" style="stop-color:#444B8C"/>
			<stop  offset="0.9964" style="stop-color:#26264F"/>
		</linearGradient>
		<path style="fill:url(#SVGID_15_);" d="M311.8,599.19c-0.98,0.8-1.16,2.79-1.28,4.09c-0.05,0.58-0.08,0.87-0.01,1.08
			c0.47,1.5,3.38,1.65,7.93,2.12c7.19,0.73,9.33,1.3,9.89,0.23c0.53-1-0.75-2.64-0.89-2.83c-0.77-0.97-1.72-1.33-3.55-1.93
			c-3.39-1.12-5.68-1.73-6.38-1.91C313.17,598.88,312.45,598.67,311.8,599.19z"/>
		
			<linearGradient id="SVGID_16_" gradientUnits="userSpaceOnUse" x1="88.4813" y1="597.2038" x2="94.9048" y2="597.2038" gradientTransform="matrix(-1 0 0 1 405.2811 0)">
			<stop  offset="0" style="stop-color:#FFC444"/>
			<stop  offset="0.9964" style="stop-color:#F36F56"/>
		</linearGradient>
		<path style="fill:url(#SVGID_16_);" d="M316.08,592.62l0.72,8.19c-0.2,0.4-2.64,1.58-4.57,0.56l-1.85-8.05L316.08,592.62z"/>
		
			<linearGradient id="SVGID_17_" gradientUnits="userSpaceOnUse" x1="778.4329" y1="-67.4276" x2="797.4688" y2="-67.4276" gradientTransform="matrix(-0.9642 0.2651 0.2651 0.9642 1154.962 456.5768)">
			<stop  offset="0" style="stop-color:#444B8C"/>
			<stop  offset="0.9964" style="stop-color:#26264F"/>
		</linearGradient>
		<path style="fill:url(#SVGID_17_);" d="M368.83,598.14c-1.17,1.3-1.44,3.68-0.42,4.86c1,1.16,2.51,0.29,6.79,0.42
			c4.59,0.14,5.78,1.22,8.9,0.36c1.26-0.35,3.48-1.19,3.44-2.09c-0.03-0.63-1.16-0.96-4.94-2.23c-5.37-1.8-5.34-1.9-6.48-2.08
			C373.26,596.9,370.38,596.43,368.83,598.14z"/>
		
			<linearGradient id="SVGID_18_" gradientUnits="userSpaceOnUse" x1="31.2111" y1="595.0831" x2="39.1447" y2="595.0831" gradientTransform="matrix(-1 0 0 1 405.2811 0)">
			<stop  offset="0" style="stop-color:#FFC444"/>
			<stop  offset="0.9964" style="stop-color:#F36F56"/>
		</linearGradient>
		<path class="st63" d="M371.77,590.66l2.3,7.65c-0.17,0.41-2.51,1.78-4.52,0.91l-3.42-7.42L371.77,590.66z"/>
		
			<linearGradient id="SVGID_20_" gradientUnits="userSpaceOnUse" x1="-4253.8477" y1="566.9413" x2="-4304.6201" y2="452.4882" gradientTransform="matrix(1 0 0 1 4634.1172 0)">
			<stop  offset="0" style="stop-color:#40447E"/>
			<stop  offset="0.9964" style="stop-color:#3C3B6B"/>
		</linearGradient>
		<path style="fill:url(#SVGID_20_);" d="M351.34,423.12c0.33,25.71,2.08,54.62,6.29,86.02c4.16,31.04,9.99,59.09,16.35,83.75
			c-2.93,0.79-5.87,1.58-8.8,2.37c-7.44-6.94-16.83-17.87-21.37-33.31c-2.81-9.58-1.88-14.51-3.66-26.3
			c-2.84-18.77-8.59-28.6-14.54-43.74c-5.34-13.6-11.66-33.56-15.05-60.24C324.16,428.82,337.75,425.97,351.34,423.12z"/>
		
			<linearGradient id="SVGID_21_" gradientUnits="userSpaceOnUse" x1="-4597.2222" y1="293.9419" x2="-4647.9937" y2="179.4908" gradientTransform="matrix(0.9925 -0.1225 0.1225 0.9925 4882.0698 -282.5334)">
			<stop  offset="0" style="stop-color:#40447E"/>
			<stop  offset="0.9964" style="stop-color:#3C3B6B"/>
		</linearGradient>
		<path class="st65" d="M324.85,420.67c-1.8,32.7-3.27,66-4.39,99.9c-0.84,25.44-1.46,50.55-1.87,75.33c-3,0.37-5.99,0.74-8.99,1.11
			c-2.9-5.39-6.74-13.64-9.38-24.2c-3.2-12.83-2.46-20.45-3.86-33.75c-1.57-14.92-3.86-18.17-7.91-36.98
			c-8.22-38.19-12.34-57.28-3.16-69.16C288.26,429.05,297.6,419.38,324.85,420.67z"/>
		
			<linearGradient id="SVGID_22_" gradientUnits="userSpaceOnUse" x1="-4331.1606" y1="386.6439" x2="-4279.4351" y2="634.7062" gradientTransform="matrix(1 0 0 1 4634.1172 0)">
			<stop  offset="0" style="stop-color:#AA80F9"/>
			<stop  offset="0.9964" style="stop-color:#6165D7"/>
		</linearGradient>
		<path style="fill:url(#SVGID_22_);" d="M281.17,338.49c7.02-1.97,17.31-4.28,29.9-4.99c17.97-1.02,26.95-1.52,33.32,2.76
			c14.7,9.88,3.32,32.69,9.34,89.24c0.86,8.07,1.05,16.21,1.67,24.3c1.03,13.41,1.27,14.13,0.33,15.49
			c-5.85,8.52-27.67-4.33-59.66,0.75c-17.9,2.84-26.01,9.39-30.92,4.67c-5.72-5.51-0.81-20.32,3.41-33.07
			c4.85-14.64,7.84-14.82,10.59-25.85c2.88-11.52,1.14-17.45,0.69-35.62C279.64,367.46,279.69,354.53,281.17,338.49z"/>
		<g class="st84">
			
				<linearGradient id="SVGID_23_" gradientUnits="userSpaceOnUse" x1="-4345.3389" y1="543.4165" x2="-4322.6333" y2="435.5644" gradientTransform="matrix(1 0 0 1 4634.1172 0)">
				<stop  offset="0" style="stop-color:#AA80F9"/>
				<stop  offset="0.9964" style="stop-color:#6165D7"/>
			</linearGradient>
			<path style="fill:url(#SVGID_23_);" d="M324.67,444.64c-8.36-0.65-13.78,4.07-21,0.39c-9.9-5.05-13.08-20.77-12.44-31.89
				c0.96-16.9,10.61-21.35,8.94-32.28c-0.9-5.91-5.12-13.75-20.26-21.76c-0.2,6.74-0.16,12.49-0.05,17.06
				c0.45,18.17,2.19,24.1-0.69,35.62c-2.75,11.02-5.74,11.21-10.59,25.85c-4.22,12.75-9.13,27.56-3.41,33.07
				c4.9,4.72,13.02-1.82,30.92-4.67c27.56-4.38,47.57,4.55,56.32,1.65C341.82,450.2,332.23,445.23,324.67,444.64z"/>
		</g>
		
			<linearGradient id="SVGID_24_" gradientUnits="userSpaceOnUse" x1="-4364.6958" y1="364.2782" x2="-4323.7803" y2="560.5005" gradientTransform="matrix(1 0 0 1 4634.1172 0)">
			<stop  offset="0" style="stop-color:#AA80F9"/>
			<stop  offset="0.9964" style="stop-color:#6165D7"/>
		</linearGradient>
		<path style="fill:url(#SVGID_24_);" d="M292.57,339.65c-5.97-4.91-17.98,0.65-21.19,2.13c-17.9,8.28-33.96,30.59-29.98,54.16
			c0.6,3.54,3.37,20.07,17.37,28.09c12.64,7.23,29.7,5.37,43.37-4.87c1.87-1.66,3.74-3.32,5.6-4.97c1.84-1.99,3.68-3.97,5.51-5.96
			c-2.89-2.4-7.8-5.87-14.69-8.09c-9.09-2.93-15.71,2.33-19.92-1.67c-2.91-2.76-2.92-7.64-2.2-10.59c1.45-5.96,6.7-7.63,11.08-11.86
			C297.82,366.07,299.72,345.52,292.57,339.65z"/>
		<g>
			
				<linearGradient id="SVGID_25_" gradientUnits="userSpaceOnUse" x1="-4283.8662" y1="449.6938" x2="-4293.5474" y2="422.2638" gradientTransform="matrix(1 0 0 1 4634.1172 0)">
				<stop  offset="0" style="stop-color:#311944"/>
				<stop  offset="1" style="stop-color:#893976"/>
			</linearGradient>
			<polygon class="st72" points="378.38,416.61 298.35,415.41 319.63,425.68 378.58,421.82 			"/>
			
				<linearGradient id="SVGID_26_" gradientUnits="userSpaceOnUse" x1="-4326.1587" y1="409.9519" x2="-4322.6089" y2="434.4776" gradientTransform="matrix(1 0 0 1 4634.1172 0)">
				<stop  offset="0" style="stop-color:#311944"/>
				<stop  offset="1" style="stop-color:#893976"/>
			</linearGradient>
			<path class="st73" d="M295.52,417.54L295.52,417.54c0,1.5,0.94,2.84,2.34,3.35l25.57,10.03l0.12-6.95l-25.21-8.55
				C296.93,415.01,295.52,416.07,295.52,417.54z"/>
		</g>
		
			<linearGradient id="SVGID_27_" gradientUnits="userSpaceOnUse" x1="77.4275" y1="413.8018" x2="97.4898" y2="413.8018" gradientTransform="matrix(-1 0 0 1 405.2811 0)">
			<stop  offset="0" style="stop-color:#FFC444"/>
			<stop  offset="0.9964" style="stop-color:#F36F56"/>
		</linearGradient>
		<path class="st74" d="M307.85,412.8c-0.49-0.11,2.39-5.86,4.66-5.19c2.26,0.66,13.34,7.08,14.34,9.72
			c1.01,2.64,1.01,2.64,1.01,2.64s-4.83,0.38-7.83-0.63C317.03,418.34,311.84,413.69,307.85,412.8z"/>
		<g>
			<g>
				
					<linearGradient id="SVGID_28_" gradientUnits="userSpaceOnUse" x1="-4255.8218" y1="412.1" x2="-4274.6968" y2="385.2979" gradientTransform="matrix(1 0 0 1 4634.1172 0)">
					<stop  offset="0" style="stop-color:#444B8C"/>
					<stop  offset="0.9964" style="stop-color:#26264F"/>
				</linearGradient>
				<path class="st75" d="M325.68,375.2l-5.64,51.36c-0.19,1.77,2.29,4.41,4.07,4.33l82.76-5.08c1.36-0.06,2.49-1.07,2.72-2.41
					l10.39-49.61c0.31-1.81-2.94-3.67-4.77-3.62l-86.72,2.44C327.03,372.65,325.84,373.76,325.68,375.2z"/>
				
					<linearGradient id="SVGID_29_" gradientUnits="userSpaceOnUse" x1="-4292.0269" y1="456.4571" x2="-4250.7207" y2="372.5534" gradientTransform="matrix(1 0 0 1 4634.1172 0)">
					<stop  offset="0" style="stop-color:#311944"/>
					<stop  offset="1" style="stop-color:#893976"/>
				</linearGradient>
				<path class="st76" d="M327.57,376.69l-5.64,51.36c-0.19,1.77,1.24,3.3,3.02,3.22l83.8-3.97c1.36-0.06,2.49-1.07,2.72-2.41
					l8.56-49.83c0.31-1.81-1.11-3.44-2.94-3.39l-86.72,2.44C328.93,374.15,327.73,375.25,327.57,376.69z"/>
			</g>
			
				<linearGradient id="SVGID_30_" gradientUnits="userSpaceOnUse" x1="-4312.2051" y1="402.6049" x2="-4221.4604" y2="402.6049" gradientTransform="matrix(1 0 0 1 4634.1172 0)">
				<stop  offset="0" style="stop-color:#311944"/>
				<stop  offset="1" style="stop-color:#893976"/>
			</linearGradient>
			<path style="opacity:0.3;fill:url(#SVGID_30_);" d="M376.78,415.27c-7.32-3.1-4.73-9.02-13.38-16.38
				c-11.4-9.72-23.02-5.51-27.09-13.04c-1.27-2.35-1.87-6,0.33-11.91l-6.28,0.18c-1.45,0.04-2.64,1.14-2.8,2.58l-5.64,51.36
				c-0.19,1.77,1.24,3.3,3.02,3.22l83.8-3.97c1.36-0.06,2.49-1.07,2.72-2.41l1.18-6.88c-2.54-1.42-5.58-2.7-9.13-3.42
				C391.24,412.11,385.2,418.84,376.78,415.27z"/>
		</g>
		
			<linearGradient id="SVGID_31_" gradientUnits="userSpaceOnUse" x1="-8.7855" y1="424.0641" x2="4.7491" y2="424.0641" gradientTransform="matrix(-1 0 0 1 405.2811 0)">
			<stop  offset="0" style="stop-color:#FFC444"/>
			<stop  offset="0.9964" style="stop-color:#F36F56"/>
		</linearGradient>
		<path class="st78" d="M414.03,420.12c0.14-0.41-0.15-0.84-0.59-0.86c-1.77-0.09-5.88-0.13-8.15,1.26c-2.95,1.8-6.76,5.1-3.55,6.76
			l3,1.55c0.14,0.07,0.29,0.09,0.44,0.06c1.06-0.23,5.54-1.23,6.03-1.47C411.66,427.19,413.37,422.12,414.03,420.12z"/>
		<g>
			
				<linearGradient id="SVGID_32_" gradientUnits="userSpaceOnUse" x1="93.7323" y1="313.9124" x2="90.2718" y2="372.7409" gradientTransform="matrix(-1 0 0 1 405.2811 0)">
				<stop  offset="0" style="stop-color:#FFC444"/>
				<stop  offset="0.9964" style="stop-color:#F36F56"/>
			</linearGradient>
			<path class="st79" d="M312.42,313.86c0.04,5.33-0.55,9.55-1.11,12.44c-0.64,3.31-1.11,4.17-1.7,4.87
				c-0.89,1.05-2.24,1.92-9.88,3.82c-4.15,1.03-4.69,1-4.78,1.41c-0.45,2.01,10.88,8.86,22.58,7.21c7.16-1.01,13.68-5.1,13.28-7.24
				c-0.4-2.16-7.56-1-9.69-4.91c-1.48-2.72,0.18-6.58,2.14-9.77C321.36,318.13,314.32,317.43,312.42,313.86z"/>
			<g>
				
					<linearGradient id="SVGID_33_" gradientUnits="userSpaceOnUse" x1="183.6513" y1="165.8934" x2="170.1018" y2="131.48" gradientTransform="matrix(-1 3.700000e-03 3.700000e-03 1 488.8252 174.3674)">
					<stop  offset="0" style="stop-color:#311944"/>
					<stop  offset="1" style="stop-color:#6B3976"/>
				</linearGradient>
				<path class="st80" d="M325.71,315.97c1.69-2.25,1.79-6.17-0.15-8.64c-1.68-2.13-4.31-2.44-5.89-2.62
					c-4.58-0.53-10.35,1.38-12.36,5.59c-1.19,2.5,1.38,7.68,1.79,8.61c0.46,1.05,1.28,1.42,2.05,2.21c1.06,1.11,2.72,2.86,5.43,5.8
					c0.21-0.87,0.53-1.94,1.04-3.1c0.2-0.45,0.98-2.2,2.17-3.65C322.17,317.27,324.11,318.1,325.71,315.97z"/>
				
					<linearGradient id="SVGID_34_" gradientUnits="userSpaceOnUse" x1="78.7879" y1="321.0847" x2="96.1477" y2="321.0847" gradientTransform="matrix(-1 0 0 1 405.2811 0)">
					<stop  offset="0" style="stop-color:#FFC444"/>
					<stop  offset="0.9964" style="stop-color:#F36F56"/>
				</linearGradient>
				<path class="st81" d="M312.71,324.46c0,0,3.01,4.93,9,4.55c5.36-0.35,6.15-12.37,2.72-14.93c-1.14-0.85-3.43-1.2-5.29-0.68
					c-1.1,0.31-1.47,0.76-3.28,1.23c-1.67,0.43-2.14,0.25-2.64,0.67c-0.63,0.53-1.09,1.83-0.04,5.34c-1.02-1.04-2.25-1.43-3.12-1.02
					c-0.14,0.07-0.51,0.32-0.71,0.7C308.6,321.68,309.85,323.44,312.71,324.46z"/>
				
					<linearGradient id="SVGID_35_" gradientUnits="userSpaceOnUse" x1="179.5121" y1="167.5412" x2="165.9488" y2="133.093" gradientTransform="matrix(-1 3.700000e-03 3.700000e-03 1 488.8252 174.3674)">
					<stop  offset="0" style="stop-color:#311944"/>
					<stop  offset="1" style="stop-color:#6B3976"/>
				</linearGradient>
				<path class="st82" d="M312.98,314.58c0.26,0.19-0.53,1.16-0.59,2.52c-0.11,2.65,2.57,5.83,5.31,6.1
					c1.62,0.16,2.06-0.82,4.74-1.1c1.66-0.17,3.03,0.04,3.9,0.23c0.84,2.91,0.05,5.81-1.89,7.15c-2.09,1.45-4.76,0.57-5.88,0.2
					c-0.75-0.25-3.14-1.03-4.39-3.22c-1.3-2.29-0.02-3.67-1.52-5.22c-0.75-0.78-1.75-1.12-2.71-2.63c-0.26-0.41-0.44-0.77-0.54-1.02
					C310.77,316.12,312.6,314.3,312.98,314.58z"/>
				
					<linearGradient id="SVGID_36_" gradientUnits="userSpaceOnUse" x1="80.4572" y1="324.0678" x2="84.2724" y2="324.0678" gradientTransform="matrix(-1 0 0 1 405.2811 0)">
					<stop  offset="0" style="stop-color:#FFC444"/>
					<stop  offset="0.9964" style="stop-color:#F36F56"/>
				</linearGradient>
				<path class="st83" d="M324.39,323.4c0,0-1.16,0.61-3.16,0.49c-0.1-0.01-0.2,0.02-0.22,0.07c-0.05,0.19,1.24,1.04,2.42,0.71
					c0.84-0.24,1.49-1.03,1.38-1.23C324.76,323.36,324.57,323.37,324.39,323.4z"/>
			</g>
		</g>
	</g>
	<g>
		<linearGradient id="SVGID_37_" gradientUnits="userSpaceOnUse" x1="559.1343" y1="257.1172" x2="702.0325" y2="257.1172">
			<stop  offset="0" style="stop-color:#AA80F9"/>
			<stop  offset="0.9964" style="stop-color:#6165D7"/>
		</linearGradient>
		<path class="st85" d="M702.03,252.56c0,39.51-31.84,73.67-71.23,76.3c-39.53,2.64-71.67-27.44-71.67-67.19
			s32.14-73.93,71.67-76.33C670.2,182.96,702.03,213.05,702.03,252.56z"/>
		<path class="st26" d="M628.29,295.93c-3.1,0.2-5.98-1.24-7.58-3.81l-26.93-43.25c-2.52-4.05-1.16-9.6,3.04-12.4
			c4.2-2.79,9.64-1.77,12.16,2.28l18.68,30.02l24.65-50.2c2.21-4.5,7.53-6.57,11.87-4.62c4.34,1.95,6.07,7.19,3.86,11.69
			l-31.85,64.92c-1.46,2.97-4.36,5.02-7.57,5.34C628.49,295.92,628.39,295.93,628.29,295.93z"/>
	</g>
</g>
<circle class="st100" cx="578.04" cy="490.85" r="16.84"/>
<circle class="st100" cx="626.35" cy="490.85" r="16.84"/>
<circle class="st100" cx="579.65" cy="550.34" r="16.84"/>
<circle class="st100" cx="626.35" cy="548.31" r="16.84"/>
<circle class="st100" cx="584.02" cy="387.84" r="8.38"/>
<circle class="st100" cx="607.98" cy="389.63" r="8.38"/>
<circle class="st100" cx="582.61" cy="417.41" r="8.38"/>
<circle class="st100" cx="605.85" cy="418.13" r="8.38"/>
<circle class="st100" cx="524.22" cy="405.01" r="8.79"/>
<circle class="st100" cx="498.3" cy="522.22" r="19.19"/>
</svg>
