<?xml version="1.0" encoding="utf-8"?>
<!-- Generator: Adobe Illustrator 24.1.0, SVG Export Plug-In . SVG Version: 6.00 Build 0)  -->
<svg version="1.1" id="Layer_1" xmlns="http://www.w3.org/2000/svg" xmlns:xlink="http://www.w3.org/1999/xlink" x="0px" y="0px"
	 viewBox="0 0 800 719" style="enable-background:new 0 0 800 719;" xml:space="preserve">
<style type="text/css">
	.st0{fill:url(#SVGID_1_);}
	.st1{fill:#606060;}
	.st2{fill:#222222;}
	.st3{fill:#3D46A2;}
	.st4{fill:#F4F4F4;}
	.st5{opacity:0.4;fill:#D5D5D5;}
	.st6{fill:#A8A8A8;}
	.st7{fill:#919191;}
	.st8{fill:#797979;}
	.st9{fill:#424242;}
	.st10{clip-path:url(#SVGID_3_);fill:#A8A8A8;}
	.st11{clip-path:url(#SVGID_3_);fill:#424242;}
	.st12{clip-path:url(#SVGID_3_);fill:#919191;}
	.st13{clip-path:url(#SVGID_3_);fill:#D5D5D5;}
	.st14{fill:#C8D5DB;}
	.st15{fill:#504DE1;}
	.st16{opacity:0.18;fill:#FFFFFF;}
	.st17{fill:#BFBFBF;}
	.st18{fill:url(#SVGID_4_);}
	.st19{fill:#040B38;}
	.st20{clip-path:url(#SVGID_6_);}
	.st21{fill:#FFB831;}
	.st22{fill:url(#SVGID_7_);}
	.st23{fill:none;stroke:#EEEFF2;stroke-width:0.9795;stroke-miterlimit:10;}
	.st24{fill:#EEEFF2;}
	.st25{opacity:0.77;}
	.st26{fill:#FFFFFF;}
	.st27{clip-path:url(#SVGID_6_);fill:url(#SVGID_8_);}
	.st28{clip-path:url(#SVGID_6_);fill:url(#SVGID_9_);}
	.st29{clip-path:url(#SVGID_6_);fill:url(#SVGID_10_);}
	.st30{font-family:'Helvetica-Bold';}
	.st31{font-size:16.1402px;}
	.st32{fill:url(#SVGID_11_);}
	.st33{fill:#252563;}
	.st34{fill:#4848B5;}
	.st35{fill:#3737DD;}
	.st36{fill:#103975;}
	.st37{fill:#E11D8D;}
	.st38{fill:#977BF3;}
	.st39{fill:#D2CAF9;}
	.st40{fill:#FD6BCD;}
	.st41{fill:#ECEBE4;}
	.st42{clip-path:url(#SVGID_13_);}
	.st43{fill:url(#SVGID_14_);}
	.st44{clip-path:url(#SVGID_13_);fill:url(#SVGID_15_);}
	.st45{clip-path:url(#SVGID_13_);fill:url(#SVGID_16_);}
	.st46{clip-path:url(#SVGID_13_);fill:url(#SVGID_17_);}
	.st47{fill:#3E3EB5;}
	.st48{fill:#11141B;}
	.st49{fill:#6671C6;}
	.st50{fill:#757ED8;}
	.st51{fill:#F7AE30;}
	.st52{fill:#B36DFC;}
	.st53{fill:#140B35;}
	.st54{fill:#C095F9;}
	.st55{fill:#F8AC2B;}
	.st56{fill:#31DCEE;}
	.st57{fill:#868BE9;}
	.st58{fill:#171B23;}
	.st59{fill:#7F6AE2;}
	.st60{fill:#1E0F46;}
	.st61{fill:#7A92CE;}
	.st62{fill:#191D26;}
	.st63{fill:#EAEAE8;}
	.st64{fill:#F9F9F9;}
	.st65{fill:url(#SVGID_18_);}
	.st66{clip-path:url(#SVGID_20_);}
	.st67{fill:url(#SVGID_21_);}
	.st68{clip-path:url(#SVGID_20_);fill:url(#SVGID_22_);}
	.st69{clip-path:url(#SVGID_20_);fill:url(#SVGID_23_);}
	.st70{clip-path:url(#SVGID_20_);fill:url(#SVGID_24_);}
	.st71{fill:#E8890C;}
	.st72{fill:url(#SVGID_25_);}
	.st73{fill:url(#SVGID_26_);}
	.st74{fill:url(#SVGID_27_);}
	.st75{fill:url(#SVGID_28_);}
	.st76{fill:url(#SVGID_29_);}
	.st77{fill:url(#SVGID_30_);}
	.st78{fill:url(#SVGID_31_);}
	.st79{fill:url(#SVGID_32_);}
	.st80{fill:url(#SVGID_33_);}
	.st81{fill:url(#SVGID_34_);}
	.st82{fill:url(#SVGID_35_);}
	.st83{fill:url(#SVGID_36_);}
	.st84{opacity:0.3;}
	.st85{fill:url(#SVGID_37_);}
	.st86{fill:url(#SVGID_38_);}
	.st87{fill:url(#SVGID_39_);}
	.st88{fill:url(#SVGID_40_);}
	.st89{fill:url(#SVGID_41_);}
	.st90{fill:url(#SVGID_42_);}
	.st91{fill:url(#SVGID_43_);}
	.st92{opacity:0.3;fill:url(#SVGID_44_);}
	.st93{fill:url(#SVGID_45_);}
	.st94{fill:url(#SVGID_46_);}
	.st95{fill:url(#SVGID_47_);}
	.st96{fill:url(#SVGID_48_);}
	.st97{fill:url(#SVGID_49_);}
	.st98{fill:url(#SVGID_50_);}
	.st99{fill:url(#SVGID_51_);}
	.st100{fill:#2D2691;}
</style>
<radialGradient id="SVGID_1_" cx="337.2452" cy="349.9837" r="489.253" gradientTransform="matrix(1 0 0 1.0032 0 -2.3182)" gradientUnits="userSpaceOnUse">
	<stop  offset="0" style="stop-color:#7535FF"/>
	<stop  offset="1" style="stop-color:#242A6D"/>
</radialGradient>
<rect x="1" class="st0" width="798.94" height="718.77"/>
<g>
	<path class="st1" d="M300.69,365.34l210.05-55.35c0.85-0.22,1.63-0.59,2.3-1.06c2.34-1.63,3.55-4.57,2.84-7.47l-47.44-193.95
		c-1.26-5.16-7.12-7.78-11.88-5.29l-191.74,99.91c-1.63,0.85-2.91,2.13-3.74,3.66c-1.01,1.83-1.37,4.01-0.88,6.16l33.13,148.96
		C294.06,364.19,297.41,366.21,300.69,365.34z"/>
	<path class="st2" d="M298.13,364.39l210.05-55.35c0.85-0.22,1.63-0.59,2.3-1.06c0.02-0.01,0.02-0.02,0.04-0.03
		c2.31-1.64,3.5-4.55,2.8-7.44l-47.44-193.95c-0.54-2.23-1.95-3.99-3.76-5.06c-2.36-1.41-5.41-1.65-8.12-0.24l-191.74,99.91
		c-1.63,0.85-2.91,2.13-3.74,3.66c-1.01,1.83-1.37,4.01-0.88,6.16l33.13,148.96C291.5,363.25,294.84,365.26,298.13,364.39z"/>
	<polygon class="st3" points="458.84,123.35 268.62,218.25 297.95,349.29 499.14,289.12 	"/>
	<polygon class="st4" points="159.76,469.52 167.53,468.24 208.56,461.49 381.99,432.91 383.78,432.62 477.49,342.8 494.49,326.5 
		511.33,310.35 512.27,309.45 509.03,310.3 457.21,323.78 298.48,365.1 295.56,365.87 267.06,387.61 248.84,401.52 193.17,444.02 	
		"/>
	<path class="st5" d="M267.06,387.61c91.21-4.03,206.21-58.11,244.26-77.26l0.95-0.9l-3.24,0.85l-51.82,13.48L298.48,365.1
		l-2.92,0.76L267.06,387.61z"/>
	<path class="st6" d="M159.76,469.52c3.18,4.32,8.55,6.52,13.89,5.72l207.91-31.3c2.25-0.34,4.44-1.02,6.48-1.99
		c2.03-0.98,3.93-2.26,5.6-3.79l125.11-115.58l-6.48-13.13L383.5,432.76L159.76,469.52z"/>
	<path class="st7" d="M383.5,432.76l4.54,9.19c2.03-0.98,3.93-2.26,5.6-3.79l125.11-115.58l-6.48-13.13L383.5,432.76z"/>
	<path class="st8" d="M471.91,339.41l-47.25,44.14c-0.77,0.72-1.73,1.21-2.77,1.43l-185.26,37.84c-1.37,0.28-2.17-1.48-1.04-2.3
		l52.44-38.31c0.61-0.45,1.31-0.77,2.05-0.95l180.61-44.04C472,336.91,472.88,338.51,471.91,339.41z"/>
	<polygon class="st9" points="452.75,373.31 444.17,381.32 446.54,386.13 455.05,377.97 	"/>
	<polygon class="st9" points="441.16,384.23 432.57,392.24 434.95,397.05 443.46,388.88 	"/>
	<polygon class="st9" points="429.77,394.96 421.19,402.97 423.56,407.78 432.07,399.62 	"/>
	<g>
		<defs>
			<path id="SVGID_2_" d="M471.55,338.7l-47.25,44.14c-0.77,0.72-1.73,1.21-2.77,1.43L236.28,422.1c-1.37,0.28-2.17-1.48-1.04-2.3
				l52.44-38.31c0.61-0.45,1.31-0.77,2.05-0.95l180.61-44.04C471.64,336.19,472.53,337.79,471.55,338.7z"/>
		</defs>
		<clipPath id="SVGID_3_">
			<use xlink:href="#SVGID_2_"  style="overflow:visible;"/>
		</clipPath>
		<path class="st10" d="M471.55,338.7l-47.25,44.14c-0.77,0.72-1.73,1.21-2.77,1.43L236.28,422.1c-1.37,0.28-2.17-1.48-1.04-2.3
			l52.44-38.31c0.61-0.45,1.31-0.77,2.05-0.95l180.61-44.04C471.64,336.19,472.53,337.79,471.55,338.7z"/>
		<path class="st11" d="M471.55,338.7l-47.25,44.14c-0.77,0.72-1.73,1.21-2.77,1.43L236.28,422.1c-1.37,0.28-2.17-1.48-1.04-2.3
			l52.44-38.31c0.61-0.45,1.31-0.77,2.05-0.95l180.61-44.04C471.64,336.19,472.53,337.79,471.55,338.7z"/>
		<path class="st12" d="M424.91,368.88l18.9-4.26l1.32-1.24l-18.8,4.24l8.58-7.62l18.24-4.12l1.32-1.24l-18.15,4.09l8.25-7.32
			l17.77-4.13l1.34-1.25l-17.67,4.1l11.97-10.63l-1.91,0.47l-11.94,10.6l-15.87,3.68l11.65-10.34l-1.91,0.47l-11.61,10.31
			l-13.92,3.23l11.7-10.17l-1.95,0.48l-11.67,10.14l-13.87,3.22l11.75-10l-1.99,0.48l-11.71,9.97l-13.83,3.21l11.79-9.82l-2.03,0.49
			l-11.75,9.79l-13.78,3.2l11.82-9.65l-2.07,0.51l-11.78,9.61l-13.72,3.19l11.84-9.47l-2.12,0.52l-11.8,9.43l-13.67,3.17l11.85-9.29
			l-2.16,0.53l-11.81,9.25l-13.62,3.16l11.85-9.1l-2.21,0.54l-11.8,9.07l-13.56,3.15l11.84-8.92l-2.26,0.55l-11.79,8.88l-13.5,3.14
			l11.82-8.73l-2.31,0.56l-11.77,8.69l-7.38,1.71l-1.88,1.38l7.41-1.72l-8.58,6.33l-7.45,1.68l-1.86,1.36l7.47-1.69l-11.08,8.19
			l-7.65,1.73l-1.86,1.36l7.68-1.73l-7.83,5.78l-7.55,1.58l-1.79,1.31l7.58-1.58l-11.28,8.33l2.14-0.44l11.29-8.34l13.86-2.89
			l-11.11,8.36l2.1-0.43l11.12-8.38l13.92-2.91l-10.94,8.4l2.06-0.42l10.95-8.41l13.99-2.92l-10.77,8.44l2.02-0.41l10.78-8.45
			l14.05-2.93l-10.6,8.48l1.98-0.4l10.62-8.49l14.11-2.95l-10.43,8.51l1.94-0.4l10.45-8.53l14.17-2.96l-10.26,8.55l1.9-0.39
			l10.28-8.56l14.23-2.97l-10.1,8.59l1.87-0.38l10.11-8.6l14.28-2.98l-9.93,8.63l1.83-0.37l9.94-8.64l14.34-2.99l-9.74,8.64
			l0.01,0.02l1.76-0.36l9.77-8.68l15.32-3.2l-9.87,8.77l1.8-0.37l9.89-8.78l19.2-4.01l1.29-1.2l-19.11,3.99l-1.81,0.38l-15.32,3.2
			l9.8-8.7l15.71-3.54L424.91,368.88z M287.85,393.19l-10.78,8.12l-13.98,3.16l11.08-8.19L287.85,393.19z M390.66,375.67
			l-14.31,3.23l9.09-7.74l14.05-3.17L390.66,375.67z M401.39,367.57l14.1-3.18l-8.58,7.62l-14.35,3.24L401.39,367.57z
			 M374.42,379.34l-14.27,3.22l9.36-7.8l14-3.16L374.42,379.34z M358.19,383l-14.22,3.21l9.63-7.86l13.95-3.15L358.19,383z
			 M341.96,386.66l-14.18,3.2l9.9-7.92l13.9-3.14L341.96,386.66z M325.73,390.32l-14.13,3.19l10.19-7.98l13.85-3.12L325.73,390.32z
			 M309.51,393.98l-14.08,3.18l10.48-8.05l13.79-3.11L309.51,393.98z M293.29,397.64l-14.03,3.17l10.78-8.12l13.74-3.1
			L293.29,397.64z M298.16,385.42l-8.54,6.43L276,394.92l8.61-6.35L298.16,385.42z M313.99,381.74l-8.49,6.52l-13.69,3.09l8.56-6.45
			L313.99,381.74z M329.82,378.07l-8.44,6.61l-13.74,3.1l8.52-6.54L329.82,378.07z M345.65,374.39l-8.39,6.71l-13.8,3.11l8.46-6.63
			L345.65,374.39z M361.5,370.71l-8.33,6.8l-13.85,3.13l8.41-6.72L361.5,370.71z M377.35,367.03l-8.26,6.89l-13.91,3.14l8.35-6.81
			L377.35,367.03z M393.22,363.35l-8.2,6.97l-13.96,3.15l8.29-6.9L393.22,363.35z M409.08,359.66l-8.13,7.06l-14.01,3.16l8.22-6.99
			L409.08,359.66z M424.96,355.98l-8.05,7.15l-14.06,3.17l8.15-7.08L424.96,355.98z M434.47,359.16l-15.71,3.54l8.07-7.17
			l15.87-3.68L434.47,359.16z M424.47,368.04l-15.71,3.54l8.58-7.62l15.71-3.54L424.47,368.04z M381.44,384.91l9.66-8.39l14.39-3.25
			l-9.75,8.66L381.44,384.91z M365.35,388.26l9.51-8.09l14.35-3.24l-9.61,8.35L365.35,388.26z M349.28,391.62l9.33-7.78l14.31-3.23
			l-9.45,8.04L349.28,391.62z M333.23,394.97l9.14-7.46l14.27-3.22l-9.28,7.73L333.23,394.97z M317.21,398.31l8.94-7.15l14.22-3.21
			l-9.09,7.42L317.21,398.31z M301.21,401.65l8.71-6.82l14.18-3.2l-8.88,7.1L301.21,401.65z M285.23,404.99l8.46-6.5l14.13-3.19
			l-8.65,6.78L285.23,404.99z M269.28,408.32l8.19-6.17l14.08-3.18l-8.39,6.45L269.28,408.32z M253.36,411.64l7.9-5.83l14.03-3.17
			l-8.12,6.12L253.36,411.64z"/>
		<path class="st13" d="M425.12,369.29l18.9-4.26l1.32-1.24l-18.8,4.24l8.58-7.62l18.24-4.12l1.32-1.24l-18.15,4.09l8.25-7.32
			l17.77-4.13l1.34-1.25l-17.67,4.1l11.97-10.63l-1.91,0.47L444.34,351l-15.87,3.68l11.65-10.34l-1.91,0.47l-11.61,10.31
			l-13.92,3.23l11.7-10.17l-1.95,0.48l-11.67,10.14l-13.87,3.22l11.75-10l-1.99,0.48l-11.71,9.97l-13.83,3.21l11.79-9.82l-2.03,0.49
			l-11.75,9.79l-13.78,3.2l11.82-9.65l-2.08,0.51l-11.78,9.61L349.59,373l11.84-9.47l-2.12,0.52l-11.8,9.43l-13.67,3.17l11.85-9.29
			l-2.16,0.53l-11.81,9.25l-13.62,3.16l11.85-9.1l-2.21,0.54l-11.8,9.07l-13.56,3.15l11.84-8.92l-2.26,0.55l-11.79,8.88l-13.5,3.14
			l11.82-8.73l-2.31,0.56l-11.77,8.69l-7.38,1.71l-1.88,1.38l7.41-1.72l-8.58,6.33l-7.45,1.68l-1.86,1.36l7.47-1.69l-11.08,8.19
			l-7.65,1.73l-1.86,1.36l7.68-1.73l-7.83,5.78l-7.55,1.58l-1.79,1.31l7.58-1.58l-11.28,8.33l2.14-0.44l11.29-8.34l13.86-2.89
			l-11.11,8.36l2.1-0.43l11.12-8.38l13.92-2.91l-10.94,8.4l2.06-0.42l10.95-8.41l13.99-2.92l-10.77,8.44l2.02-0.41l10.78-8.45
			l14.05-2.93l-10.6,8.48l1.98-0.4l10.62-8.49l14.11-2.95l-10.43,8.51l1.94-0.4l10.45-8.53l14.17-2.96l-10.26,8.55l1.9-0.39
			l10.28-8.56l14.23-2.97l-10.1,8.59l1.87-0.38l10.11-8.6l14.28-2.98l-9.93,8.63l1.83-0.37l9.94-8.64l14.34-2.99l-9.74,8.64
			l0.01,0.02l1.76-0.36l9.77-8.68l15.32-3.2l-9.87,8.77l1.8-0.37l9.89-8.78l19.2-4.01l1.29-1.2l-19.11,3.99l-1.81,0.38l-15.32,3.2
			l9.8-8.7l15.71-3.54L425.12,369.29z M288.05,393.6l-10.78,8.12l-13.98,3.16l11.08-8.19L288.05,393.6z M390.86,376.08l-14.31,3.23
			l9.09-7.74l14.05-3.17L390.86,376.08z M401.59,367.98l14.1-3.18l-8.58,7.62l-14.35,3.24L401.59,367.98z M374.63,379.75
			l-14.27,3.22l9.36-7.8l14-3.16L374.63,379.75z M358.39,383.41l-14.22,3.21l9.63-7.86l13.95-3.15L358.39,383.41z M342.16,387.07
			l-14.18,3.2l9.9-7.92l13.9-3.14L342.16,387.07z M325.93,390.73l-14.13,3.19l10.19-7.98l13.85-3.12L325.93,390.73z M309.71,394.39
			l-14.08,3.18l10.48-8.05l13.79-3.11L309.71,394.39z M293.49,398.05l-14.03,3.17l10.78-8.12l13.74-3.1L293.49,398.05z
			 M298.37,385.83l-8.54,6.43l-13.63,3.07l8.61-6.35L298.37,385.83z M314.19,382.15l-8.49,6.52l-13.69,3.09l8.56-6.45L314.19,382.15
			z M330.02,378.48l-8.44,6.61l-13.74,3.1l8.52-6.54L330.02,378.48z M345.86,374.8l-8.39,6.71l-13.8,3.11l8.46-6.63L345.86,374.8z
			 M361.7,371.12l-8.33,6.8l-13.85,3.13l8.41-6.72L361.7,371.12z M377.56,367.44l-8.26,6.89l-13.91,3.14l8.35-6.81L377.56,367.44z
			 M393.42,363.76l-8.2,6.97l-13.96,3.15l8.29-6.9L393.42,363.76z M409.29,360.08l-8.13,7.06l-14.01,3.16l8.22-6.99L409.29,360.08z
			 M425.16,356.39l-8.05,7.15l-14.06,3.17l8.15-7.08L425.16,356.39z M434.68,359.58l-15.71,3.54l8.07-7.17l15.87-3.68L434.68,359.58
			z M424.68,368.45L408.97,372l8.58-7.62l15.71-3.54L424.68,368.45z M381.64,385.32l9.66-8.39l14.39-3.25l-9.75,8.66L381.64,385.32z
			 M365.55,388.68l9.51-8.09l14.35-3.24l-9.61,8.35L365.55,388.68z M349.48,392.03l9.33-7.78l14.31-3.23l-9.45,8.04L349.48,392.03z
			 M333.44,395.38l9.14-7.46l14.27-3.22l-9.28,7.73L333.44,395.38z M317.41,398.72l8.94-7.15l14.22-3.21l-9.09,7.42L317.41,398.72z
			 M301.41,402.06l8.71-6.82l14.18-3.2l-8.88,7.1L301.41,402.06z M285.44,405.4l8.46-6.5l14.13-3.19l-8.65,6.78L285.44,405.4z
			 M269.48,408.73l8.19-6.17l14.08-3.18l-8.39,6.45L269.48,408.73z M253.56,412.05l7.9-5.83l14.03-3.17l-8.12,6.12L253.56,412.05z"
			/>
	</g>
	<path class="st14" d="M356.46,402.5l-74.07,15.2c-0.08,0.02-0.15,0.05-0.21,0.1l-40.65,30.74c-0.44,0.33-0.14,1.02,0.4,0.93
		l75.96-11.83c0.1-0.02,0.19-0.06,0.27-0.13l38.76-34.12C357.32,403.05,356.99,402.39,356.46,402.5z"/>
	<g>
		<polygon class="st9" points="500.3,336.97 501.65,335.77 498.6,329.61 497.3,330.88 		"/>
		<polygon class="st9" points="497.21,339.89 498.55,338.69 495.51,332.53 494.2,333.79 		"/>
		<polygon class="st9" points="494.11,342.8 495.45,341.61 492.41,335.45 491.1,336.71 		"/>
		<polygon class="st9" points="491.01,345.72 492.35,344.52 489.31,338.36 488,339.63 		"/>
		<polygon class="st9" points="487.91,348.64 489.26,347.44 486.21,341.28 484.9,342.55 		"/>
		<polygon class="st9" points="484.82,351.56 486.16,350.36 483.12,344.2 481.81,345.46 		"/>
		<polygon class="st9" points="481.72,354.47 483.06,353.28 480.02,347.12 478.71,348.38 		"/>
		<polygon class="st9" points="478.62,357.39 479.96,356.19 476.92,350.03 475.61,351.3 		"/>
		<polygon class="st9" points="475.52,360.31 476.87,359.11 473.82,352.95 472.51,354.22 		"/>
		<polygon class="st9" points="472.43,363.23 473.77,362.03 470.72,355.87 469.42,357.13 		"/>
	</g>
	<path class="st9" d="M505.78,326.14c0.63,1.28,1.82,1.99,2.66,1.59c0.83-0.4,1-1.76,0.36-3.05s-1.82-1.99-2.66-1.59
		S505.15,324.86,505.78,326.14z"/>
	<polygon class="st15" points="458.23,122.12 268.01,217.02 297.34,348.05 498.53,287.89 	"/>
	<path class="st16" d="M261.08,205.85l249.44,102.11c2.31-1.64,3.5-4.55,2.8-7.44l-47.44-193.95c-0.54-2.23-1.95-3.99-3.76-5.06
		c-1.81-0.38-3.77-0.17-5.56,0.76l-191.74,99.91C263.18,203.04,261.9,204.33,261.08,205.85z"/>
	<path class="st17" d="M381,435.31L165.55,470.8C165.55,470.8,254.17,466.49,381,435.31z"/>
	<g>
		
			<linearGradient id="SVGID_4_" gradientUnits="userSpaceOnUse" x1="348.0643" y1="156.1172" x2="352.2039" y2="156.1172" gradientTransform="matrix(0.9151 -0.4032 0.4032 0.9151 -29.0306 163.671)">
			<stop  offset="0" style="stop-color:#2DB9E7"/>
			<stop  offset="1" style="stop-color:#3D46A2"/>
		</linearGradient>
		<path class="st18" d="M356.17,164.43c0.66,1.21,0.33,2.62-0.77,3.1c-1.1,0.48-2.46-0.2-3.02-1.45c-0.53-1.19-0.13-2.46,0.87-2.89
			C354.25,162.75,355.54,163.29,356.17,164.43z"/>
		<path class="st1" d="M349.88,167.22c0.37,0.68,0.19,1.47-0.43,1.74c-0.62,0.27-1.38-0.11-1.7-0.82c-0.3-0.67-0.07-1.38,0.49-1.63
			C348.8,166.28,349.53,166.58,349.88,167.22z"/>
	</g>
</g>
<g>
	<g>
		<path class="st19" d="M617.7,570.2l-249.13,69.27c-12.45,3.46-25.38-3.69-28.88-15.98l-44.42-155.6
			c-3.51-12.28,3.74-25.05,16.19-28.51l249.13-69.27c12.45-3.46,25.38,3.69,28.88,15.98l44.42,155.6
			C637.4,553.98,630.15,566.74,617.7,570.2z"/>
		<path class="st15" d="M622.1,568.98l-249.13,69.27c-12.45,3.46-25.38-3.69-28.88-15.98l-44.42-155.6
			c-3.51-12.28,3.74-25.05,16.19-28.51l249.13-69.27c12.45-3.46,25.38,3.69,28.88,15.98l44.42,155.6
			C641.8,552.76,634.55,565.52,622.1,568.98z"/>
		<g>
			<defs>
				<path id="SVGID_5_" d="M622.1,568.98l-249.13,69.27c-12.45,3.46-25.38-3.69-28.88-15.98l-44.42-155.6
					c-3.51-12.28,3.74-25.05,16.19-28.51l249.13-69.27c12.45-3.46,25.38,3.69,28.88,15.98l44.42,155.6
					C641.8,552.76,634.55,565.52,622.1,568.98z"/>
			</defs>
			<clipPath id="SVGID_6_">
				<use xlink:href="#SVGID_5_"  style="overflow:visible;"/>
			</clipPath>
			<g class="st20">
				<path class="st19" d="M332.37,520.58l-6-21.01c-2.21-7.73,2.36-15.77,10.19-17.95l18.58-5.16c7.84-2.18,15.98,2.32,18.19,10.06
					l6,21.01c2.21,7.73-2.36,15.77-10.19,17.95l-18.57,5.16C342.72,532.82,334.58,528.31,332.37,520.58z"/>
				<path class="st21" d="M368.99,521.49l-20.43,5.68c-5.76,1.6-11.75-1.71-13.37-7.4l-6.52-22.84c-1.62-5.69,1.73-11.6,7.49-13.2
					l20.43-5.68c5.76-1.6,11.75,1.71,13.37,7.4l6.52,22.84C378.11,513.98,374.76,519.89,368.99,521.49z"/>
				
					<linearGradient id="SVGID_7_" gradientUnits="userSpaceOnUse" x1="359.5872" y1="-451.7789" x2="406.4733" y2="-390.8271" gradientTransform="matrix(0.9625 -0.2712 0.2712 0.9625 79.3246 997.973)">
					<stop  offset="0" style="stop-color:#FFFFFF"/>
					<stop  offset="1" style="stop-color:#FFFFFF;stop-opacity:0"/>
				</linearGradient>
				<path class="st22" d="M368.99,521.49l-20.43,5.68c-5.76,1.6-11.75-1.71-13.37-7.4l-6.52-22.84c-1.62-5.69,1.73-11.6,7.49-13.2
					l20.43-5.68c5.76-1.6,11.75,1.71,13.37,7.4l6.52,22.84C378.11,513.98,374.76,519.89,368.99,521.49z"/>
				<path class="st23" d="M363.33,514.76l-13.5,3.75c-3.56,0.99-7.26-1.06-8.27-4.57l-4.37-15.3c-1-3.52,1.07-7.17,4.63-8.16
					l13.5-3.75c3.56-0.99,7.26,1.06,8.27,4.57l4.37,15.3C368.97,510.11,366.9,513.77,363.33,514.76z"/>
				<path class="st23" d="M355.44,507.95l-2.47,0.69c-2.41,0.67-4.91-0.71-5.59-3.09l-0.78-2.74c-0.68-2.38,0.72-4.85,3.13-5.52
					l2.47-0.69c2.41-0.67,4.91,0.71,5.59,3.09l0.78,2.74C359.25,504.81,357.85,507.28,355.44,507.95z"/>
				<g>
					<g>
						<path class="st24" d="M357.35,498.23c2.52-0.56,5.01-1.3,7.49-2.04c0.3-0.09,0.17-0.56-0.13-0.47
							c-2.48,0.74-4.97,1.48-7.49,2.04C356.91,497.82,357.04,498.3,357.35,498.23L357.35,498.23z"/>
					</g>
				</g>
				<g>
					<g>
						<path class="st24" d="M359.02,504.07c2.46-0.55,4.88-1.3,7.28-2.04c0.3-0.09,0.17-0.57-0.13-0.47
							c-2.4,0.75-4.82,1.49-7.28,2.04C358.58,503.67,358.71,504.14,359.02,504.07L359.02,504.07z"/>
					</g>
				</g>
				<g>
					<g>
						<path class="st24" d="M338.73,503.4c2.52-0.56,5.01-1.3,7.49-2.04c0.3-0.09,0.17-0.56-0.13-0.47
							c-2.48,0.74-4.97,1.48-7.49,2.04C338.29,503,338.42,503.47,338.73,503.4L338.73,503.4z"/>
					</g>
				</g>
				<g>
					<g>
						<path class="st24" d="M340.4,509.25c2.46-0.55,4.88-1.3,7.28-2.04c0.3-0.09,0.17-0.57-0.13-0.47
							c-2.4,0.75-4.82,1.49-7.28,2.04C339.96,508.85,340.09,509.32,340.4,509.25L340.4,509.25z"/>
					</g>
				</g>
			</g>
			<g class="st20">
				<g class="st25">
					<path class="st26" d="M360.36,578.54c1.25,4.39,0.5,7.22-2.01,7.92c-2.22,0.62-4.4-1.33-5.66-5.59
						c-1.24-4.35-0.27-7.19,2.03-7.83C357.12,572.37,359.18,574.42,360.36,578.54z M354.24,580.44c0.96,3.37,2.41,5.02,3.81,4.63
						c1.57-0.44,1.72-2.73,0.78-6.02c-0.91-3.19-2.21-5.08-3.81-4.63C353.68,574.79,353.24,576.93,354.24,580.44z"/>
					<path class="st26" d="M372.82,575.08c1.25,4.39,0.5,7.22-2.01,7.92c-2.22,0.62-4.4-1.33-5.66-5.59
						c-1.24-4.35-0.27-7.19,2.03-7.83C369.58,568.9,371.64,570.96,372.82,575.08z M366.7,576.97c0.96,3.37,2.41,5.02,3.81,4.63
						c1.57-0.44,1.72-2.73,0.78-6.02c-0.91-3.19-2.21-5.07-3.81-4.63C366.14,571.33,365.7,573.47,366.7,576.97z"/>
					<path class="st26" d="M385.27,571.61c1.25,4.39,0.5,7.22-2.01,7.92c-2.22,0.62-4.4-1.33-5.66-5.59
						c-1.24-4.35-0.27-7.19,2.03-7.83C382.04,565.44,384.1,567.49,385.27,571.61z M379.16,573.51c0.96,3.37,2.41,5.02,3.81,4.63
						c1.57-0.44,1.72-2.73,0.78-6.02c-0.91-3.19-2.21-5.08-3.81-4.63C378.6,567.86,378.15,570.01,379.16,573.51z"/>
					<path class="st26" d="M397.73,568.15c1.25,4.39,0.5,7.22-2.01,7.92c-2.22,0.62-4.4-1.33-5.66-5.59
						c-1.24-4.35-0.27-7.19,2.03-7.83C394.49,561.97,396.56,564.03,397.73,568.15z M391.61,570.05c0.96,3.37,2.41,5.02,3.81,4.63
						c1.57-0.44,1.72-2.73,0.78-6.02c-0.91-3.19-2.21-5.07-3.81-4.63C391.06,564.4,390.61,566.54,391.61,570.05z"/>
					<path class="st26" d="M411.82,559.15l-0.04,0.01l-1.63,1.76l-0.67-1.25l2.05-2.2l1.3-0.36l3.69,12.93l-1.48,0.41L411.82,559.15
						z"/>
					<path class="st26" d="M424.17,567.92l-0.3-1.06l0.83-1.67c2-3.95,2.84-6,2.29-7.95c-0.38-1.31-1.27-2.38-2.96-1.91
						c-1.04,0.29-1.72,1.13-2.1,1.77l-0.84-1.09c0.56-0.97,1.53-1.85,2.84-2.21c2.44-0.68,4.02,0.95,4.54,2.79
						c0.69,2.4-0.28,4.76-1.93,8.03l-0.62,1.22l0.01,0.04l5.09-1.42l0.41,1.45L424.17,567.92z"/>
					<path class="st26" d="M436.43,562.35c0.52,0.19,1.67,0.4,2.75,0.1c1.96-0.55,2.17-2.14,1.86-3.22
						c-0.54-1.81-2.2-2.18-3.68-1.77l-0.86,0.24l-0.38-1.31l0.86-0.24c1.12-0.31,2.35-1.36,1.91-2.89c-0.3-1.04-1.14-1.79-2.55-1.39
						c-0.9,0.25-1.65,0.95-2.02,1.48l-0.77-1.15c0.45-0.67,1.47-1.49,2.69-1.83c2.25-0.62,3.7,0.6,4.15,2.18
						c0.38,1.34-0.01,2.67-1.23,3.63l0.01,0.04c1.48-0.08,2.96,0.81,3.47,2.61c0.59,2.06-0.32,4.28-3.04,5.03
						c-1.28,0.35-2.52,0.21-3.2-0.07L436.43,562.35z"/>
					<path class="st26" d="M453.84,559.67l-1.01-3.53l-5.28,1.47l-0.33-1.14l2.7-9.67l1.67-0.46l2.3,8.05l1.59-0.44l0.39,1.36
						l-1.59,0.44l1.01,3.53L453.84,559.67z M452.45,554.78l-1.23-4.33c-0.19-0.68-0.37-1.36-0.52-2.04l-0.06,0.01
						c-0.13,0.87-0.25,1.5-0.4,2.19l-1.51,5.17l0.01,0.04L452.45,554.78z"/>
					<path class="st26" d="M472.25,542.17l-4.33,1.2l0.51,3.45c0.25-0.11,0.48-0.21,0.9-0.33c0.88-0.24,1.81-0.27,2.65,0.02
						c1.04,0.32,2.1,1.24,2.57,2.87c0.72,2.52-0.5,4.9-2.97,5.58c-1.25,0.35-2.4,0.24-3.06-0.01l0.01-1.44
						c0.55,0.19,1.6,0.34,2.64,0.05c1.44-0.4,2.38-1.83,1.88-3.57c-0.48-1.66-1.8-2.57-4.07-1.94c-0.66,0.18-1.14,0.39-1.54,0.57
						l-1.04-6.41l5.43-1.51L472.25,542.17z"/>
					<path class="st26" d="M484.35,538.55c-0.33,0.08-0.71,0.21-1.14,0.42c-2.29,1.11-2.98,3.48-2.62,5.69l0.04-0.01
						c0.3-0.98,1.05-1.92,2.31-2.27c2.02-0.56,3.91,0.71,4.63,3.22c0.68,2.37-0.12,4.96-2.48,5.61c-2.42,0.67-4.62-1.04-5.58-4.39
						c-0.73-2.54-0.51-4.78,0.26-6.37c0.63-1.32,1.71-2.32,3.09-2.93c0.43-0.21,0.8-0.33,1.08-0.41L484.35,538.55z M486.04,546.14
						c-0.53-1.85-1.78-2.7-3.18-2.31c-0.93,0.26-1.61,1.15-1.76,2.2c-0.03,0.23-0.03,0.5,0.06,0.81c0.63,2.12,1.95,3.47,3.56,3.02
						C486.04,549.5,486.57,547.99,486.04,546.14z"/>
					<path class="st26" d="M497.35,533.61l0.33,1.15l-1.59,13.16l-1.58,0.44l1.65-12.81l-0.01-0.04l-5.55,1.54l-0.41-1.45
						L497.35,533.61z"/>
					<path class="st26" d="M505.05,541.89c-0.46-1.63,0.06-3.02,1.25-4.1l-0.02-0.06c-1.46-0.31-2.32-1.27-2.64-2.39
						c-0.58-2.04,0.55-3.86,2.55-4.42c2.19-0.61,3.75,0.65,4.21,2.26c0.31,1.1,0.17,2.41-1.01,3.54l0.02,0.06
						c1.59,0.24,2.79,1.15,3.24,2.7c0.64,2.26-0.62,4.24-2.8,4.84C507.48,544.99,505.59,543.78,505.05,541.89z M505.07,534.81
						c0.36,1.3,1.43,1.76,2.84,1.79c0.87-0.64,1.39-1.65,1.06-2.83c-0.29-1.02-1.14-1.95-2.52-1.56
						C505.17,532.56,504.75,533.71,505.07,534.81z M511.14,540.1c-0.45-1.56-1.62-2.06-3.3-2.12c-1.2,0.79-1.64,2-1.29,3.23
						c0.33,1.32,1.52,2.23,2.97,1.82C510.91,542.66,511.52,541.43,511.14,540.1z"/>
					<path class="st26" d="M526.32,538.18c0.34-0.06,0.71-0.19,1.21-0.41c0.85-0.37,1.58-1.02,2.03-1.9
						c0.52-0.99,0.74-2.28,0.51-3.86l-0.04,0.01c-0.39,1.06-1.14,1.82-2.29,2.14c-2.04,0.57-3.85-0.82-4.48-3.03
						c-0.69-2.43,0.25-5.02,2.58-5.67c2.32-0.64,4.37,1.1,5.31,4.42c0.81,2.84,0.53,5.06-0.23,6.61c-0.6,1.2-1.63,2.15-2.81,2.64
						c-0.52,0.25-1.01,0.42-1.37,0.49L526.32,538.18z M524.76,530.6c0.46,1.61,1.64,2.51,2.97,2.13c1.02-0.28,1.66-1.09,1.85-1.98
						c0.03-0.18,0.04-0.39-0.05-0.68c-0.63-2.22-1.83-3.69-3.44-3.24C524.78,527.2,524.23,528.77,524.76,530.6z"/>
					<path class="st26" d="M538.78,534.72c0.34-0.06,0.71-0.19,1.21-0.41c0.85-0.37,1.58-1.02,2.03-1.91
						c0.52-0.99,0.74-2.28,0.51-3.86l-0.05,0.01c-0.39,1.06-1.14,1.82-2.29,2.14c-2.04,0.57-3.85-0.82-4.48-3.03
						c-0.69-2.43,0.25-5.02,2.58-5.67c2.32-0.64,4.37,1.1,5.31,4.42c0.81,2.84,0.53,5.06-0.23,6.61c-0.6,1.2-1.63,2.15-2.81,2.64
						c-0.52,0.25-1.01,0.42-1.37,0.49L538.78,534.72z M537.21,527.13c0.46,1.61,1.64,2.51,2.97,2.13c1.02-0.28,1.66-1.09,1.85-1.98
						c0.03-0.18,0.04-0.39-0.05-0.68c-0.63-2.22-1.83-3.69-3.44-3.24C537.24,523.73,536.69,525.3,537.21,527.13z"/>
					<path class="st26" d="M551.24,531.25c0.34-0.06,0.71-0.19,1.21-0.41c0.85-0.37,1.58-1.02,2.03-1.9
						c0.52-0.99,0.74-2.28,0.51-3.86l-0.05,0.01c-0.39,1.06-1.14,1.82-2.29,2.14c-2.04,0.57-3.85-0.82-4.48-3.03
						c-0.69-2.43,0.25-5.02,2.58-5.67c2.32-0.64,4.37,1.1,5.31,4.42c0.81,2.84,0.53,5.06-0.23,6.61c-0.6,1.2-1.63,2.15-2.81,2.64
						c-0.52,0.25-1.01,0.42-1.37,0.49L551.24,531.25z M549.67,523.67c0.46,1.61,1.64,2.51,2.98,2.13c1.02-0.28,1.66-1.09,1.85-1.98
						c0.03-0.18,0.04-0.39-0.05-0.68c-0.63-2.22-1.83-3.69-3.44-3.24C549.7,520.27,549.15,521.84,549.67,523.67z"/>
					<path class="st26" d="M563.7,527.79c0.34-0.06,0.71-0.19,1.21-0.41c0.85-0.37,1.58-1.02,2.03-1.9
						c0.52-0.99,0.74-2.28,0.51-3.86l-0.05,0.01c-0.39,1.06-1.14,1.82-2.29,2.14c-2.04,0.57-3.85-0.82-4.48-3.03
						c-0.69-2.43,0.25-5.02,2.58-5.67c2.32-0.64,4.37,1.1,5.31,4.42c0.81,2.84,0.53,5.06-0.23,6.61c-0.59,1.2-1.63,2.15-2.81,2.64
						c-0.52,0.25-1.01,0.42-1.37,0.49L563.7,527.79z M562.13,520.21c0.46,1.61,1.64,2.51,2.97,2.13c1.02-0.28,1.66-1.09,1.85-1.98
						c0.03-0.18,0.04-0.39-0.05-0.68c-0.63-2.22-1.83-3.69-3.44-3.24C562.15,516.8,561.61,518.38,562.13,520.21z"/>
				</g>
			</g>
			
				<linearGradient id="SVGID_8_" gradientUnits="userSpaceOnUse" x1="533.2132" y1="-496.3196" x2="533.2132" y2="-250.9772" gradientTransform="matrix(1.1016 -0.2641 0.3498 1.0774 -15.6986 974.9337)">
				<stop  offset="0" style="stop-color:#FFFFFF"/>
				<stop  offset="1" style="stop-color:#FFFFFF;stop-opacity:0"/>
			</linearGradient>
			<polygon class="st27" points="384.68,672.33 312.29,632.29 521.19,264.4 593.58,304.44 			"/>
			
				<linearGradient id="SVGID_9_" gradientUnits="userSpaceOnUse" x1="460.8755" y1="-670.6332" x2="460.8755" y2="-415.7719" gradientTransform="matrix(0.7725 -0.3776 0.0812 0.8561 210.623 1071.5544)">
				<stop  offset="0" style="stop-color:#FFFFFF"/>
				<stop  offset="1" style="stop-color:#FFFFFF;stop-opacity:0"/>
			</linearGradient>
			<polygon class="st28" points="440.39,655.32 421.86,645.07 613.97,306.74 632.5,316.99 			"/>
			
				<linearGradient id="SVGID_10_" gradientUnits="userSpaceOnUse" x1="175.0231" y1="-2361.9233" x2="175.0231" y2="-1943.292" gradientTransform="matrix(0.2843 -0.1156 0.0498 0.3028 371.7397 1098.7587)">
				<stop  offset="0" style="stop-color:#FFFFFF"/>
				<stop  offset="1" style="stop-color:#FFFFFF;stop-opacity:0"/>
			</linearGradient>
			<polygon class="st29" points="291.91,525.7 284.66,521.69 349.81,406.96 357.06,410.97 			"/>
		</g>
	</g>
	<g>
		<path class="st26" d="M363.25,614.47c0.62-1.13,1.61-1.88,2.97-2.26c1.81-0.5,3.31-0.28,4.48,0.67c0.65,0.54,1.09,1.14,1.32,1.8
			l-2.28,0.63c-0.29-0.47-0.59-0.81-0.89-1.01c-0.54-0.35-1.21-0.42-2-0.2c-0.81,0.23-1.36,0.73-1.64,1.52
			c-0.28,0.79-0.25,1.79,0.1,2.99s0.85,2.04,1.51,2.5c0.67,0.46,1.38,0.59,2.14,0.38c0.78-0.22,1.3-0.64,1.56-1.27
			c0.15-0.34,0.22-0.81,0.21-1.4l2.26-0.63c0.14,1.23-0.09,2.32-0.68,3.27c-0.59,0.96-1.51,1.61-2.77,1.96
			c-1.55,0.43-2.91,0.27-4.08-0.47c-1.17-0.75-2-1.99-2.5-3.73C362.44,617.35,362.53,615.76,363.25,614.47z"/>
		<path class="st26" d="M377.71,612.06c0.03-0.01,0.09-0.02,0.18-0.04l0.61,2.13c-0.14,0.02-0.26,0.05-0.36,0.07
			c-0.1,0.02-0.19,0.04-0.25,0.06c-0.85,0.24-1.34,0.67-1.47,1.29c-0.08,0.35-0.02,0.85,0.16,1.48l1.08,3.8l-2.12,0.59l-2.27-7.95
			l2.01-0.56l0.4,1.39c0.17-0.62,0.35-1.06,0.54-1.32c0.3-0.43,0.77-0.74,1.4-0.92C377.65,612.07,377.68,612.06,377.71,612.06z"/>
		<path class="st26" d="M384.32,610.59c0.63,0.09,1.21,0.36,1.73,0.79c0.46,0.38,0.83,0.87,1.11,1.46c0.16,0.35,0.33,0.87,0.52,1.56
			l-5.86,1.63c0.26,0.79,0.7,1.27,1.32,1.44c0.38,0.11,0.79,0.1,1.25-0.02c0.48-0.13,0.83-0.36,1.06-0.69
			c0.13-0.18,0.22-0.4,0.28-0.67l2.15-0.6c0.08,0.49-0.05,1.04-0.37,1.65c-0.5,0.97-1.4,1.64-2.7,2c-1.07,0.3-2.11,0.23-3.11-0.19
			c-1.01-0.42-1.72-1.37-2.14-2.84c-0.39-1.38-0.32-2.53,0.21-3.47c0.53-0.94,1.38-1.57,2.56-1.9
			C383.02,610.55,383.69,610.5,384.32,610.59z M381.68,613.26c-0.21,0.39-0.28,0.85-0.21,1.39l3.63-1.01
			c-0.2-0.54-0.5-0.91-0.92-1.1c-0.42-0.19-0.87-0.22-1.37-0.08C382.27,612.61,381.89,612.88,381.68,613.26z"/>
		<path class="st26" d="M391.59,608.53c0.44,0.11,0.83,0.31,1.17,0.62l-1.08-3.79l2.13-0.59l3.06,10.73l-2.05,0.57l-0.31-1.1
			c-0.17,0.56-0.41,0.99-0.73,1.31c-0.32,0.32-0.77,0.56-1.34,0.72c-0.94,0.26-1.84,0.11-2.7-0.47c-0.86-0.57-1.45-1.45-1.79-2.62
			c-0.39-1.36-0.38-2.51,0.04-3.46c0.41-0.95,1.15-1.58,2.2-1.87C390.69,608.44,391.15,608.43,391.59,608.53z M393.73,614.05
			c0.19-0.52,0.18-1.13-0.02-1.83c-0.28-0.97-0.72-1.6-1.34-1.88c-0.38-0.17-0.77-0.2-1.17-0.08c-0.62,0.17-1,0.53-1.16,1.07
			c-0.16,0.54-0.14,1.15,0.06,1.83c0.21,0.73,0.52,1.28,0.94,1.64c0.42,0.36,0.93,0.45,1.52,0.29
			C393.15,614.92,393.54,614.57,393.73,614.05z"/>
		<path class="st26" d="M397.3,605.79l-0.19,0.05c-0.54,0.15-1.09-0.16-1.24-0.69l0,0c-0.15-0.53,0.16-1.08,0.7-1.23l0.19-0.05
			c0.54-0.15,1.09,0.16,1.24,0.69l0,0C398.15,605.09,397.84,605.64,397.3,605.79z M396.41,607.06l2.13-0.59l2.27,7.95l-2.13,0.59
			L396.41,607.06z"/>
		<path class="st26" d="M400.05,607.72l-0.42-1.48l1.12-0.31l-0.63-2.22l2.08-0.58l0.63,2.22l1.31-0.36l0.42,1.48l-1.31,0.36
			l1.2,4.2c0.09,0.33,0.19,0.52,0.3,0.57c0.11,0.06,0.37,0.03,0.8-0.09c0.06-0.02,0.13-0.04,0.2-0.06c0.07-0.02,0.14-0.05,0.21-0.07
			l0.44,1.55l-0.99,0.31c-0.99,0.31-1.71,0.33-2.18,0.06c-0.3-0.17-0.53-0.51-0.67-1l-1.4-4.89L400.05,607.72z"/>
		<path class="st26" d="M415.87,609.19c-0.58,1.06-1.65,1.81-3.21,2.25c-1.56,0.43-2.86,0.35-3.93-0.26
			c-1.4-0.72-2.37-2.04-2.92-3.97c-0.56-1.97-0.43-3.6,0.39-4.89c0.58-1.06,1.65-1.81,3.21-2.25c1.56-0.43,2.86-0.35,3.93,0.26
			c1.38,0.68,2.35,2.01,2.91,3.97C416.8,606.23,416.67,607.86,415.87,609.19z M413.98,607.96c0.34-0.8,0.34-1.81-0.01-3.02
			c-0.34-1.21-0.87-2.06-1.59-2.58c-0.72-0.51-1.53-0.64-2.43-0.39c-0.9,0.25-1.53,0.78-1.88,1.58c-0.35,0.81-0.35,1.81-0.01,3.02
			c0.35,1.21,0.88,2.07,1.6,2.58c0.72,0.51,1.54,0.63,2.44,0.38C413.01,609.29,413.63,608.76,413.98,607.96z"/>
		<path class="st26" d="M421.24,600.29c0.44,0.11,0.83,0.31,1.17,0.62l-1.08-3.79l2.13-0.59l3.06,10.73l-2.05,0.57l-0.31-1.1
			c-0.17,0.56-0.41,0.99-0.73,1.31s-0.77,0.56-1.34,0.72c-0.94,0.26-1.84,0.11-2.7-0.47c-0.86-0.57-1.45-1.45-1.79-2.62
			c-0.39-1.36-0.38-2.51,0.04-3.46c0.41-0.95,1.15-1.58,2.2-1.87C420.33,600.2,420.8,600.19,421.24,600.29z M423.37,605.81
			c0.19-0.52,0.18-1.13-0.02-1.83c-0.28-0.97-0.72-1.6-1.34-1.88c-0.38-0.17-0.77-0.2-1.17-0.08c-0.62,0.17-1,0.53-1.16,1.07
			c-0.16,0.54-0.14,1.15,0.06,1.83c0.21,0.73,0.52,1.28,0.94,1.64c0.42,0.36,0.93,0.45,1.52,0.29
			C422.79,606.68,423.18,606.33,423.37,605.81z"/>
		<path class="st26" d="M430.33,597.77c0.44,0.11,0.83,0.31,1.17,0.62l-1.08-3.79l2.13-0.59l3.06,10.73l-2.05,0.57l-0.31-1.1
			c-0.17,0.56-0.41,0.99-0.73,1.31c-0.32,0.32-0.77,0.56-1.34,0.72c-0.94,0.26-1.84,0.11-2.7-0.47c-0.86-0.57-1.45-1.45-1.79-2.62
			c-0.39-1.36-0.38-2.51,0.04-3.46c0.41-0.95,1.15-1.58,2.2-1.87C429.42,597.67,429.89,597.66,430.33,597.77z M432.46,603.28
			c0.19-0.52,0.18-1.13-0.02-1.83c-0.28-0.97-0.72-1.6-1.34-1.88c-0.38-0.17-0.77-0.2-1.17-0.08c-0.62,0.17-1,0.53-1.16,1.07
			c-0.16,0.54-0.14,1.15,0.06,1.83c0.21,0.73,0.52,1.28,0.94,1.64c0.42,0.36,0.93,0.45,1.52,0.29
			C431.88,604.15,432.27,603.81,432.46,603.28z"/>
		<path class="st26" d="M438.29,601.25c0.15,0.36,0.32,0.59,0.51,0.71c0.34,0.2,0.87,0.21,1.57,0.01c0.42-0.12,0.73-0.27,0.94-0.46
			c0.21-0.19,0.28-0.41,0.21-0.65c-0.07-0.23-0.22-0.38-0.45-0.45c-0.23-0.07-1.03-0.07-2.38-0.01c-0.98,0.03-1.7-0.07-2.17-0.3
			c-0.47-0.23-0.79-0.65-0.97-1.27c-0.21-0.73-0.1-1.45,0.34-2.14c0.43-0.69,1.18-1.18,2.24-1.48c1.01-0.28,1.88-0.31,2.63-0.09
			c0.75,0.22,1.31,0.8,1.68,1.75l-2.11,0.59c-0.11-0.26-0.24-0.45-0.41-0.57c-0.31-0.22-0.75-0.25-1.31-0.09
			c-0.46,0.13-0.77,0.29-0.92,0.48c-0.15,0.19-0.21,0.39-0.15,0.58c0.07,0.24,0.22,0.38,0.46,0.43c0.24,0.05,1.03,0.04,2.36-0.04
			c0.89-0.04,1.61,0.08,2.14,0.36c0.53,0.28,0.88,0.72,1.05,1.32c0.22,0.79,0.11,1.51-0.34,2.18c-0.45,0.66-1.3,1.17-2.54,1.51
			c-1.27,0.35-2.28,0.35-3.03-0.01c-0.75-0.36-1.25-0.95-1.48-1.76L438.29,601.25z"/>
	</g>
	<text transform="matrix(0.9755 -0.2669 0.2704 0.9627 491.7421 418.9883)" class="st26 st30 st31">Credit Card</text>
</g>
<g>
	
		<ellipse transform="matrix(0.8665 -0.4991 0.4991 0.8665 -187.0168 377.0004)" class="st26" cx="611.39" cy="538.18" rx="2.08" ry="2.4"/>
	
		<ellipse transform="matrix(0.8665 -0.4991 0.4991 0.8665 -186.005 379.6106)" class="st26" cx="616.78" cy="537.59" rx="1.62" ry="1.87"/>
	
		<ellipse transform="matrix(0.8665 -0.4991 0.4991 0.8665 -190.3451 379.2365)" class="st26" cx="613.91" cy="545.52" rx="2.08" ry="2.4"/>
	
		<ellipse transform="matrix(0.8665 -0.4991 0.4991 0.8665 -189.3333 381.8468)" class="st26" cx="619.3" cy="544.93" rx="1.62" ry="1.87"/>
	<g>
		<path class="st26" d="M605.48,537.67l-1.46-4.5c-0.32-0.98-1.31-1.39-1.87-0.76l-7.65,8.57c-0.3,0.34-0.39,0.9-0.21,1.44l1.24,3.8
			L605.48,537.67z"/>
		<path class="st26" d="M596.65,549.68l2.17,6.67c0.24,0.75,0.91,1.2,1.48,1.02l9.44-3.07c0.57-0.19,0.84-0.95,0.6-1.7l-3.35-10.28
			L596.65,549.68z"/>
	</g>
</g>
<g>
	<g>
		
			<ellipse transform="matrix(0.9955 -0.095 0.095 0.9955 -22.9465 31.9364)" class="st26" cx="324.04" cy="257.04" rx="2.42" ry="2.82"/>
		
			<ellipse transform="matrix(0.9955 -0.095 0.095 0.9955 -22.8357 32.5136)" class="st26" cx="330.16" cy="256.16" rx="1.89" ry="2.2"/>
		
			<ellipse transform="matrix(0.9955 -0.095 0.095 0.9955 -23.7746 32.1936)" class="st26" cx="326.33" cy="265.86" rx="2.42" ry="2.82"/>
		
			<ellipse transform="matrix(0.9955 -0.095 0.095 0.9955 -23.6637 32.7708)" class="st26" cx="332.45" cy="264.99" rx="1.89" ry="2.2"/>
		<g>
			<path class="st26" d="M317.41,256.6l-1.31-5.41c-0.29-1.18-1.37-1.64-2.05-0.87l-9.27,10.63c-0.37,0.42-0.5,1.11-0.35,1.75
				l1.11,4.58L317.41,256.6z"/>
			<path class="st26" d="M306.55,271.44l1.95,8.02c0.22,0.9,0.93,1.43,1.6,1.19l10.88-4.01c0.66-0.24,1.02-1.17,0.8-2.07l-3-12.37
				L306.55,271.44z"/>
		</g>
	</g>
	<g>
		<path class="st26" d="M339.96,252.97c0.92-1.77,2.33-3.01,4.23-3.72c2.55-0.94,4.63-0.75,6.24,0.58c0.89,0.75,1.48,1.62,1.77,2.6
			l-3.2,1.18c-0.39-0.69-0.79-1.17-1.21-1.45c-0.74-0.48-1.67-0.52-2.79-0.11c-1.14,0.42-1.92,1.24-2.34,2.47
			c-0.42,1.22-0.41,2.73,0.02,4.53c0.44,1.8,1.11,3.01,2.02,3.65c0.91,0.64,1.9,0.76,2.98,0.36c1.1-0.41,1.84-1.1,2.23-2.08
			c0.22-0.53,0.33-1.25,0.34-2.15l3.18-1.17c0.15,1.85-0.21,3.52-1.07,5.03c-0.86,1.51-2.18,2.59-3.94,3.24
			c-2.18,0.81-4.08,0.7-5.68-0.32c-1.61-1.02-2.73-2.83-3.35-5.41C338.72,257.43,338.91,255.01,339.96,252.97z"/>
		<path class="st26" d="M360.27,247.9c0.04-0.01,0.13-0.04,0.26-0.08l0.77,3.17c-0.19,0.05-0.36,0.09-0.51,0.14
			c-0.15,0.05-0.27,0.09-0.36,0.12c-1.19,0.44-1.9,1.14-2.11,2.1c-0.12,0.54-0.06,1.28,0.17,2.23l1.37,5.66l-2.99,1.1l-2.87-11.84
			l2.83-1.04l0.5,2.06c0.27-0.96,0.53-1.64,0.8-2.06c0.44-0.69,1.1-1.2,1.99-1.53C360.18,247.93,360.23,247.91,360.27,247.9z"/>
		<path class="st26" d="M369.56,245.03c0.88,0.08,1.68,0.42,2.38,1.03c0.64,0.53,1.13,1.24,1.5,2.11c0.21,0.51,0.43,1.29,0.67,2.31
			l-8.26,3.05c0.33,1.17,0.93,1.86,1.79,2.06c0.53,0.13,1.11,0.08,1.74-0.16c0.67-0.25,1.18-0.63,1.51-1.15
			c0.18-0.28,0.32-0.63,0.41-1.04l3.03-1.12c0.09,0.73-0.1,1.58-0.58,2.54c-0.74,1.53-2.02,2.63-3.85,3.3
			c-1.51,0.56-2.96,0.56-4.35,0.02c-1.39-0.54-2.35-1.91-2.88-4.1c-0.5-2.05-0.36-3.81,0.42-5.29c0.78-1.48,1.99-2.52,3.66-3.14
			C367.75,245.1,368.68,244.96,369.56,245.03z M365.78,249.34c-0.31,0.61-0.42,1.31-0.34,2.12l5.11-1.88
			c-0.25-0.8-0.67-1.33-1.24-1.58c-0.58-0.25-1.21-0.25-1.91,0.01C366.62,248.29,366.09,248.74,365.78,249.34z"/>
		<path class="st26" d="M379.81,241.2c0.61,0.12,1.15,0.39,1.62,0.83l-1.37-5.65l3.01-1.11l3.88,15.98l-2.88,1.06l-0.4-1.64
			c-0.25,0.86-0.61,1.55-1.07,2.07c-0.46,0.52-1.1,0.93-1.9,1.22c-1.33,0.49-2.58,0.34-3.75-0.44c-1.18-0.78-1.98-2.05-2.4-3.8
			c-0.49-2.02-0.43-3.77,0.18-5.26c0.61-1.49,1.66-2.51,3.15-3.06C378.55,241.15,379.2,241.08,379.81,241.2z M382.59,249.36
			c0.28-0.81,0.29-1.74,0.04-2.77c-0.35-1.45-0.95-2.35-1.81-2.72c-0.52-0.22-1.07-0.22-1.63-0.01c-0.87,0.32-1.42,0.9-1.66,1.73
			c-0.24,0.83-0.24,1.76,0.01,2.77c0.27,1.09,0.68,1.89,1.26,2.39c0.57,0.5,1.28,0.6,2.12,0.29
			C381.75,250.73,382.31,250.17,382.59,249.36z"/>
		<path class="st26" d="M387.89,236.47l-0.27,0.1c-0.76,0.28-1.52-0.13-1.71-0.92l0,0c-0.19-0.79,0.27-1.65,1.02-1.93l0.27-0.1
			c0.76-0.28,1.52,0.13,1.71,0.92l0,0C389.1,235.33,388.65,236.19,387.89,236.47z M386.59,238.49l3.01-1.11l2.87,11.84l-3.01,1.11
			L386.59,238.49z"/>
		<path class="st26" d="M391.66,239.14l-0.54-2.2l1.58-0.58l-0.8-3.3l2.93-1.08l0.8,3.3l1.84-0.68l0.54,2.2l-1.84,0.68l1.52,6.25
			c0.12,0.49,0.25,0.77,0.4,0.84c0.15,0.08,0.52,0,1.13-0.22c0.09-0.03,0.19-0.07,0.29-0.11c0.1-0.04,0.2-0.08,0.29-0.13l0.56,2.31
			l-1.39,0.57c-1.39,0.57-2.41,0.67-3.06,0.3c-0.42-0.23-0.72-0.72-0.9-1.45l-1.77-7.29L391.66,239.14z"/>
		<path class="st26" d="M413.72,239.83c-0.86,1.67-2.38,2.91-4.57,3.72c-2.19,0.81-4.02,0.8-5.48-0.01
			c-1.92-0.95-3.24-2.87-3.93-5.74c-0.71-2.93-0.47-5.42,0.73-7.46c0.86-1.67,2.38-2.91,4.57-3.72c2.19-0.81,4.02-0.8,5.48,0.01
			c1.9,0.9,3.21,2.81,3.92,5.75C415.13,235.24,414.89,237.73,413.72,239.83z M411.12,238.13c0.51-1.25,0.54-2.78,0.11-4.58
			c-0.44-1.8-1.15-3.05-2.13-3.75c-0.98-0.71-2.11-0.82-3.38-0.36c-1.27,0.47-2.16,1.33-2.68,2.59c-0.52,1.26-0.56,2.79-0.12,4.59
			c0.44,1.8,1.15,3.05,2.15,3.75c0.99,0.7,2.12,0.81,3.39,0.34C409.73,240.24,410.61,239.38,411.12,238.13z"/>
		<path class="st26" d="M421.56,225.79c0.61,0.12,1.15,0.39,1.62,0.83l-1.37-5.65l3.01-1.11l3.88,15.98l-2.88,1.06l-0.4-1.64
			c-0.25,0.86-0.61,1.55-1.07,2.07s-1.1,0.93-1.9,1.22c-1.32,0.49-2.58,0.34-3.75-0.44c-1.18-0.78-1.98-2.05-2.4-3.8
			c-0.49-2.02-0.43-3.77,0.18-5.26c0.61-1.49,1.66-2.51,3.15-3.06C420.3,225.74,420.95,225.67,421.56,225.79z M424.33,233.96
			c0.28-0.81,0.29-1.74,0.04-2.77c-0.35-1.45-0.95-2.35-1.8-2.72c-0.52-0.22-1.07-0.22-1.63-0.01c-0.87,0.32-1.42,0.9-1.66,1.73
			c-0.24,0.83-0.24,1.76,0.01,2.77c0.27,1.09,0.68,1.89,1.26,2.39c0.57,0.5,1.28,0.6,2.12,0.29
			C423.49,235.33,424.05,234.77,424.33,233.96z"/>
		<path class="st26" d="M434.36,221.07c0.61,0.12,1.15,0.39,1.62,0.83l-1.37-5.65l3.01-1.11l3.88,15.98l-2.88,1.06l-0.4-1.64
			c-0.25,0.86-0.61,1.55-1.07,2.07s-1.1,0.93-1.9,1.22c-1.32,0.49-2.58,0.34-3.75-0.44c-1.18-0.78-1.98-2.05-2.4-3.8
			c-0.49-2.02-0.43-3.77,0.18-5.26c0.61-1.49,1.66-2.51,3.15-3.06C433.1,221.02,433.75,220.95,434.36,221.07z M437.13,229.23
			c0.28-0.81,0.29-1.74,0.04-2.77c-0.35-1.45-0.95-2.35-1.8-2.72c-0.52-0.22-1.07-0.22-1.63-0.01c-0.87,0.32-1.42,0.9-1.66,1.73
			c-0.24,0.83-0.24,1.76,0.01,2.77c0.27,1.09,0.68,1.89,1.26,2.39c0.57,0.5,1.28,0.6,2.12,0.29
			C436.3,230.61,436.85,230.04,437.13,229.23z"/>
		<path class="st26" d="M445.35,225.58c0.2,0.53,0.43,0.87,0.69,1.02c0.47,0.28,1.2,0.23,2.2-0.14c0.59-0.22,1.03-0.48,1.33-0.79
			c0.3-0.31,0.41-0.64,0.32-1.01c-0.08-0.35-0.29-0.56-0.61-0.64c-0.32-0.08-1.43-0.01-3.33,0.21c-1.37,0.14-2.38,0.06-3.03-0.24
			c-0.65-0.3-1.08-0.91-1.31-1.84c-0.27-1.09-0.08-2.18,0.55-3.27c0.63-1.09,1.7-1.91,3.19-2.46c1.42-0.52,2.64-0.65,3.68-0.39
			c1.04,0.26,1.8,1.09,2.28,2.49l-2.96,1.09c-0.14-0.38-0.32-0.66-0.55-0.83c-0.43-0.3-1.04-0.3-1.82-0.01
			c-0.65,0.24-1.08,0.51-1.31,0.83c-0.22,0.31-0.3,0.61-0.23,0.89c0.09,0.36,0.29,0.56,0.63,0.61c0.33,0.06,1.43-0.04,3.3-0.28
			c1.25-0.15,2.24-0.03,2.98,0.33c0.73,0.38,1.2,1.01,1.41,1.9c0.28,1.17,0.1,2.29-0.56,3.34c-0.66,1.05-1.86,1.9-3.61,2.55
			c-1.79,0.66-3.2,0.75-4.24,0.28c-1.04-0.47-1.71-1.31-2.01-2.53L445.35,225.58z"/>
	</g>
</g>
</svg>
